<?xml version="1.0" encoding="UTF-8"?> <svg xmlns="http://www.w3.org/2000/svg" width="1175" height="1060" viewBox="0 0 1175 1060" fill="none"> <path d="M1133.85 96.6298L914.75 111.26C913.08 111.374 911.483 111.986 910.164 113.016C908.845 114.046 907.865 115.448 907.349 117.04C906.834 118.632 906.807 120.342 907.273 121.95C907.738 123.557 908.674 124.989 909.96 126.06L921.51 135.65C928.03 141.07 937.68 146.93 939.8 155.9C942.89 168.99 926.32 169.39 917.62 168.54C891.9 166.03 866.22 163.35 840.51 160.83C820.16 158.83 799.77 157.12 779.4 155.27L709.66 149L632.52 142L550.52 134.58L466.32 126.96L382.48 119.37L301.62 112L226.25 105.18L159 99.1198L102.43 93.9998L59.1598 90.0898L31.7598 87.6098L22.7598 86.7998" stroke="black" stroke-width="10" stroke-miterlimit="10"></path> <path d="M940.41 161.39C942.34 235.08 942.79 308.79 942.54 382.5C942.54 419.36 942.01 456.21 941.54 493.06C941.07 529.91 940.15 566.76 939.23 603.61C938.703 622.03 938.12 640.45 937.48 658.87C936.84 677.29 936.19 695.71 935.38 714.13C934.57 732.55 933.67 750.96 932.72 769.37L931.23 797L929.48 824.6C927.08 861.4 924.12 898.17 920.13 934.86C918.05 953.19 915.77 971.51 912.75 989.73C912.39 992.01 911.99 994.28 911.57 996.55L910.33 1003.36C909.41 1007.89 908.54 1012.42 907.45 1016.92L906.66 1020.29L905.76 1023.64L904.87 1026.98C904.55 1028.09 904.18 1029.19 903.87 1030.3L902.87 1033.6L901.65 1036.84C900.826 1038.99 899.888 1041.1 898.84 1043.16C899.774 1041.06 900.592 1038.91 901.29 1036.72L902.29 1033.43L903.14 1030.09C903.42 1028.97 903.72 1027.87 903.97 1026.75L904.68 1023.37L905.39 1020L905.99 1016.61C906.85 1012.1 907.52 1007.55 908.23 1003.01L909.16 996.17C909.48 993.903 909.77 991.623 910.03 989.33C912.22 971.07 913.9 952.75 915.27 934.4C916.64 916.05 917.87 897.69 918.89 879.31C919.91 860.93 920.89 842.56 921.71 824.17L924 769C924.713 750.6 925.38 732.2 926 713.8C927.26 677 928.366 640.19 929.32 603.37C930.43 566.55 931.32 529.73 932.18 492.91L934.83 382.43C936.48 308.74 938.21 235.07 940.41 161.39V161.39Z" fill="black"></path> <path d="M926.94 137.19V166.14M906.29 121.07V166.14V121.07ZM916.12 128.03V166.14V128.03Z" stroke="black" stroke-width="5" stroke-miterlimit="10"></path> <path d="M938.85 112.32C939.617 115.279 940.188 118.286 940.56 121.32C940.98 124.32 941.25 127.32 941.44 130.32C941.63 133.32 941.71 136.32 941.66 139.37C941.648 142.414 941.438 145.453 941.03 148.47C940.263 145.511 939.692 142.504 939.32 139.47C938.9 136.47 938.63 133.47 938.44 130.47C938.25 127.47 938.17 124.47 938.23 121.47C938.236 118.41 938.443 115.353 938.85 112.32V112.32ZM930.32 114.84C931.069 116.956 931.644 119.13 932.04 121.34C932.44 123.52 932.72 125.71 932.9 127.91C933.092 130.114 933.168 132.327 933.13 134.54C933.117 136.784 932.906 139.023 932.5 141.23C931.741 139.116 931.166 136.942 930.78 134.73C930.38 132.55 930.1 130.36 929.92 128.16C929.74 125.96 929.66 123.75 929.69 121.54C929.712 119.293 929.923 117.052 930.32 114.84V114.84ZM923 112.32C923.758 114.433 924.333 116.608 924.72 118.82C925.12 121 925.41 123.19 925.59 125.39C925.77 127.59 925.85 129.79 925.82 132.01C925.797 134.254 925.586 136.491 925.19 138.7C924.432 136.59 923.856 134.418 923.47 132.21C923.07 130.03 922.78 127.83 922.6 125.64C922.42 123.45 922.34 121.23 922.38 119.01C922.394 116.766 922.601 114.528 923 112.32V112.32ZM915 109.93C915.759 112.043 916.335 114.218 916.72 116.43C917.12 118.61 917.4 120.8 917.59 123C917.78 125.2 917.85 127.4 917.82 129.62C917.797 131.864 917.586 134.101 917.19 136.31C916.427 134.197 915.848 132.022 915.46 129.81C915.06 127.63 914.78 125.44 914.6 123.24C914.42 121.04 914.34 118.84 914.38 116.62C914.394 114.376 914.601 112.138 915 109.93V109.93ZM957.54 213.5C963.79 203.93 970.43 194.66 977.21 185.5C983.99 176.34 990.91 167.3 997.96 158.36C1005.01 149.42 1012.21 140.59 1019.59 131.91C1026.97 123.23 1034.43 114.61 1042.31 106.32C1036.06 115.9 1029.43 125.17 1022.65 134.32C1015.87 143.47 1008.95 152.52 1001.88 161.45C994.81 170.38 987.63 179.22 980.25 187.9C972.87 196.58 965.41 205.21 957.54 213.5ZM963.85 232.69C971.08 222.21 978.7 212.05 986.45 202C990.29 196.94 994.26 192 998.18 187L1010.12 172.19L1022.27 157.54C1026.4 152.72 1030.45 147.83 1034.64 143.07C1042.96 133.48 1051.42 124.01 1060.26 114.84C1053.03 125.32 1045.41 135.49 1037.66 145.54C1033.83 150.6 1029.85 155.54 1025.94 160.54L1013.94 175.35L1001.83 190C997.71 194.83 993.65 199.7 989.46 204.47C981.14 214.05 972.69 223.52 963.85 232.69V232.69ZM963.85 266.29C973.39 253.01 983.3 240.05 993.35 227.19C998.35 220.74 1003.47 214.4 1008.53 208L1023.93 189L1039.53 170.15C1044.81 163.93 1050.01 157.65 1055.36 151.49C1065.97 139.1 1076.73 126.82 1087.87 114.86C1078.34 128.14 1068.43 141.11 1058.38 153.96C1053.38 160.42 1048.25 166.76 1043.19 173.15L1027.79 192.15L1012.18 211C1006.91 217.22 1001.71 223.5 996.36 229.67C985.74 242 975 254.32 963.85 266.29V266.29ZM963.85 292.67C975.29 277.67 987.11 263.05 999.06 248.51C1005 241.21 1011.06 234.02 1017.06 226.79L1035.29 205.25L1053.74 183.88C1059.96 176.82 1066.11 169.7 1072.4 162.7C1084.9 148.64 1097.55 134.7 1110.57 121.07C1099.13 136.07 1087.31 150.7 1075.36 165.24C1069.42 172.54 1063.36 179.72 1057.36 186.96L1039.11 208.49L1020.66 229.86C1014.46 236.92 1008.3 244 1002 251C989.51 265.09 976.87 279 963.85 292.67V292.67ZM959.55 331.51C972 314.79 984.82 298.38 997.78 282.08C1004.22 273.9 1010.78 265.84 1017.32 257.72L1037.08 233.53L1057.08 209.53C1063.81 201.59 1070.47 193.53 1077.27 185.7C1090.79 169.87 1104.46 154.15 1118.5 138.7C1106.06 155.43 1093.24 171.84 1080.28 188.14C1073.84 196.32 1067.28 204.38 1060.74 212.5L1040.97 236.68L1020.97 260.68C1014.25 268.63 1007.59 276.63 1000.79 284.51C987.25 300.38 973.59 316.1 959.55 331.51V331.51ZM959.55 374.82C972.76 357.03 986.35 339.55 1000.07 322.18C1006.89 313.47 1013.86 304.87 1020.76 296.18L1041.66 270.39L1062.77 244.77C1069.88 236.29 1076.92 227.77 1084.11 219.32C1098.4 202.42 1112.83 185.63 1127.64 169.15C1114.44 186.94 1100.85 204.43 1087.13 221.79C1080.3 230.51 1073.33 239.11 1066.44 247.79L1045.53 273.58L1024.41 299.2C1017.3 307.68 1010.26 316.2 1003.08 324.64C988.79 341.55 974.36 358.34 959.55 374.82V374.82ZM958.27 415.92C971.51 399.61 985.11 383.62 998.84 367.76C1005.68 359.76 1012.64 351.95 1019.54 344.05L1040.45 320.52L1061.56 297.18C1068.67 289.46 1075.7 281.68 1082.88 274.03C1097.16 258.65 1111.57 243.39 1126.36 228.47C1113.12 244.78 1099.52 260.77 1085.79 276.63C1078.96 284.63 1071.98 292.44 1065.08 300.34L1044.17 323.86L1023.06 347.2C1015.95 354.92 1008.91 362.7 1001.74 370.35C987.46 385.73 973.05 401 958.27 415.92V415.92ZM958.27 459.45C969.74 446.07 981.58 433.04 993.53 420.13C999.53 413.64 1005.53 407.28 1011.53 400.85L1029.76 381.77L1048.19 362.88C1054.4 356.65 1060.54 350.35 1066.82 344.18C1079.3 331.78 1091.91 319.5 1104.88 307.57C1093.41 320.95 1081.58 333.98 1069.63 346.89C1063.63 353.38 1057.63 359.74 1051.63 366.17L1033.4 385.24L1015 404.13C1008.79 410.37 1002.64 416.66 996.37 422.83C983.84 435.23 971.23 447.51 958.27 459.45V459.45ZM958.27 497.15C967.51 485.67 977.11 474.53 986.84 463.51C991.67 457.96 996.63 452.51 1001.53 447.06L1016.43 430.81L1031.53 414.74C1036.63 409.45 1041.66 404.09 1046.83 398.87C1057.1 388.34 1067.49 377.94 1078.26 367.87C1069.02 379.35 1059.42 390.49 1049.69 401.51C1044.86 407.06 1039.89 412.51 1035 417.95L1020.09 434.2L1005 450.28C999.9 455.57 994.87 460.92 989.7 466.15C979.42 476.67 969 487.08 958.27 497.15V497.15ZM958.27 545.19C966.44 535.54 974.97 526.25 983.61 517.08C987.9 512.46 992.32 507.96 996.68 503.41L1009.94 490L1023.39 476.72C1027.94 472.36 1032.39 467.94 1037.05 463.64C1046.21 454.99 1055.5 446.46 1065.15 438.29C1056.98 447.93 1048.45 457.23 1039.81 466.4C1035.52 471.02 1031.1 475.51 1026.74 480.07L1013.47 493.53L1000 506.75C995.45 511.11 991 515.53 986.34 519.82C977.2 528.48 967.91 537 958.27 545.19V545.19ZM956.86 577.59C964.12 568.87 971.72 560.5 979.45 552.25C987.18 544 995 535.88 1003 527.88C1011 519.88 1019.08 512.01 1027.34 504.29C1035.6 496.57 1044 489 1052.69 481.7C1045.44 490.43 1037.84 498.8 1030.11 507.05C1022.38 515.3 1014.53 523.42 1006.54 531.41C998.55 539.4 990.46 547.28 982.2 555C973.94 562.72 965.58 570.33 956.86 577.59ZM958.27 606.46C964.76 598.46 971.59 590.9 978.55 583.41C985.51 575.92 992.61 568.58 999.82 561.34C1007.03 554.1 1014.37 547 1021.82 540.06C1029.27 533.12 1036.9 526.25 1044.82 519.76C1038.34 527.76 1031.5 535.33 1024.54 542.76C1017.58 550.19 1010.49 557.6 1003.27 564.83C996.05 572.06 988.71 579.17 981.21 586.11C973.71 593.05 966.22 600 958.27 606.46V606.46ZM951 646.38C956.56 639.38 962.46 632.68 968.49 626.13C974.52 619.58 980.68 613.13 986.97 606.85C993.26 600.57 999.65 594.37 1006.22 588.36C1012.79 582.35 1019.44 576.42 1026.47 570.86C1020.92 577.86 1015.01 584.57 1008.98 591.12C1002.95 597.67 996.79 604.12 990.5 610.39C984.21 616.66 977.81 622.86 971.24 628.87C964.67 634.88 958 640.82 951 646.38ZM948.37 680.48C953.93 673.48 959.83 666.78 965.86 660.23C971.89 653.68 978.05 647.23 984.34 640.96C990.63 634.69 997.02 628.48 1003.59 622.46C1010.16 616.44 1016.81 610.52 1023.84 604.96C1018.29 611.96 1012.38 618.67 1006.35 625.22C1000.32 631.77 994.16 638.22 987.87 644.49C981.58 650.76 975.18 657 968.61 663C962.04 669 955.39 674.92 948.37 680.48ZM943.77 711.28C949.33 704.28 955.24 697.58 961.26 691.03C967.28 684.48 973.46 678.03 979.74 671.76C986.02 665.49 992.42 659.28 998.99 653.26C1005.56 647.24 1012.22 641.32 1019.24 635.76C1013.69 642.76 1007.78 649.47 1001.75 656.02C995.72 662.57 989.56 669.02 983.27 675.29C976.98 681.56 970.58 687.77 964 693.78C957.42 699.79 950.79 705.72 943.77 711.28Z" fill="black"></path> <path d="M958.27 767.31C957.12 753.48 956.46 739.66 955.97 725.83C955.69 718.91 955.58 711.99 955.38 705.08L955.07 684.33L955 663.58C955.08 656.66 955.07 649.74 955.24 642.83C955.49 628.99 955.92 615.15 956.84 601.31C958 615.13 958.66 628.96 959.15 642.79C959.44 649.71 959.54 656.62 959.74 663.54L960.04 684.29V705.04C959.97 711.96 959.97 718.87 959.8 725.79C959.61 739.63 959.19 753.47 958.27 767.31ZM951.69 786.55C950.54 772.73 949.88 758.9 949.4 745.07C949.11 738.16 949 731.24 948.81 724.32L948.49 703.58V682.82C948.57 675.91 948.55 668.99 948.73 662.07C948.98 648.23 949.4 634.4 950.33 620.55C951.49 634.38 952.15 648.21 952.63 662.04C952.92 668.95 953.02 675.87 953.22 682.78L953.53 703.53V724.28C953.45 731.2 953.46 738.12 953.28 745.04C953 758.87 952.61 772.71 951.69 786.55V786.55ZM980.78 779.57C979.87 769.52 979.45 759.48 979.2 749.44C978.95 739.4 978.9 729.36 979.01 719.33C979.12 709.3 979.4 699.26 979.92 689.23C980.44 679.2 981.07 669.17 982.23 659.15C983.15 669.15 983.57 679.24 983.82 689.27C984.07 699.3 984.12 709.35 984.01 719.39C983.9 729.43 983.61 739.46 983.09 749.49C982.57 759.52 981.94 769.54 980.78 779.57ZM993.11 779.57C992.11 771.57 991.65 763.68 991.35 755.74C991.05 747.8 990.92 739.86 990.97 731.92C991.02 723.98 991.24 716.04 991.7 708.11C992.16 700.18 992.7 692.24 993.83 684.31C994.83 692.31 995.3 700.2 995.6 708.14C995.9 716.08 996 724 996 732C996 740 995.72 747.87 995.26 755.81C994.8 763.75 994.2 771.64 993.11 779.57ZM1004.78 778.82C1004.12 772.535 1003.79 766.22 1003.78 759.9C1003.74 753.613 1003.89 747.333 1004.23 741.06C1004.57 734.787 1005.08 728.523 1005.76 722.27C1006.44 715.983 1007.44 709.735 1008.76 703.55C1009.41 709.839 1009.75 716.157 1009.76 722.48C1009.76 728.767 1009.6 735.047 1009.29 741.32C1008.98 747.593 1008.47 753.857 1007.76 760.11C1007.08 766.393 1006.09 772.638 1004.78 778.82ZM1026.7 771.36C1026.05 766.788 1025.72 762.178 1025.7 757.56C1025.7 752.98 1025.85 748.417 1026.16 743.87C1026.49 739.31 1026.99 734.78 1027.69 730.25C1028.37 725.681 1029.37 721.167 1030.69 716.74C1031.35 721.311 1031.68 725.922 1031.69 730.54C1031.69 735.113 1031.54 739.677 1031.23 744.23C1030.89 748.78 1030.39 753.32 1029.69 757.84C1029.01 762.411 1028.01 766.929 1026.7 771.36ZM1048.71 769.57C1048.06 766.407 1047.73 763.188 1047.71 759.96C1047.68 756.797 1047.84 753.635 1048.17 750.49C1048.5 747.346 1049.01 744.224 1049.7 741.14C1050.39 737.98 1051.39 734.897 1052.7 731.94C1053.35 735.102 1053.69 738.321 1053.7 741.55C1053.74 747.879 1053.07 754.192 1051.7 760.37C1051.01 763.529 1050.01 766.611 1048.71 769.57V769.57ZM1091.73 773.33C1090.29 770.449 1089.14 767.434 1088.29 764.33C1087.45 761.287 1086.78 758.198 1086.29 755.08C1085.78 751.959 1085.44 748.81 1085.29 745.65C1085.11 742.427 1085.26 739.194 1085.73 736C1087.17 738.878 1088.32 741.893 1089.17 745C1090.02 748.041 1090.69 751.13 1091.17 754.25C1091.68 757.372 1092.02 760.52 1092.17 763.68C1092.34 766.903 1092.19 770.136 1091.73 773.33V773.33Z" fill="black"></path> <path d="M1169.24 843.89L934.49 799.04" stroke="black" stroke-width="10" stroke-miterlimit="10"></path> <path d="M943.77 835.92C943.68 851 943.1 866 942.35 881C942.02 888.5 941.51 896 941.08 903.48L939.54 925.94L937.72 948.39C937.02 955.86 936.42 963.34 935.63 970.81C934.14 985.75 932.48 1000.67 930.32 1015.56C930.4 1000.56 930.98 985.56 931.74 970.56C932.06 963.06 932.58 955.56 933 948.08L934.55 925.62L936.37 903.18C937.07 895.7 937.68 888.18 938.47 880.76C940 865.74 941.62 850.81 943.77 835.92ZM957 826.14C956.91 841.14 956.32 856.19 955.57 871.19C955.24 878.69 954.73 886.19 954.3 893.67L952.76 916.13L951 938.57C950.3 946.05 949.69 953.57 948.9 960.99C947.41 975.93 945.75 990.86 943.59 1005.75C943.67 990.75 944.25 975.75 945.01 960.75C945.34 953.25 945.85 945.75 946.28 938.27L947.83 915.81L949.65 893.37C950.34 885.89 950.95 878.37 951.74 870.95C953.2 856 954.86 841 957 826.14ZM970.32 813C970.23 828 969.65 843 968.89 858C968.56 865.5 968.05 873 967.63 880.48L966.08 903L964.27 925.45C963.57 932.92 962.97 940.45 962.17 947.87C960.69 962.81 959.02 977.73 956.86 992.62C956.95 977.62 957.53 962.57 958.28 947.57C958.61 940.07 959.13 932.57 959.55 925.09L961.1 902.63L962.92 880.19C963.62 872.71 964.23 865.19 965.02 857.77C966.51 842.79 968.17 827.86 970.32 813ZM989 805.08C988.91 820.08 988.33 835.08 987.57 850.08C987.24 857.58 986.73 865.08 986.31 872.56L984.76 895.02L982.95 917.47C982.25 924.94 981.64 932.47 980.85 939.89C979.37 954.83 977.7 969.75 975.54 984.64C975.63 969.64 976.21 954.59 976.96 939.64C977.29 932.13 977.81 924.64 978.23 917.15L979.78 894.69L981.6 872.25C982.29 864.78 982.91 857.25 983.7 849.83C985.14 834.9 986.8 820 989 805.08V805.08ZM1006.56 805.08C1006.47 820.08 1005.89 835.08 1005.14 850.08C1004.81 857.58 1004.3 865.08 1003.87 872.56L1002.33 895.02L1000.51 917.47C999.81 924.94 999.21 932.47 998.42 939.89C996.93 954.83 995.27 969.75 993.11 984.64C993.19 969.64 993.77 954.59 994.53 939.64C994.86 932.13 995.37 924.64 995.79 917.15L997.34 894.69L999.16 872.25C999.86 864.78 1000.47 857.25 1001.26 849.83C1002.75 834.9 1004.41 820 1006.56 805.08Z" fill="black"></path> <path d="M916.53 962.86C924.53 955.34 932.82 948.22 941.23 941.23C949.64 934.24 958.16 927.41 966.78 920.7C975.4 913.99 984.13 907.43 993.01 901.05C1001.89 894.67 1010.83 888.37 1020.09 882.5C1012.09 890.02 1003.8 897.14 995.4 904.13C987 911.12 978.47 918 969.84 924.65C961.21 931.3 952.49 937.92 943.61 944.3C934.73 950.68 925.79 957 916.53 962.86ZM929 924.25C937 916.73 945.3 909.61 953.7 902.62C962.1 895.63 970.63 888.8 979.25 882.09C987.87 875.38 996.6 868.82 1005.48 862.44C1014.36 856.06 1023.3 849.76 1032.56 843.89C1024.56 851.41 1016.28 858.53 1007.87 865.52C999.46 872.51 990.94 879.34 982.31 886C973.68 892.66 965 899.31 956.08 905.69C947.16 912.07 938.26 918.37 929 924.25V924.25ZM926.17 894.89C932.58 888.89 939.29 883.3 946.09 877.89C952.89 872.48 959.81 867.13 966.83 861.96C973.85 856.79 980.97 851.76 988.22 846.96C995.47 842.16 1002.81 837.37 1010.45 833.05C1004.04 839.05 997.34 844.65 990.54 850.11C983.74 855.57 976.81 860.87 969.79 866.03C962.77 871.19 955.65 876.22 948.39 881.03C941.13 885.84 933.81 890.56 926.17 894.89ZM926.17 873.86C931.98 868.44 938.09 863.44 944.27 858.54C950.45 853.64 956.78 848.95 963.19 844.37C969.6 839.79 976.11 835.37 982.74 831.07C989.37 826.77 996.1 822.67 1003.12 818.94C997.31 824.37 991.2 829.37 985.02 834.27C978.84 839.17 972.51 843.86 966.1 848.44C959.69 853.02 953.17 857.44 946.55 861.73C939.93 866.02 933.19 870.13 926.17 873.86ZM929.84 853.6C934.321 849.538 939.014 845.716 943.9 842.15C948.74 838.583 953.683 835.167 958.73 831.9C963.776 828.633 968.913 825.517 974.14 822.55C979.388 819.547 984.792 816.827 990.33 814.4C985.853 818.467 981.159 822.289 976.27 825.85C971.43 829.43 966.49 832.85 961.44 836.1C956.39 839.35 951.27 842.48 946.03 845.44C940.781 848.444 935.377 851.167 929.84 853.6ZM905.93 1032.85C916.87 1022.52 928.12 1012.58 939.48 1002.76C945.13 997.82 950.9 993.01 956.61 988.14L973.92 973.74L991.39 959.55C997.28 954.89 1003.11 950.16 1009.05 945.55C1020.88 936.31 1032.82 927.2 1045.05 918.47C1034.11 928.8 1022.86 938.75 1011.5 948.57C1005.85 953.51 1000.08 958.31 994.37 963.18L977.06 977.58L959.58 991.77C953.69 996.43 947.86 1001.16 941.92 1005.77C930.12 1015 918.18 1024.12 905.93 1032.85V1032.85ZM912.66 997.62C923.59 987.29 934.85 977.34 946.21 967.53C951.86 962.58 957.63 957.78 963.34 952.91L980.64 938.51L998.12 924.31C1004.01 919.66 1009.83 914.92 1015.78 910.31C1027.61 901.06 1039.55 891.95 1051.78 883.22C1040.85 893.56 1029.6 903.51 1018.24 913.32C1012.59 918.27 1006.82 923.07 1001.11 927.94L983.8 942.34L966.32 956.53C960.43 961.19 954.6 965.91 948.66 970.53C936.85 979.78 924.91 988.89 912.66 997.62V997.62ZM773.66 965.28C777.664 963.838 781.473 961.903 785 959.52C785.89 958.96 786.77 958.4 787.64 957.8C788.51 957.2 789.4 956.66 790.24 956.02C791.08 955.38 791.96 954.81 792.82 954.2L795.35 952.3C796.22 951.7 797.05 951.05 797.88 950.39L800.42 948.48C802.08 947.15 803.78 945.86 805.49 944.56C807.2 943.26 808.89 941.94 810.64 940.65C812.39 939.36 814.13 938.05 816.04 936.87C814.92 938.79 813.66 940.6 812.37 942.39C811.08 944.18 809.6 945.8 808.15 947.46C806.7 949.12 805.07 950.6 803.47 952.12C801.87 953.64 800.14 955.02 798.33 956.32L795.63 958.25C794.68 958.84 793.74 959.43 792.79 960C791.84 960.57 790.79 961.09 789.84 961.6C789.34 961.85 788.84 962.12 788.34 962.34L786.79 963C784.715 963.861 782.566 964.53 780.37 965C778.17 965.511 775.894 965.605 773.66 965.28V965.28ZM801.63 975.67C804.203 974.409 806.651 972.905 808.94 971.18C811.21 969.54 813.44 967.9 815.66 966.18C816.24 965.78 816.79 965.34 817.34 964.9C817.89 964.46 818.46 964.04 819.04 963.63C820.16 962.75 821.31 961.91 822.48 961.08C823.65 960.25 824.84 959.4 826.08 958.6C827.322 957.745 828.622 956.976 829.97 956.3C829.354 957.683 828.638 959.02 827.83 960.3C827.02 961.57 826.1 962.75 825.17 963.93C824.24 965.11 823.17 966.15 822.17 967.22C821.17 968.29 819.95 969.22 818.74 970.14C816.325 972.011 813.654 973.526 810.81 974.64C809.363 975.2 807.862 975.606 806.33 975.85C805.555 975.96 804.772 976.01 803.99 976C803.191 976.016 802.394 975.905 801.63 975.67V975.67ZM827.64 992.67C830.484 992.27 833.283 991.601 836 990.67C838.67 989.83 841.3 988.97 844 988.03C844.67 987.83 845.33 987.58 846 987.34C846.67 987.1 847.34 986.88 848 986.67C849.34 986.19 850.7 985.75 852.08 985.33C853.46 984.91 854.84 984.48 856.27 984.1C857.719 983.679 859.196 983.362 860.69 983.15C859.664 984.272 858.562 985.322 857.39 986.29C856.22 987.24 854.98 988.07 853.73 988.9C852.48 989.73 851.13 990.38 849.8 991.06C848.47 991.74 847.05 992.29 845.62 992.76C842.739 993.773 839.729 994.369 836.68 994.53C835.131 994.613 833.579 994.526 832.05 994.27C831.279 994.133 830.52 993.936 829.78 993.68C829.018 993.458 828.295 993.117 827.64 992.67V992.67ZM99.5797 924C98.9543 922.138 98.0869 920.366 96.9997 918.73C96.4797 917.91 95.9997 917.1 95.3897 916.32C94.7797 915.54 94.2697 914.76 93.6797 914C91.3397 911 88.8297 908 86.2397 905.14L82.3097 900.82C80.9497 899.42 79.6597 897.94 78.3097 896.49C76.9597 895.04 75.6597 893.55 74.3097 892.05C72.9509 890.542 71.6693 888.967 70.4697 887.33C72.327 888.177 74.1364 889.125 75.8897 890.17C77.6397 891.17 79.2797 892.4 80.8897 893.58C82.4997 894.76 84.0497 896.13 85.5897 897.46C87.1297 898.79 88.5297 900.29 89.8997 901.81C92.6947 904.865 95.0813 908.27 96.9997 911.94C97.4756 912.869 97.8996 913.824 98.2697 914.8C98.4497 915.29 98.6597 915.8 98.7997 916.27L99.2397 917.79C99.3797 918.29 99.4497 918.79 99.5497 919.33C99.6602 919.847 99.7304 920.372 99.7597 920.9C99.878 921.936 99.8171 922.985 99.5797 924V924ZM111.33 899.94C110.749 898.728 110.031 897.587 109.19 896.54C108.8 896.03 108.41 895.54 107.99 895.03C107.57 894.52 107.17 894.03 106.75 893.56C105.08 891.63 103.35 889.76 101.61 887.85C101.19 887.36 100.72 886.91 100.29 886.43L98.9997 885C98.0997 884 97.2497 883 96.3797 882C95.5097 881 94.6797 879.94 93.8397 878.86C92.9657 877.764 92.1703 876.608 91.4597 875.4C92.8095 875.83 94.1235 876.365 95.3897 877C96.6261 877.63 97.8248 878.331 98.9797 879.1C100.128 879.876 101.233 880.714 102.29 881.61C103.341 882.522 104.342 883.49 105.29 884.51C107.226 886.59 108.837 888.95 110.07 891.51C110.379 892.159 110.646 892.827 110.87 893.51C111.116 894.193 111.306 894.896 111.44 895.61C111.588 896.33 111.661 897.064 111.66 897.8C111.692 898.528 111.58 899.255 111.33 899.94V899.94ZM130.05 877.57C129.964 876.293 129.739 875.028 129.38 873.8C129.2 873.2 129.06 872.62 128.86 872.04C128.76 871.753 128.67 871.463 128.59 871.17C128.49 870.89 128.37 870.6 128.28 870.32C127.48 868.04 126.62 865.8 125.71 863.53C125.51 862.96 125.25 862.4 125.02 861.83L124.36 860.1C123.87 858.96 123.45 857.79 123.02 856.6C122.59 855.41 122.17 854.2 121.79 852.96C121.36 851.69 121.026 850.39 120.79 849.07C121.89 849.857 122.924 850.733 123.88 851.69C124.801 852.639 125.665 853.64 126.47 854.69C127.246 855.766 127.967 856.88 128.63 858.03C129.266 859.204 129.837 860.413 130.34 861.65C131.37 864.18 131.975 866.863 132.13 869.59C132.196 870.981 132.089 872.375 131.81 873.74C131.657 874.426 131.439 875.095 131.16 875.74C130.912 876.416 130.535 877.038 130.05 877.57V877.57ZM852 1010.1C853.054 1009.84 854.079 1009.47 855.06 1009C856.01 1008.59 856.93 1008.15 857.83 1007.7C859.65 1006.82 861.45 1005.92 863.3 1005.06C863.77 1004.87 864.23 1004.62 864.69 1004.41L866.11 1003.79C867.05 1003.35 868.03 1002.98 869.02 1002.6C870.01 1002.22 871.02 1001.87 872.09 1001.55C873.179 1001.2 874.297 1000.95 875.43 1000.79C874.854 1001.79 874.184 1002.74 873.43 1003.61C872.686 1004.45 871.888 1005.24 871.04 1005.97C870.183 1006.68 869.289 1007.35 868.36 1007.97C867.409 1008.56 866.427 1009.1 865.42 1009.59C863.35 1010.57 861.134 1011.21 858.86 1011.48C857.686 1011.62 856.499 1011.6 855.33 1011.43C854.729 1011.35 854.139 1011.2 853.57 1010.99C852.992 1010.8 852.458 1010.5 852 1010.1V1010.1ZM869.2 1032.37C870.018 1032.05 870.794 1031.62 871.51 1031.11C872.2 1030.66 872.86 1030.19 873.51 1029.75C874.83 1028.86 876.14 1027.97 877.51 1027.17C878.925 1026.31 880.395 1025.55 881.91 1024.89C883.568 1024.14 885.321 1023.62 887.12 1023.34C886.472 1025.1 885.483 1026.71 884.21 1028.08C882.993 1029.41 881.588 1030.55 880.04 1031.47C878.443 1032.43 876.69 1033.11 874.86 1033.47C873.895 1033.64 872.912 1033.67 871.94 1033.56C871.434 1033.5 870.938 1033.38 870.46 1033.21C869.978 1033.04 869.546 1032.75 869.2 1032.37V1032.37ZM891.76 108.2C894.89 106.35 898.01 104.6 901.11 102.84C904.21 101.08 907.26 99.2799 910.25 97.4099C913.234 95.5596 916.121 93.5569 918.9 91.4099C921.706 89.2514 924.203 86.7177 926.32 83.8799C925.175 87.4072 923.164 90.5911 920.47 93.1399C917.874 95.7446 914.977 98.0307 911.84 99.9499C908.752 101.884 905.507 103.557 902.14 104.95C898.8 106.386 895.322 107.475 891.76 108.2V108.2ZM913.86 107C916.817 104.723 919.888 102.597 923.06 100.63C926.18 98.6299 929.38 96.7399 932.6 94.9099C935.82 93.0799 939.08 91.3299 942.39 89.6599C944.03 88.7999 945.7 87.9899 947.39 87.1599L949.88 85.9299C950.3 85.7299 950.71 85.5099 951.12 85.2899C951.536 85.0968 951.918 84.8367 952.25 84.5199C951.75 85.3304 951.106 86.0422 950.35 86.6199C949.65 87.2499 948.91 87.8199 948.17 88.4099C946.68 89.5499 945.17 90.6399 943.62 91.6699C940.53 93.7699 937.35 95.6699 934.11 97.5199C930.87 99.3699 927.59 101.08 924.22 102.67C920.851 104.308 917.392 105.754 913.86 107V107ZM941.82 107.65C945.06 106.06 948.33 104.65 951.62 103.34C954.91 102.03 958.18 100.72 961.46 99.4299C964.74 98.1399 967.99 96.8399 971.2 95.4299C972.791 94.7385 974.346 93.9675 975.86 93.1199C976.611 92.722 977.327 92.2603 978 91.7399C978.701 91.2247 979.256 90.5353 979.61 89.7399C979.55 90.6792 979.2 91.577 978.61 92.3099C978.052 93.0415 977.419 93.712 976.72 94.3099C975.337 95.507 973.848 96.5748 972.27 97.4999C969.166 99.3307 965.914 100.899 962.55 102.19C959.216 103.493 955.81 104.605 952.35 105.52C948.899 106.497 945.379 107.209 941.82 107.65V107.65ZM967.5 103.45C970.25 102.45 973.01 101.62 975.76 100.83C978.51 100.04 981.27 99.3299 984.01 98.5999C986.75 97.8699 989.47 97.1399 992.12 96.2599C993.448 95.851 994.745 95.3464 996 94.7499C997.297 94.245 998.397 93.3371 999.14 92.1599C999.092 92.9258 998.824 93.6617 998.37 94.2799C997.926 94.9087 997.405 95.4798 996.82 95.9799C995.645 96.9435 994.363 97.7689 993 98.4399C990.36 99.7442 987.592 100.77 984.74 101.5C981.929 102.246 979.068 102.791 976.18 103.13C973.302 103.499 970.397 103.607 967.5 103.45V103.45Z" fill="black"></path> <path d="M192.7 41.8098V98.2398M75.9797 70.8798V93.0898V70.8798ZM62.4497 70.8798V93.0898V70.8798ZM88.5297 70.8798V93.0898V70.8798ZM100.25 72.7498V94.9598V72.7498ZM110.97 70.8798V93.0898V70.8798ZM124.37 70.8798V93.0898V70.8798ZM136.09 70.8798V93.0898V70.8798ZM147.81 70.8798V93.0898V70.8798ZM159.54 72.7498V94.9598V72.7498ZM172.26 70.8798V98.2398V70.8798ZM181.98 61.2998V98.2398V61.2998Z" stroke="black" stroke-width="5" stroke-miterlimit="10"></path> <path d="M22.7898 86.7999L5.08984 920.58L901.8 1054.3L1169.24 843.89L1133.85 96.6299C1114.17 94.1799 1082.85 90.3899 1044.38 86.2499C882 68.7699 719.09 56.3699 556.46 41.5899C491.3 35.6699 426.2 29.1299 361.06 22.9199C328.04 19.7733 295.02 16.6566 262 13.5699C229.8 10.6399 197.76 6.72992 165.41 5.41992L180.07 24.8499C185.74 32.3799 191.71 40.8499 190.84 50.2499C190.08 58.4799 183.91 65.4999 176.48 69.1199C169.05 72.7399 160.54 73.4499 152.29 73.2099C129.29 72.5399 107.52 66.6899 84.4099 69.9499C63.2495 72.9845 42.55 78.6448 22.7898 86.7999V86.7999Z" stroke="black" stroke-width="10" stroke-miterlimit="10"></path> <path d="M665.13 243C661.618 241.866 657.974 241.194 654.29 241C658.977 240.353 663.711 240.115 668.44 240.29C674.738 240.53 680.993 241.439 687.1 243C681.556 239.483 675.335 237.169 668.84 236.21C655.637 234.183 642.138 236.75 630.6 243.48C624.916 246.751 619.983 251.18 616.12 256.48C621.222 252.775 626.703 249.62 632.47 247.07C632.87 246.89 633.28 246.74 633.68 246.57C633.19 246.93 632.68 247.29 632.22 247.68C628.339 250.979 625.278 255.136 623.281 259.823C621.283 264.509 620.403 269.595 620.71 274.68C621.45 286.68 628.89 295.95 639.71 300.52L639.33 305.01L636.24 340.11C634.13 363.5 631.67 386.85 629.11 410.17C626.55 433.49 623.51 456.84 620 480C616.49 503.16 612.55 526.29 607.65 549.16C605.2 560.6 602.53 571.98 599.52 583.26C596.51 594.54 593.19 605.72 589.38 616.71C585.656 627.675 581.233 638.39 576.14 648.79C573.601 653.936 570.791 658.943 567.72 663.79C566.93 664.97 566.16 666.17 565.36 667.34L562.87 670.77L560.25 674.08C559.32 675.17 558.41 676.29 557.45 677.37C549.963 686.092 541.644 694.063 532.61 701.17C523.663 708.249 513.813 714.104 503.32 718.58C492.872 723.007 481.76 725.664 470.44 726.44C458.974 727.434 447.441 727.357 435.99 726.21C424.63 725.078 413.47 722.448 402.8 718.39C392.199 714.315 382.315 708.576 373.52 701.39C364.732 694.133 357.045 685.637 350.7 676.17C344.315 666.622 338.952 656.43 334.7 645.76C326.01 624.36 320.8 601.52 317.32 578.49C314.018 555.342 311.981 532.03 311.22 508.66C310.3 485.25 310.22 461.77 310.22 438.27C310.22 414.77 310.34 391.22 309.22 367.59C308.93 361.67 308.45 355.76 308.07 349.95L307.57 341.19L307.19 332.42C306.76 320.72 306.58 308.99 306.52 297.25C306.45 283.34 306.52 269.4 306.52 255.45C321.52 252.23 331.52 236.87 329.02 221.67C327.664 212.918 322.912 205.053 315.794 199.783C308.676 194.513 299.767 192.262 291 193.52C287.906 193.941 284.88 194.765 282 195.97C283.248 194.825 284.525 193.711 285.83 192.63C290.516 188.819 295.514 185.407 300.77 182.43C294.615 183.604 288.743 185.946 283.47 189.33C272.752 196.157 264.459 206.189 259.77 218C257.418 223.811 256.212 230.021 256.22 236.29C258.167 230.574 260.589 225.032 263.46 219.72C263.82 219.06 264.21 218.41 264.59 217.72C264.358 219.089 264.214 220.472 264.16 221.86C263.67 236 271.54 249.86 284.6 255.63L284.84 262.99C285.3 275.17 285.69 287.36 286.01 299.56C286.33 311.76 286.603 323.96 286.83 336.16C287.01 348.36 287.19 360.57 287.21 372.78C287.55 421.61 287.14 470.49 288.36 519.41C288.7 531.64 289.06 543.87 289.58 556.1L289.95 565.27C290.1 568.34 290.27 571.48 290.54 574.58C291.05 580.79 291.78 586.99 292.75 593.14C296.538 617.898 304.44 641.849 316.13 664C327.95 686.06 343.97 706 364.26 721.27C384.55 736.54 409.47 744.97 434.5 747.21C459.632 749.418 484.938 745.878 508.5 736.86C514.364 734.624 520.1 732.064 525.68 729.19C531.258 726.257 536.654 722.991 541.84 719.41C546.98 715.768 551.89 711.81 556.54 707.56C561.152 703.305 565.494 698.766 569.54 693.97C573.61 689.193 577.399 684.185 580.89 678.97C584.39 673.8 587.68 668.5 590.67 663.05C596.623 652.18 601.874 640.941 606.39 629.4C611 618 615 606.34 618.69 594.66C622.38 582.98 626.03 571.3 629.29 559.41C635.677 535.703 640.778 511.668 644.57 487.41C648.45 463.2 651.19 438.82 653.57 414.5C657.41 376.33 661.57 338.07 663.57 299.62H663.68C676.77 296.11 688.61 284.72 688.56 270.46C688.53 256.73 677.36 246.89 665.13 243V243ZM286.75 198.4C303.48 193.54 320.33 202.87 324.6 219.88C328.05 233.64 319.94 247.88 306.43 251.44V243.69C308.727 243.013 310.86 241.871 312.697 240.334C314.534 238.798 316.035 236.9 317.108 234.76C318.181 232.619 318.802 230.28 318.933 227.889C319.064 225.498 318.702 223.105 317.87 220.86C314.12 210.57 303.17 205.7 292.78 206.86C283.52 207.86 275.01 213.03 274.12 222.95C273.855 227.051 274.643 231.151 276.409 234.862C278.175 238.572 280.86 241.77 284.21 244.15V244.78L284.43 251.31C263.73 240 261.19 205.82 286.75 198.4ZM286.38 223.26C283.369 224.678 281.002 227.177 279.75 230.26C280.979 229.538 282.259 228.906 283.58 228.37V228.75L283.68 231.03L283.86 235.6L283.99 238.89C275.61 230.64 275.42 215.64 288.59 211.62C296.86 209.1 306.37 210.8 311.78 217.92C317.52 225.48 315.15 236.32 306.38 239.62C306.38 235.99 306.33 232.37 306.27 228.74C308.18 229.4 310.1 230.2 312.14 231.12C310.627 228.246 308.323 225.865 305.5 224.26C302.645 222.577 299.436 221.585 296.13 221.36C292.769 221.117 289.404 221.773 286.38 223.26V223.26ZM647.06 413.78C644.48 438.06 641.51 462.22 637.48 486.22C633.575 510.199 628.38 533.95 621.92 557.37C618.65 569.02 614.92 580.66 611.19 592.23C607.46 603.8 603.4 615.23 598.88 626.44C589.88 648.8 578.58 670.36 563.04 688.44C559.181 692.945 555.046 697.207 550.66 701.2C546.264 705.144 541.632 708.818 536.79 712.2C531.908 715.537 526.832 718.583 521.59 721.32C505.682 729.431 488.528 734.823 470.84 737.27C459.079 738.889 447.171 739.15 435.35 738.05C411.8 735.85 388.75 727.71 369.88 713.66C365.154 710.132 360.674 706.286 356.47 702.15C352.222 698.009 348.199 693.643 344.42 689.07C336.867 679.875 330.267 669.937 324.72 659.41C313.641 638.203 306.182 615.294 302.65 591.63C301.743 585.723 301.056 579.783 300.59 573.81C300.34 570.81 300.2 567.87 300.05 564.81L299.65 555.67C299.08 543.5 298.65 531.32 298.29 519.13C297.483 494.763 296.843 470.37 296.37 445.95C295.83 421.55 295.5 397.12 295.12 372.7L294.05 299.38C293.956 293.26 293.823 287.147 293.65 281.04C293.49 274.93 293.36 268.81 293.14 262.7L292.36 244.37L291.9 235.2L291.68 230.62L291.56 228.33L291.5 227.19V226.61C291.51 226.581 291.51 226.549 291.5 226.52C292.942 226.425 294.388 226.425 295.83 226.52C297.606 226.646 299.37 226.9 301.11 227.28C301.31 250.55 300.79 273.87 300.74 297.23C300.74 309.01 300.81 320.8 301.16 332.59L301.48 341.44L301.91 350.29C302.26 356.22 302.69 362.03 302.91 367.85C303.91 391.21 303.53 414.71 303.43 438.22C303.33 461.73 303.26 485.31 304.09 508.89C304.771 532.54 306.744 556.135 310 579.57C313.46 603 318.65 626.38 327.57 648.64C332.004 659.835 337.602 670.534 344.27 680.56C350.997 690.688 359.163 699.783 368.51 707.56C377.932 715.321 388.531 721.529 399.91 725.95C411.243 730.281 423.099 733.096 435.17 734.32C447.135 735.531 459.186 735.631 471.17 734.62C483.357 733.783 495.322 730.935 506.58 726.19C517.752 721.443 528.244 715.232 537.78 707.72C547.233 700.289 555.941 691.957 563.78 682.84C564.78 681.72 565.78 680.56 566.7 679.42L569.56 675.82L572.25 672.11C573.12 670.86 573.94 669.59 574.78 668.32C578.026 663.236 580.997 657.982 583.68 652.58C588.942 641.882 593.518 630.859 597.38 619.58C601.3 608.35 604.7 596.98 607.75 585.58C610.8 574.18 613.53 562.53 616 551C621 527.9 625 504.64 628.54 481.32C632.08 458 634.83 434.59 637.35 411.17C639.87 387.75 641.79 364.27 643.49 340.79L644.7 323.18L645.7 305.56C646.35 293.81 646.97 282.06 647.47 270.31C647.488 269.929 647.416 269.548 647.26 269.2C649.368 268.68 651.529 268.409 653.7 268.39C655.622 268.382 657.539 268.576 659.42 268.97C658.23 317.33 652.37 365.51 647.06 413.78V413.78ZM663.62 266C660.656 264.132 657.212 263.169 653.71 263.23C650.22 263.223 646.799 264.201 643.84 266.05C642.325 266.997 641.048 268.28 640.11 269.8C639.173 271.287 638.837 273.074 639.17 274.8C639.876 273.402 640.934 272.213 642.24 271.35L640.92 286.92C629.08 276.68 635.59 257.69 651.11 254.35C658.35 252.79 667.85 255.6 671.68 262.21C676.68 270.79 672.95 282.16 664.2 286.16C664.386 281.08 664.526 275.993 664.62 270.9C666.25 271.823 667.716 273.009 668.96 274.41C668.779 272.691 668.203 271.038 667.276 269.579C666.35 268.12 665.098 266.895 663.62 266V266ZM663.8 295.53C663.89 293.81 663.95 292.1 664.03 290.38C674.43 286.79 679.62 275.85 677.1 265.14C674.75 255.14 663.94 249.57 654.1 250.02C649.075 250.375 644.262 252.178 640.24 255.211C636.219 258.244 633.162 262.377 631.44 267.11C628.31 276.31 632.86 286.11 640.44 291.47L640.01 296.59C618.92 286.83 619.68 254.39 642.38 246.38C654.75 242.02 671.38 246.69 679.64 256.89C691.82 271.8 679.73 290.51 663.8 295.48V295.53Z" fill="black"></path> <path d="M659.47 268.94C658.23 317.33 652.37 365.51 647.06 413.78C644.48 438.06 641.51 462.22 637.48 486.22C633.575 510.199 628.381 533.95 621.92 557.37C618.65 569.02 614.92 580.66 611.19 592.23C607.46 603.8 603.4 615.23 598.88 626.44C589.88 648.8 578.58 670.36 563.04 688.44C559.181 692.945 555.046 697.207 550.66 701.2C546.264 705.145 541.632 708.818 536.79 712.2C531.908 715.537 526.832 718.583 521.59 721.32C505.682 729.431 488.528 734.823 470.84 737.27C459.079 738.889 447.171 739.151 435.35 738.05C411.8 735.85 388.75 727.71 369.88 713.66C365.154 710.132 360.674 706.286 356.47 702.15C352.222 698.009 348.2 693.643 344.42 689.07C336.868 679.875 330.267 669.937 324.72 659.41C313.641 638.203 306.182 615.294 302.65 591.63C301.743 585.723 301.057 579.783 300.59 573.81C300.34 570.81 300.2 567.87 300.05 564.81L299.65 555.67C299.08 543.5 298.65 531.32 298.29 519.13C297.483 494.763 296.843 470.37 296.37 445.95C295.83 421.55 295.5 397.12 295.12 372.7L294.05 299.38C293.957 293.26 293.823 287.147 293.65 281.04C293.49 274.93 293.36 268.81 293.14 262.7L292.36 244.37L291.9 235.2L291.68 230.62L291.56 228.33L291.5 227.19V226.61C291.51 226.581 291.51 226.549 291.5 226.52C292.942 226.425 294.388 226.425 295.83 226.52C297.606 226.646 299.371 226.9 301.11 227.28C301.31 250.55 300.79 273.87 300.74 297.23C300.74 309.01 300.81 320.8 301.16 332.59L301.48 341.44L301.91 350.29C302.26 356.22 302.69 362.03 302.91 367.85C303.91 391.21 303.53 414.71 303.43 438.22C303.33 461.73 303.26 485.31 304.09 508.89C304.772 532.54 306.745 556.135 310 579.57C313.46 603 318.65 626.38 327.57 648.64C332.005 659.835 337.602 670.534 344.27 680.56C350.998 690.688 359.163 699.783 368.51 707.56C377.932 715.321 388.532 721.529 399.91 725.95C411.243 730.281 423.099 733.096 435.17 734.32C447.135 735.531 459.186 735.631 471.17 734.62C483.358 733.783 495.323 730.935 506.58 726.19C517.752 721.443 528.244 715.232 537.78 707.72C547.233 700.29 555.941 691.957 563.78 682.84C564.78 681.72 565.78 680.56 566.7 679.42L569.56 675.82L572.25 672.11C573.12 670.86 573.94 669.59 574.78 668.32C578.026 663.236 580.997 657.982 583.68 652.58C588.942 641.882 593.518 630.859 597.38 619.58C601.3 608.35 604.7 596.98 607.75 585.58C610.8 574.18 613.53 562.53 616 551C621 527.9 625 504.64 628.54 481.32C632.08 458 634.83 434.59 637.35 411.17C639.87 387.75 641.79 364.27 643.49 340.79L644.7 323.18L645.7 305.56C646.35 293.81 646.97 282.06 647.47 270.31C647.489 269.929 647.417 269.548 647.26 269.2C649.368 268.68 651.529 268.409 653.7 268.39C655.637 268.368 657.572 268.553 659.47 268.94V268.94Z" fill="white"></path> <path d="M256.84 195.12C259.12 192.51 261.46 189.96 263.84 187.43C266.22 184.9 268.74 182.43 271.22 179.76C267.861 181.131 264.7 182.943 261.82 185.15C258.929 187.348 256.269 189.834 253.88 192.57C251.494 195.304 249.396 198.276 247.62 201.44C245.821 204.594 244.458 207.979 243.57 211.5C245.87 208.68 247.97 205.87 250.16 203.14C252.35 200.41 254.57 197.74 256.84 195.12V195.12ZM243.29 179.71C239.098 182.794 235.594 186.718 233 191.23C231.645 193.491 230.634 195.941 230 198.5C232 196.71 233.68 194.86 235.39 193.03L240.39 187.52L245.32 181.96C246.95 180.06 248.6 178.16 250.16 175.96C247.697 176.862 245.381 178.126 243.29 179.71Z" fill="black"></path> </svg> 