<?xml version="1.0" encoding="UTF-8"?> <svg xmlns="http://www.w3.org/2000/svg" width="983" height="894" viewBox="0 0 983 894" fill="none"> <mask id="path-1-inside-1_100_18" fill="white"> <path fill-rule="evenodd" clip-rule="evenodd" d="M49.5 0.775024C27.789 4.40902 8.54799 21.692 1.83899 43.584C0.0709893 49.353 0 61.461 0 358.584C0 655.707 0.0709893 667.815 1.83899 673.584C6.38999 688.436 17.893 702.567 30.5 708.795C43.99 715.459 30.362 715.053 241.25 715.069C346.438 715.077 432.5 715.38 432.5 715.743C432.5 716.393 403.207 811.239 401.51 816.084C401.028 817.459 398.801 824.514 396.559 831.762L392.485 844.939L371.742 845.262C352.16 845.566 350.825 845.709 347.873 847.814C342.29 851.797 341.5 854.971 341.5 873.413V889.939L344.25 892.102C347.669 894.791 352.711 894.248 355.511 890.89C357.19 888.876 357.438 886.909 357.467 875.334L357.5 862.084H495.5H633.5V875.161V888.238L636.423 891.161C639.874 894.611 643.214 894.883 646.865 892.011L649.5 889.939V872.879C649.5 857.158 649.331 855.547 647.345 852.334C643.555 846.201 639.494 845.131 619.916 845.106L602.833 845.084L599.754 834.834C598.061 829.196 592.179 810.184 586.683 792.584C566.009 726.377 563.5 718.157 563.5 716.64C563.5 715.237 581.729 715.084 748.34 715.084C927.431 715.084 933.414 715.024 940.698 713.161C959.734 708.293 975.144 693.221 981.161 673.584C982.929 667.815 983 655.707 983 358.584V49.584L980.763 42.584C974.716 23.667 961.165 9.70502 942.213 2.86502C936.062 0.646021 935.371 0.620012 872.747 0.312012L809.493 0L806.997 2.49701C803.707 5.78601 803.689 10.364 806.955 13.629L809.409 16.084L867.705 16.101C931.748 16.12 935.013 16.37 944.84 21.993C954.32 27.417 961.047 35.549 964.603 45.884C966.448 51.246 966.5 59.148 966.5 334.741V618.084H863.455H760.409L757.955 620.539C754.766 623.727 754.765 627.999 757.952 631.438L760.405 634.084H863.535H966.665L966.333 651.334C966.005 668.336 965.954 668.681 962.814 675.309C958.696 684.003 952.081 690.413 942.5 694.997L935 698.584L496 698.867C183.693 699.068 55.158 698.837 50.618 698.065C37.162 695.776 26.429 687.774 20.399 675.536L17 668.637L16.667 651.36L16.335 634.084H305.37C518.056 634.084 595.061 633.786 596.885 632.954C600.476 631.318 602.081 626.9 600.484 623.046C599.792 621.375 598.417 619.575 597.429 619.046C596.29 618.436 489.527 618.084 306.066 618.084H16.5L16.481 608.334C16.47 602.972 16.474 475.691 16.489 325.488C16.519 26.415 16.101 47.769 22.132 37.458C25.24 32.143 33.952 23.914 39.429 21.12C49.721 15.869 33.55 16.12 363.295 16.101L669.591 16.084L672.045 13.629C673.395 12.279 674.5 10.232 674.5 9.08002C674.5 6.20902 671.923 1.46002 669.955 0.705017C668.185 0.0260171 53.563 0.0950244 49.5 0.775024ZM701.423 3.00702C699.815 4.61502 698.5 6.66201 698.5 7.55701C698.5 10.028 701.222 14.763 703.045 15.463C703.935 15.804 720.316 16.084 739.447 16.084C773.122 16.084 774.314 16.018 776.865 14.011C778.898 12.413 779.5 11.057 779.5 8.08401C779.5 5.11101 778.898 3.75501 776.865 2.15701C774.314 0.150013 773.124 0.0840149 739.288 0.0840149H704.346L701.423 3.00702ZM135.162 50.616C127.183 53.577 119.989 60.464 116.4 68.577C113.167 75.887 112.878 82.676 115.441 91.115C117.271 97.14 118.509 99.212 122.82 103.469C125.669 106.282 130.25 109.709 133 111.084L138 113.584H178C215.03 113.584 218.369 113.442 222.972 111.667C229.21 109.261 236.894 102.155 240.341 95.604C242.625 91.262 242.983 89.368 242.991 81.584C242.999 74.045 242.603 71.777 240.552 67.61C237.431 61.266 231.318 55.153 224.974 52.032L220 49.584L179.5 49.388C146.554 49.228 138.284 49.457 135.162 50.616ZM218.095 66.988C230.098 72.439 230.148 89.516 218.179 95.741C214.038 97.895 142.687 97.749 138.489 95.578C129.391 90.874 127.164 77.732 134.252 70.579C139.538 65.245 140.204 65.164 178.5 65.145C210.996 65.129 214.347 65.285 218.095 66.988ZM546.987 75.506C543.707 78.786 543.629 83.917 546.814 86.91C549.111 89.067 549.436 89.084 589.14 89.084H629.151L631.326 86.77C634.029 83.892 634.145 79.103 631.589 75.945L629.678 73.584L589.577 73.301L549.475 73.018L546.987 75.506ZM668.955 75.539C665.707 78.786 665.643 83.931 668.814 86.91L671.129 89.084H723.275H775.422L777.461 86.895C780.766 83.348 780.533 78.604 776.893 75.334L774.388 73.084H722.899H671.409L668.955 75.539ZM816.551 74.511C812.114 76.969 811.279 82.56 814.75 86.574L817 89.175L841 89.148L865 89.12L867.25 86.546C870.805 82.48 869.613 76.368 864.843 74.194C861.101 72.489 819.712 72.761 816.551 74.511ZM125.451 147.443C116.249 149.931 109.038 156.879 106.621 165.587C104.957 171.58 105.112 367.995 106.782 370.171C109.914 374.25 115.011 375.11 118.639 372.173L121 370.261L121.5 269.695L122 169.129L124.773 166.356L127.545 163.584L394.609 163.084L661.673 162.584L664.087 159.778C667.149 156.218 667.149 152.95 664.087 149.39L661.673 146.584L395.837 146.399C188.146 146.254 129.005 146.482 125.451 147.443ZM687.857 147.062C685.287 148.115 682.5 151.861 682.5 154.259C682.5 157.604 684.806 160.995 687.787 162.034C689.799 162.736 719.276 163.084 776.633 163.084H862.468L865.734 166.002L869 168.92L869.273 331.252C869.573 510.143 869.961 498.608 863.521 502.412C860.891 503.966 835.03 504.084 496.245 504.084C246.07 504.084 130.889 503.757 128.899 503.042C127.305 502.469 125.1 500.782 124 499.292C122.077 496.689 121.981 494.596 121.5 445.245L121 393.905L118.639 391.995C117.341 390.944 115.406 390.084 114.34 390.084C111.602 390.084 106.859 392.707 106.121 394.629C105.78 395.519 105.5 419.081 105.5 446.988C105.5 502.753 105.526 503.02 111.602 510.391C113.277 512.423 116.752 515.323 119.324 516.835L124 519.584L493.476 519.839C831.441 520.073 863.367 519.957 867.817 518.479C873.757 516.506 878.688 512.32 882.288 506.197L885 501.584L885.285 335.584C885.488 217.506 885.253 168.429 884.474 165.584C882.644 158.907 877.35 152.648 870.818 149.441L865 146.584L777.5 146.384C728.981 146.272 689.045 146.574 687.857 147.062ZM462 194.746C454.823 195.584 440.636 199.036 431.726 202.111C413.04 208.561 395.86 219.174 380.57 233.713C356.372 256.721 341.805 284.697 336.899 317.584C334.761 331.921 335.454 354.386 338.468 368.433C340.826 379.421 346.403 395.13 348.796 397.523C351.087 399.814 358.031 399.553 360.5 397.084C363.268 394.316 363.029 391.45 359.048 379.739C355.372 368.923 351.76 351.491 352.949 350.301C353.827 349.42 393.748 348.678 396.954 349.483C399.102 350.022 399.308 350.734 399.955 359.823C401.973 388.187 410.372 423.479 420.306 445.334C421.994 449.046 423.16 452.084 422.897 452.084C421.681 452.084 413.323 447.341 406.845 442.974C399.988 438.352 385.369 424.729 378.794 416.834C376.136 413.643 375.073 413.084 371.658 413.084C366.974 413.084 363.5 416.51 363.5 421.129C363.5 427.404 382.695 446.963 400.5 458.83C443.485 487.48 499.974 490.443 545.5 466.435C573.48 451.681 595.148 429.719 608.498 402.584C619.363 380.5 623.5 362.7 623.5 338.04C623.5 321.784 621.926 310.382 617.799 296.734C614.862 287.02 612.801 284.714 607.196 284.874C603.876 284.968 599.5 288.809 599.5 291.629C599.5 292.418 600.809 297.726 602.409 303.424C604.01 309.123 605.608 316.44 605.96 319.685C606.313 322.929 606.844 327.272 607.139 329.334L607.676 333.084H590.54H573.405L570.952 335.73C567.831 339.098 567.816 343.177 570.911 346.778L573.322 349.584L589.911 349.901C609.233 350.271 607.639 348.677 604.431 364.427C599.372 389.261 586.181 412.829 567.507 430.395C559.432 437.992 549.615 445.456 543.719 448.483L540.438 450.167L542.051 446.376C561.327 401.043 567.696 349.571 559.904 302.084C555.974 278.137 547.299 250.152 537.596 230.121C535.897 226.614 534.667 223.584 534.862 223.388C535.058 223.193 537.914 224.557 541.209 226.42C557.337 235.536 568.22 244.875 580.436 260.084C587.424 268.784 588.389 269.611 591.897 269.901C599.07 270.495 602.623 264.09 599.003 257.09C597.492 254.169 590.04 244.841 583.531 237.723C577.253 230.858 564.564 220.906 554.003 214.563C541.559 207.089 529.011 201.937 513.549 197.953C503.26 195.301 500.036 194.939 484 194.628C474.1 194.436 464.2 194.489 462 194.746ZM470.87 213.334C471.201 214.571 471.479 242.022 471.486 274.334L471.5 333.084H444H416.5V329.135C416.5 314.836 422.439 285.104 429.508 264.006C435.119 247.264 439.266 237.765 447.232 223.408C452.802 213.368 452.939 213.218 457.439 212.276C459.948 211.75 463.86 211.267 466.133 211.202C469.625 211.102 470.36 211.433 470.87 213.334ZM506.028 213.195C510.053 214.209 510.565 214.771 515.351 223.426C537.134 262.818 547.452 304.993 546.216 349.584C545.173 387.205 536.968 418.938 518.347 457.363C517.347 459.427 515.702 460.523 511.954 461.625C506.174 463.323 489.372 465.979 488.25 465.372C487.837 465.149 487.5 439.169 487.5 407.64V350.314L492.75 349.66C495.638 349.3 505.537 349.093 514.748 349.201C533.238 349.418 534.703 348.991 536.017 343.009C536.781 339.53 534.112 334.484 531.076 333.669C529.934 333.362 519.663 333.105 508.25 333.098L487.5 333.084V271.94V210.797L494.635 211.46C498.559 211.825 503.686 212.606 506.028 213.195ZM427.066 225.955C413.136 253.444 403.519 289.087 399.982 326.334L399.341 333.084H375.543H351.746L352.166 328.334C354.634 300.409 366.25 273.341 384.593 252.767C389.674 247.068 403.06 235.447 409 231.578C412.951 229.005 427.787 221.151 428.767 221.113C429.189 221.097 428.423 223.276 427.066 225.955ZM675.573 286.719C674.433 288.168 673.5 290.213 673.5 291.263C673.5 292.924 676.838 304.869 686.866 339.084C688.236 343.759 692.316 357.682 695.933 370.024C703.102 394.49 704.472 397.084 710.224 397.084C713.157 397.084 714.78 395.883 722.608 387.919L731.618 378.754L738.761 385.669C742.689 389.472 746.515 393.374 747.262 394.34C749.426 397.135 754.223 399.192 756.972 398.502C759.599 397.842 785.392 373.136 787.353 369.4C789.721 364.891 788.728 363.026 778.347 352.476C769.247 343.229 768.339 341.983 769.597 340.466C770.369 339.535 774.713 334.933 779.25 330.239C788.351 320.825 789.28 318.248 785.25 313.601C783.287 311.338 776.691 309.29 733.543 297.545C706.342 290.142 682.637 284.084 680.865 284.084C678.578 284.084 677.045 284.847 675.573 286.719ZM728.702 313.178C747.016 318.18 762.188 322.456 762.418 322.679C762.648 322.903 759.61 326.413 755.668 330.479C749.365 336.979 748.5 338.323 748.5 341.622C748.5 345.03 749.416 346.305 758.486 355.522L768.472 365.67L762.04 372.044C757.094 376.946 755.307 378.165 754.304 377.321C753.587 376.718 749.09 372.367 744.312 367.654C736.583 360.03 735.219 359.084 731.956 359.084C728.767 359.084 727.341 360.001 721.06 366.092L713.833 373.099L705.151 343.342C700.376 326.975 695.822 311.446 695.032 308.834C694.242 306.222 694.003 304.084 694.5 304.084C694.997 304.084 710.388 308.176 728.702 313.178ZM190.729 309.753C188.455 310.668 186.332 316.044 187.016 319.156C188.357 325.261 186.53 325.084 248.048 325.084H304.151L306.326 322.77C309.305 319.598 309.239 314.127 306.186 311.258L303.871 309.084L247.936 309.163C217.171 309.206 191.428 309.472 190.729 309.753ZM471 397.084C471 423.209 470.843 449.257 470.652 454.968L470.304 465.353L463.652 464.719C459.993 464.37 454.759 463.522 452.019 462.834C447.282 461.645 446.858 461.252 443.329 454.792C439.486 447.755 430.34 425.44 426.644 414.084C421.678 398.825 416.5 369.231 416.5 356.106C416.5 351.342 416.831 350.149 418.25 349.797C419.212 349.559 431.475 349.413 445.5 349.474L471 349.584V397.084ZM188.573 360.719C187.433 362.168 186.5 364.236 186.5 365.315C186.5 368.244 189.562 372.865 191.924 373.499C193.066 373.806 218.658 374.063 248.795 374.07L303.591 374.084L306.045 371.629C309.139 368.536 309.329 363.351 306.461 360.273L304.422 358.084H247.534H190.645L188.573 360.719ZM115.573 555.719C113.236 558.689 112.994 560.88 114.61 564.427C116.604 568.802 118.811 569.084 151.093 569.084H181.591L184.045 566.629C187.293 563.382 187.357 558.237 184.186 555.258C181.908 553.119 181.353 553.084 149.758 553.084H117.645L115.573 555.719ZM213.539 555.273C210.484 558.551 210.78 564.372 214.135 567.011C216.755 569.072 217.261 569.084 304.412 569.084C400.138 569.084 395.298 569.375 397.538 563.483C398.606 560.675 397.264 556.388 394.711 554.447C393.338 553.404 375.484 553.141 304.289 553.116L215.578 553.084L213.539 555.273ZM424.573 555.719C421.767 559.285 421.918 563.593 424.955 566.629L427.409 569.084H649.02C815.587 569.084 871.174 568.795 872.816 567.921C877.828 565.251 878.918 560.157 875.427 555.719L873.355 553.084H650H426.645L424.573 555.719ZM627.573 620.719C624.767 624.285 624.918 628.593 627.955 631.629L630.409 634.084H670.031H709.654L712.577 631.161C715.748 627.99 716.135 626.145 714.337 622.768C711.861 618.121 712.134 618.149 669.823 618.116L629.645 618.084L627.573 620.719ZM552.92 739.869C561.853 768.476 584.341 840.754 585.112 843.334C585.607 844.991 580.978 845.084 497.665 845.084H409.696L411.001 840.834C411.718 838.496 417.025 821.509 422.793 803.084C428.562 784.659 436.99 757.659 441.522 743.084C446.054 728.509 449.96 716.239 450.2 715.818C450.441 715.397 471.915 715.075 497.921 715.103L545.204 715.155L552.92 739.869Z"></path> </mask> <path fill-rule="evenodd" clip-rule="evenodd" d="M49.5 0.775024C27.789 4.40902 8.54799 21.692 1.83899 43.584C0.0709893 49.353 0 61.461 0 358.584C0 655.707 0.0709893 667.815 1.83899 673.584C6.38999 688.436 17.893 702.567 30.5 708.795C43.99 715.459 30.362 715.053 241.25 715.069C346.438 715.077 432.5 715.38 432.5 715.743C432.5 716.393 403.207 811.239 401.51 816.084C401.028 817.459 398.801 824.514 396.559 831.762L392.485 844.939L371.742 845.262C352.16 845.566 350.825 845.709 347.873 847.814C342.29 851.797 341.5 854.971 341.5 873.413V889.939L344.25 892.102C347.669 894.791 352.711 894.248 355.511 890.89C357.19 888.876 357.438 886.909 357.467 875.334L357.5 862.084H495.5H633.5V875.161V888.238L636.423 891.161C639.874 894.611 643.214 894.883 646.865 892.011L649.5 889.939V872.879C649.5 857.158 649.331 855.547 647.345 852.334C643.555 846.201 639.494 845.131 619.916 845.106L602.833 845.084L599.754 834.834C598.061 829.196 592.179 810.184 586.683 792.584C566.009 726.377 563.5 718.157 563.5 716.64C563.5 715.237 581.729 715.084 748.34 715.084C927.431 715.084 933.414 715.024 940.698 713.161C959.734 708.293 975.144 693.221 981.161 673.584C982.929 667.815 983 655.707 983 358.584V49.584L980.763 42.584C974.716 23.667 961.165 9.70502 942.213 2.86502C936.062 0.646021 935.371 0.620012 872.747 0.312012L809.493 0L806.997 2.49701C803.707 5.78601 803.689 10.364 806.955 13.629L809.409 16.084L867.705 16.101C931.748 16.12 935.013 16.37 944.84 21.993C954.32 27.417 961.047 35.549 964.603 45.884C966.448 51.246 966.5 59.148 966.5 334.741V618.084H863.455H760.409L757.955 620.539C754.766 623.727 754.765 627.999 757.952 631.438L760.405 634.084H863.535H966.665L966.333 651.334C966.005 668.336 965.954 668.681 962.814 675.309C958.696 684.003 952.081 690.413 942.5 694.997L935 698.584L496 698.867C183.693 699.068 55.158 698.837 50.618 698.065C37.162 695.776 26.429 687.774 20.399 675.536L17 668.637L16.667 651.36L16.335 634.084H305.37C518.056 634.084 595.061 633.786 596.885 632.954C600.476 631.318 602.081 626.9 600.484 623.046C599.792 621.375 598.417 619.575 597.429 619.046C596.29 618.436 489.527 618.084 306.066 618.084H16.5L16.481 608.334C16.47 602.972 16.474 475.691 16.489 325.488C16.519 26.415 16.101 47.769 22.132 37.458C25.24 32.143 33.952 23.914 39.429 21.12C49.721 15.869 33.55 16.12 363.295 16.101L669.591 16.084L672.045 13.629C673.395 12.279 674.5 10.232 674.5 9.08002C674.5 6.20902 671.923 1.46002 669.955 0.705017C668.185 0.0260171 53.563 0.0950244 49.5 0.775024ZM701.423 3.00702C699.815 4.61502 698.5 6.66201 698.5 7.55701C698.5 10.028 701.222 14.763 703.045 15.463C703.935 15.804 720.316 16.084 739.447 16.084C773.122 16.084 774.314 16.018 776.865 14.011C778.898 12.413 779.5 11.057 779.5 8.08401C779.5 5.11101 778.898 3.75501 776.865 2.15701C774.314 0.150013 773.124 0.0840149 739.288 0.0840149H704.346L701.423 3.00702ZM135.162 50.616C127.183 53.577 119.989 60.464 116.4 68.577C113.167 75.887 112.878 82.676 115.441 91.115C117.271 97.14 118.509 99.212 122.82 103.469C125.669 106.282 130.25 109.709 133 111.084L138 113.584H178C215.03 113.584 218.369 113.442 222.972 111.667C229.21 109.261 236.894 102.155 240.341 95.604C242.625 91.262 242.983 89.368 242.991 81.584C242.999 74.045 242.603 71.777 240.552 67.61C237.431 61.266 231.318 55.153 224.974 52.032L220 49.584L179.5 49.388C146.554 49.228 138.284 49.457 135.162 50.616ZM218.095 66.988C230.098 72.439 230.148 89.516 218.179 95.741C214.038 97.895 142.687 97.749 138.489 95.578C129.391 90.874 127.164 77.732 134.252 70.579C139.538 65.245 140.204 65.164 178.5 65.145C210.996 65.129 214.347 65.285 218.095 66.988ZM546.987 75.506C543.707 78.786 543.629 83.917 546.814 86.91C549.111 89.067 549.436 89.084 589.14 89.084H629.151L631.326 86.77C634.029 83.892 634.145 79.103 631.589 75.945L629.678 73.584L589.577 73.301L549.475 73.018L546.987 75.506ZM668.955 75.539C665.707 78.786 665.643 83.931 668.814 86.91L671.129 89.084H723.275H775.422L777.461 86.895C780.766 83.348 780.533 78.604 776.893 75.334L774.388 73.084H722.899H671.409L668.955 75.539ZM816.551 74.511C812.114 76.969 811.279 82.56 814.75 86.574L817 89.175L841 89.148L865 89.12L867.25 86.546C870.805 82.48 869.613 76.368 864.843 74.194C861.101 72.489 819.712 72.761 816.551 74.511ZM125.451 147.443C116.249 149.931 109.038 156.879 106.621 165.587C104.957 171.58 105.112 367.995 106.782 370.171C109.914 374.25 115.011 375.11 118.639 372.173L121 370.261L121.5 269.695L122 169.129L124.773 166.356L127.545 163.584L394.609 163.084L661.673 162.584L664.087 159.778C667.149 156.218 667.149 152.95 664.087 149.39L661.673 146.584L395.837 146.399C188.146 146.254 129.005 146.482 125.451 147.443ZM687.857 147.062C685.287 148.115 682.5 151.861 682.5 154.259C682.5 157.604 684.806 160.995 687.787 162.034C689.799 162.736 719.276 163.084 776.633 163.084H862.468L865.734 166.002L869 168.92L869.273 331.252C869.573 510.143 869.961 498.608 863.521 502.412C860.891 503.966 835.03 504.084 496.245 504.084C246.07 504.084 130.889 503.757 128.899 503.042C127.305 502.469 125.1 500.782 124 499.292C122.077 496.689 121.981 494.596 121.5 445.245L121 393.905L118.639 391.995C117.341 390.944 115.406 390.084 114.34 390.084C111.602 390.084 106.859 392.707 106.121 394.629C105.78 395.519 105.5 419.081 105.5 446.988C105.5 502.753 105.526 503.02 111.602 510.391C113.277 512.423 116.752 515.323 119.324 516.835L124 519.584L493.476 519.839C831.441 520.073 863.367 519.957 867.817 518.479C873.757 516.506 878.688 512.32 882.288 506.197L885 501.584L885.285 335.584C885.488 217.506 885.253 168.429 884.474 165.584C882.644 158.907 877.35 152.648 870.818 149.441L865 146.584L777.5 146.384C728.981 146.272 689.045 146.574 687.857 147.062ZM462 194.746C454.823 195.584 440.636 199.036 431.726 202.111C413.04 208.561 395.86 219.174 380.57 233.713C356.372 256.721 341.805 284.697 336.899 317.584C334.761 331.921 335.454 354.386 338.468 368.433C340.826 379.421 346.403 395.13 348.796 397.523C351.087 399.814 358.031 399.553 360.5 397.084C363.268 394.316 363.029 391.45 359.048 379.739C355.372 368.923 351.76 351.491 352.949 350.301C353.827 349.42 393.748 348.678 396.954 349.483C399.102 350.022 399.308 350.734 399.955 359.823C401.973 388.187 410.372 423.479 420.306 445.334C421.994 449.046 423.16 452.084 422.897 452.084C421.681 452.084 413.323 447.341 406.845 442.974C399.988 438.352 385.369 424.729 378.794 416.834C376.136 413.643 375.073 413.084 371.658 413.084C366.974 413.084 363.5 416.51 363.5 421.129C363.5 427.404 382.695 446.963 400.5 458.83C443.485 487.48 499.974 490.443 545.5 466.435C573.48 451.681 595.148 429.719 608.498 402.584C619.363 380.5 623.5 362.7 623.5 338.04C623.5 321.784 621.926 310.382 617.799 296.734C614.862 287.02 612.801 284.714 607.196 284.874C603.876 284.968 599.5 288.809 599.5 291.629C599.5 292.418 600.809 297.726 602.409 303.424C604.01 309.123 605.608 316.44 605.96 319.685C606.313 322.929 606.844 327.272 607.139 329.334L607.676 333.084H590.54H573.405L570.952 335.73C567.831 339.098 567.816 343.177 570.911 346.778L573.322 349.584L589.911 349.901C609.233 350.271 607.639 348.677 604.431 364.427C599.372 389.261 586.181 412.829 567.507 430.395C559.432 437.992 549.615 445.456 543.719 448.483L540.438 450.167L542.051 446.376C561.327 401.043 567.696 349.571 559.904 302.084C555.974 278.137 547.299 250.152 537.596 230.121C535.897 226.614 534.667 223.584 534.862 223.388C535.058 223.193 537.914 224.557 541.209 226.42C557.337 235.536 568.22 244.875 580.436 260.084C587.424 268.784 588.389 269.611 591.897 269.901C599.07 270.495 602.623 264.09 599.003 257.09C597.492 254.169 590.04 244.841 583.531 237.723C577.253 230.858 564.564 220.906 554.003 214.563C541.559 207.089 529.011 201.937 513.549 197.953C503.26 195.301 500.036 194.939 484 194.628C474.1 194.436 464.2 194.489 462 194.746ZM470.87 213.334C471.201 214.571 471.479 242.022 471.486 274.334L471.5 333.084H444H416.5V329.135C416.5 314.836 422.439 285.104 429.508 264.006C435.119 247.264 439.266 237.765 447.232 223.408C452.802 213.368 452.939 213.218 457.439 212.276C459.948 211.75 463.86 211.267 466.133 211.202C469.625 211.102 470.36 211.433 470.87 213.334ZM506.028 213.195C510.053 214.209 510.565 214.771 515.351 223.426C537.134 262.818 547.452 304.993 546.216 349.584C545.173 387.205 536.968 418.938 518.347 457.363C517.347 459.427 515.702 460.523 511.954 461.625C506.174 463.323 489.372 465.979 488.25 465.372C487.837 465.149 487.5 439.169 487.5 407.64V350.314L492.75 349.66C495.638 349.3 505.537 349.093 514.748 349.201C533.238 349.418 534.703 348.991 536.017 343.009C536.781 339.53 534.112 334.484 531.076 333.669C529.934 333.362 519.663 333.105 508.25 333.098L487.5 333.084V271.94V210.797L494.635 211.46C498.559 211.825 503.686 212.606 506.028 213.195ZM427.066 225.955C413.136 253.444 403.519 289.087 399.982 326.334L399.341 333.084H375.543H351.746L352.166 328.334C354.634 300.409 366.25 273.341 384.593 252.767C389.674 247.068 403.06 235.447 409 231.578C412.951 229.005 427.787 221.151 428.767 221.113C429.189 221.097 428.423 223.276 427.066 225.955ZM675.573 286.719C674.433 288.168 673.5 290.213 673.5 291.263C673.5 292.924 676.838 304.869 686.866 339.084C688.236 343.759 692.316 357.682 695.933 370.024C703.102 394.49 704.472 397.084 710.224 397.084C713.157 397.084 714.78 395.883 722.608 387.919L731.618 378.754L738.761 385.669C742.689 389.472 746.515 393.374 747.262 394.34C749.426 397.135 754.223 399.192 756.972 398.502C759.599 397.842 785.392 373.136 787.353 369.4C789.721 364.891 788.728 363.026 778.347 352.476C769.247 343.229 768.339 341.983 769.597 340.466C770.369 339.535 774.713 334.933 779.25 330.239C788.351 320.825 789.28 318.248 785.25 313.601C783.287 311.338 776.691 309.29 733.543 297.545C706.342 290.142 682.637 284.084 680.865 284.084C678.578 284.084 677.045 284.847 675.573 286.719ZM728.702 313.178C747.016 318.18 762.188 322.456 762.418 322.679C762.648 322.903 759.61 326.413 755.668 330.479C749.365 336.979 748.5 338.323 748.5 341.622C748.5 345.03 749.416 346.305 758.486 355.522L768.472 365.67L762.04 372.044C757.094 376.946 755.307 378.165 754.304 377.321C753.587 376.718 749.09 372.367 744.312 367.654C736.583 360.03 735.219 359.084 731.956 359.084C728.767 359.084 727.341 360.001 721.06 366.092L713.833 373.099L705.151 343.342C700.376 326.975 695.822 311.446 695.032 308.834C694.242 306.222 694.003 304.084 694.5 304.084C694.997 304.084 710.388 308.176 728.702 313.178ZM190.729 309.753C188.455 310.668 186.332 316.044 187.016 319.156C188.357 325.261 186.53 325.084 248.048 325.084H304.151L306.326 322.77C309.305 319.598 309.239 314.127 306.186 311.258L303.871 309.084L247.936 309.163C217.171 309.206 191.428 309.472 190.729 309.753ZM471 397.084C471 423.209 470.843 449.257 470.652 454.968L470.304 465.353L463.652 464.719C459.993 464.37 454.759 463.522 452.019 462.834C447.282 461.645 446.858 461.252 443.329 454.792C439.486 447.755 430.34 425.44 426.644 414.084C421.678 398.825 416.5 369.231 416.5 356.106C416.5 351.342 416.831 350.149 418.25 349.797C419.212 349.559 431.475 349.413 445.5 349.474L471 349.584V397.084ZM188.573 360.719C187.433 362.168 186.5 364.236 186.5 365.315C186.5 368.244 189.562 372.865 191.924 373.499C193.066 373.806 218.658 374.063 248.795 374.07L303.591 374.084L306.045 371.629C309.139 368.536 309.329 363.351 306.461 360.273L304.422 358.084H247.534H190.645L188.573 360.719ZM115.573 555.719C113.236 558.689 112.994 560.88 114.61 564.427C116.604 568.802 118.811 569.084 151.093 569.084H181.591L184.045 566.629C187.293 563.382 187.357 558.237 184.186 555.258C181.908 553.119 181.353 553.084 149.758 553.084H117.645L115.573 555.719ZM213.539 555.273C210.484 558.551 210.78 564.372 214.135 567.011C216.755 569.072 217.261 569.084 304.412 569.084C400.138 569.084 395.298 569.375 397.538 563.483C398.606 560.675 397.264 556.388 394.711 554.447C393.338 553.404 375.484 553.141 304.289 553.116L215.578 553.084L213.539 555.273ZM424.573 555.719C421.767 559.285 421.918 563.593 424.955 566.629L427.409 569.084H649.02C815.587 569.084 871.174 568.795 872.816 567.921C877.828 565.251 878.918 560.157 875.427 555.719L873.355 553.084H650H426.645L424.573 555.719ZM627.573 620.719C624.767 624.285 624.918 628.593 627.955 631.629L630.409 634.084H670.031H709.654L712.577 631.161C715.748 627.99 716.135 626.145 714.337 622.768C711.861 618.121 712.134 618.149 669.823 618.116L629.645 618.084L627.573 620.719ZM552.92 739.869C561.853 768.476 584.341 840.754 585.112 843.334C585.607 844.991 580.978 845.084 497.665 845.084H409.696L411.001 840.834C411.718 838.496 417.025 821.509 422.793 803.084C428.562 784.659 436.99 757.659 441.522 743.084C446.054 728.509 449.96 716.239 450.2 715.818C450.441 715.397 471.915 715.075 497.921 715.103L545.204 715.155L552.92 739.869Z" stroke="black" stroke-width="10" mask="url(#path-1-inside-1_100_18)"></path> </svg> 