<?xml version="1.0" encoding="UTF-8"?> <svg xmlns="http://www.w3.org/2000/svg" width="441" height="391" viewBox="0 0 441 391" fill="none"> <path d="M337.976 200.687L347.241 210.769" stroke="black" stroke-width="3"></path> <path d="M152.317 293.519L174.457 280.626M348.958 179.004L338.327 185.395" stroke="black"></path> <path d="M153.395 294.596L175.534 281.703M350.035 180.081L339.404 186.472" stroke="black"></path> <path fill-rule="evenodd" clip-rule="evenodd" d="M304.463 147.231C301.628 148.964 295.829 152.332 291.576 154.717C282.701 159.693 200.124 207.07 194.628 210.338C188.487 213.991 187.807 214.426 180.903 219.096L174.213 223.62L172.398 233.259C170.819 241.65 170.757 243.732 171.922 249.362C174.228 260.502 174.331 263.115 172.597 266.471C169.896 271.696 170.54 276.312 175.146 284.705C177.45 288.907 180.118 292.567 181.074 292.84C182.836 293.343 196.796 296.008 202.328 296.897C203.99 297.164 206.426 296.893 207.74 296.293C209.761 295.372 210.131 294.431 210.131 290.212C210.131 287.467 210.595 285.221 211.162 285.221C211.729 285.221 212.193 285.884 212.193 286.695C212.193 289.214 215.282 291.409 218.829 291.409C222.971 291.409 227.419 288.106 229.281 283.647C230.604 280.481 230.841 280.375 235.609 280.833C240.004 281.256 240.898 280.978 243.524 278.366C245.15 276.747 246.91 274.206 247.434 272.719C248.309 270.231 248.748 270.056 252.95 270.531C256.204 270.897 258.285 270.54 260.198 269.286C262.91 267.509 267.122 259.705 266.187 258.192C265.909 257.742 266.52 257.37 267.546 257.366C268.572 257.361 273 255.307 277.386 252.8C281.773 250.293 285.628 248.673 285.952 249.198C286.277 249.724 288.309 250.154 290.467 250.154C295.312 250.154 299.251 247.244 301.017 242.36C301.953 239.769 302.766 238.933 303.906 239.391C309.704 241.719 315.18 239.385 318.47 233.182C320.56 229.238 321.114 228.829 323.467 229.483C326.915 230.442 331.994 229.048 334.284 226.515C335.284 225.41 336.712 222.734 337.457 220.569C338.577 217.31 338.574 216.069 337.437 213.343C336.274 210.557 336.289 209.866 337.532 208.833C338.706 207.859 339 203.76 339 188.354V169.094L335.561 162.654C332.306 156.561 331.549 155.883 321.487 150.067C315.638 146.687 310.575 143.957 310.235 144.001C309.895 144.044 307.298 145.497 304.463 147.231ZM320.411 151.29C325.532 154.209 329.721 156.734 329.721 156.901C329.721 157.068 323.534 160.724 315.971 165.026L302.22 172.847L292.815 167.409C287.643 164.418 283.406 161.738 283.399 161.455C283.383 160.867 309.225 146.072 310.359 146.019C310.767 145.999 315.291 148.372 320.411 151.29ZM333.983 163.065C335.257 165.776 335.805 168.138 335.277 168.64C334.773 169.12 328.617 172.811 321.598 176.843C309.754 183.645 308.735 184.042 307.454 182.354C305.44 179.701 303.497 173.466 304.572 173.105C305.08 172.935 311.061 169.557 317.865 165.599C324.67 161.639 330.582 158.391 331.005 158.381C331.428 158.37 332.768 160.478 333.983 163.065ZM290.68 167.72C295.709 170.599 299.815 173.268 299.803 173.651C299.778 174.501 272.385 190.333 270.94 190.333C269.817 190.333 251.369 180.03 251.369 179.403C251.369 179.191 254.036 177.617 257.297 175.905C260.558 174.193 267.168 170.488 271.988 167.669C276.808 164.851 280.929 162.532 281.144 162.516C281.361 162.499 285.652 164.842 290.68 167.72ZM336.724 178.551L336.423 186.364L330.752 189.465C327.634 191.171 318.819 196.178 311.164 200.593C289.206 213.256 249.872 235.842 237.451 242.919C231.214 246.472 224.69 250.234 222.955 251.278L219.798 253.176L220.244 247.02C220.535 242.981 220.242 240.327 219.387 239.296C217.872 237.471 217.81 237.552 222.502 235.196C224.487 234.199 230.286 230.943 235.389 227.96C240.493 224.977 254.642 216.845 266.833 209.889C279.024 202.934 299.401 191.279 312.116 183.989C324.83 176.701 335.636 170.737 336.129 170.737C336.622 170.737 336.89 174.253 336.724 178.551ZM304.968 180.744C306.228 183.425 306.822 185.765 306.289 185.943C305.755 186.121 299.202 189.734 291.728 193.972C284.253 198.211 277.775 201.679 277.331 201.679C276.886 201.679 275.47 199.511 274.183 196.861C272.322 193.029 272.122 191.879 273.205 191.245C287.425 182.903 301.515 175.202 302.024 175.494C302.384 175.699 303.708 178.062 304.968 180.744ZM319.154 183.204C312.224 187.322 312.195 187.358 312.195 191.93C312.195 194.456 312.543 196.51 312.968 196.496C313.394 196.483 316.989 194.504 320.958 192.101C327.904 187.896 328.187 187.568 328.492 183.36C328.889 177.872 328.151 177.86 319.154 183.204ZM259.634 186.274C264.728 189.146 268.895 191.633 268.895 191.801C268.895 191.968 262.21 195.91 254.039 200.56L239.183 209.013L229.812 203.683C224.657 200.75 220.444 198.056 220.448 197.694C220.458 196.846 247.344 181.317 249.067 181.165C249.786 181.103 254.541 183.401 259.634 186.274ZM326.897 184.581C326.556 186.357 324.547 188.239 320.259 190.793C316.877 192.81 313.911 194.459 313.667 194.459C313.425 194.459 313.226 193.109 313.226 191.459C313.226 188.853 314.072 187.984 319.656 184.845C323.193 182.858 326.379 181.412 326.735 181.633C327.091 181.852 327.164 183.18 326.897 184.581ZM336.938 189.11C336.938 189.572 334.039 191.586 330.495 193.585C314.863 202.405 231.9 250.129 216.677 259.059C207.746 264.298 204.124 265.776 205.44 263.644C205.763 263.122 207.994 261.578 210.398 260.213C212.803 258.846 229.152 249.451 246.73 239.335C319.288 197.574 335.429 188.367 336.165 188.32C336.591 188.292 336.938 188.648 336.938 189.11ZM336.938 200.059V207.723L327.727 213.041C322.659 215.966 318.641 218.9 318.794 219.56C318.948 220.22 318.879 220.412 318.642 219.986C317.868 218.602 316.507 219.139 307.846 224.249C303.15 227.021 279.011 240.908 254.204 255.112C209.418 280.753 209.095 280.916 208.537 278.179C208.228 276.663 207.497 273.625 206.912 271.428C206.327 269.231 206.232 267.064 206.701 266.613C207.17 266.161 223.559 256.615 243.122 245.4C262.684 234.185 291.447 217.693 307.041 208.753C322.634 199.812 335.739 192.475 336.165 192.447C336.591 192.419 336.938 195.845 336.938 200.059ZM272.814 198.097C274.06 200.664 275.081 202.921 275.081 203.111C275.081 203.434 252.611 216.476 247.531 219.102C245.415 220.195 245.042 219.897 242.667 215.206L240.094 210.127L254.731 201.777C262.782 197.185 269.633 193.428 269.957 193.428C270.282 193.428 271.567 195.529 272.814 198.097ZM293.123 198.32C286.028 202.563 285.428 203.24 285.406 207.033C285.382 211.232 286.881 211.382 293.374 207.826C301.559 203.343 301.886 202.983 301.886 198.459C301.886 193.539 301.139 193.527 293.123 198.32ZM300.665 199.293C300.417 201.404 298.99 202.868 294.669 205.441C291.55 207.299 288.651 208.836 288.226 208.858C287.8 208.88 287.452 207.617 287.452 206.051C287.452 203.657 288.396 202.676 293.38 199.887C296.641 198.063 299.687 196.559 300.15 196.545C300.613 196.533 300.844 197.769 300.665 199.293ZM227.915 204.194C232.877 206.995 236.932 209.548 236.927 209.867C236.917 210.491 212.865 224.369 211.793 224.369C209.972 224.369 192.61 213.642 193.32 212.956C194.688 211.635 217.821 198.639 218.379 198.879C218.662 199 222.954 201.392 227.915 204.194ZM268.791 212.281C260.326 217.149 259.617 217.934 259.617 222.432C259.617 224.632 259.94 226.432 260.335 226.432C260.731 226.432 264.443 224.493 268.583 222.123C276.108 217.815 276.112 217.811 276.112 213.356C276.112 210.904 275.765 208.913 275.339 208.929C274.913 208.947 271.967 210.455 268.791 212.281ZM274.636 215.881C274.321 216.863 271.432 219.057 268.216 220.759C260.348 224.922 260.648 224.872 260.648 222.003C260.648 219.112 262.068 217.716 268.781 214.009C272.526 211.941 273.712 211.672 274.371 212.74C274.831 213.486 274.95 214.9 274.636 215.881ZM241.413 216.632L244.005 221.27L237.119 225.25C218.112 236.237 209.77 240.854 209.469 240.553C209.287 240.371 209.941 237.008 210.923 233.08L212.708 225.939L224.564 219.01C231.085 215.199 236.961 212.062 237.621 212.037C238.281 212.012 239.987 214.08 241.413 216.632ZM335.318 213.613C337.127 215.423 337.167 215.764 335.907 218.696C335.125 220.517 335.012 220.423 334.948 217.891C334.863 214.494 332.864 213.449 329.544 215.065L327.144 216.235L329.578 214.113C332.501 211.567 333.21 211.505 335.318 213.613ZM195.698 218.016C195.698 218.463 194.074 219.605 192.089 220.552C188.828 222.108 188.481 222.681 188.481 226.526C188.481 229.781 188.137 230.646 187.013 230.215C184.256 229.156 177.141 224.344 177.206 223.582C177.241 223.164 180.14 220.936 183.649 218.629C189.607 214.714 190.214 214.529 192.863 215.82C194.421 216.58 195.698 217.568 195.698 218.016ZM333.845 218.357C333.845 222.159 328.87 226.131 327.297 223.585C327.031 223.154 327.445 221.298 328.217 219.46C329.896 215.466 333.845 214.692 333.845 218.357ZM323.891 218.741C323.555 219.616 323.059 220.112 322.789 219.841C322.519 219.571 322.604 218.854 322.978 218.25C323.995 216.604 324.588 216.924 323.891 218.741ZM197.605 224.813C196.194 227.912 195.158 228.174 194.271 225.658C193.92 224.666 193.389 223.35 193.09 222.734C192.792 222.12 193.604 221.137 194.896 220.55C197.971 219.153 199.26 221.18 197.605 224.813ZM205.824 223.006C208.476 224.525 210.723 225.801 210.817 225.842C211.359 226.079 207.32 240.962 206.721 240.933C206.001 240.899 195.549 235.798 194.786 235.109C194.569 234.912 195.613 232.253 197.106 229.199C198.6 226.146 199.822 222.882 199.822 221.945C199.822 219.704 200.165 219.765 205.824 223.006ZM327.361 226.142C328.242 226.48 329.875 226.187 330.99 225.492C334.034 223.59 334.43 224.97 331.408 226.951C327.429 229.559 325.112 228.634 324.922 224.361C324.831 222.289 324.974 221.772 325.261 223.143C325.534 224.454 326.479 225.804 327.361 226.142ZM318.34 224.293C319.021 225.567 319.057 227.138 318.442 228.676C317.483 231.068 317.481 231.067 317.415 228.347C317.339 225.143 315.017 223.937 311.863 225.462C309.761 226.479 309.774 226.413 312.052 224.427C315.092 221.778 316.973 221.737 318.34 224.293ZM192.605 225.4C192.605 225.968 192.141 226.432 191.574 226.432C191.007 226.432 190.543 225.968 190.543 225.4C190.543 224.833 191.007 224.369 191.574 224.369C192.141 224.369 192.605 224.833 192.605 225.4ZM241.324 228.051C235.077 231.593 232.98 233.822 233.388 236.488C233.497 237.197 233.643 238.473 233.714 239.324C233.908 241.654 235.538 241.238 242.471 237.089C245.947 235.009 248.879 233.259 248.987 233.198C249.609 232.851 250.133 227.097 249.656 225.852C248.881 223.834 248.656 223.894 241.324 228.051ZM176.625 226.432C176.976 226.999 176.771 227.463 176.171 227.463C175.571 227.463 175.079 226.999 175.079 226.432C175.079 225.865 175.283 225.4 175.533 225.4C175.784 225.4 176.275 225.865 176.625 226.432ZM248.256 229.268C248.239 231.611 247.24 232.686 242.504 235.456C235.544 239.526 234.644 239.596 235.064 236.037C235.312 233.926 236.739 232.462 241.06 229.889C244.178 228.032 247.077 226.494 247.503 226.472C247.929 226.45 248.267 227.709 248.256 229.268ZM316.319 228.355C316.319 231.149 312.408 235.731 310.611 235.042C308.644 234.286 308.699 232.132 310.767 228.974C312.753 225.942 316.319 225.545 316.319 228.355ZM193.636 230.63C193.636 231.294 192.9 231.267 191.574 230.557C190.44 229.95 189.512 228.99 189.512 228.422C189.512 227.758 190.248 227.785 191.574 228.495C192.708 229.102 193.636 230.062 193.636 230.63ZM306.365 229.055C306.029 229.93 305.533 230.425 305.263 230.155C304.993 229.885 305.078 229.168 305.452 228.564C306.468 226.918 307.062 227.237 306.365 229.055ZM182.148 231.514C188.23 234.617 188.652 235.523 187.29 242.52C186.638 245.867 186.001 248.743 185.874 248.909C185.747 249.076 183.382 247.869 180.618 246.229L175.594 243.247L175.877 237.676C176.172 231.838 176.679 229.526 177.664 229.526C177.989 229.526 180.006 230.42 182.148 231.514ZM300.537 236.746C300.706 239.828 300.621 239.978 299.952 237.777C299.299 235.626 298.583 235.229 295.63 235.377C292.291 235.544 292.207 235.47 294.146 234.049C297.64 231.487 300.31 232.613 300.537 236.746ZM308.37 234.683C309.035 237.227 311.873 237.345 314.584 234.941C316.558 233.19 316.583 233.205 315.409 235.444C313.715 238.673 309.191 239.673 307.395 237.216C306.633 236.173 306.01 234.713 306.01 233.97C306.01 231.857 307.77 232.389 308.37 234.683ZM191.574 235.259C191.574 236.143 191.103 236.576 190.527 236.22C189.95 235.863 189.745 235.14 190.072 234.612C190.955 233.181 191.574 233.447 191.574 235.259ZM297.312 241.775C296.301 243.732 294.848 244.997 293.611 244.997C290.813 244.997 290.938 241.168 293.838 238.08C295.773 236.019 296.307 235.879 297.539 237.112C298.771 238.344 298.738 239.017 297.312 241.775ZM198.533 240.902C204.448 244.296 204.628 244.807 202.83 253.191L201.715 258.393L196.902 255.656C189.314 251.342 189.383 251.47 190.664 244.197C191.285 240.666 192.093 237.781 192.457 237.786C192.822 237.793 195.557 239.194 198.533 240.902ZM290.259 241.855C289.969 242.963 290.277 244.615 290.942 245.526C291.928 246.874 292.722 246.977 295.215 246.084L298.277 244.985L295.843 247.054C292.955 249.509 291.245 249.662 289.549 247.618C288.373 246.199 288.931 239.84 290.232 239.84C290.537 239.84 290.548 240.746 290.259 241.855ZM218.379 246.353C218.379 252.16 218.519 251.998 209.873 256.143C208.954 256.584 209.023 250.624 209.976 247.298C210.582 245.186 215.681 240.895 217.605 240.878C218.031 240.874 218.379 243.338 218.379 246.353ZM283.329 244.233C283.329 246.326 282.647 248.013 281.524 248.701C280.533 249.309 277.485 251.108 274.753 252.698L269.785 255.589L270.114 251.639C270.41 248.077 270.997 247.356 276.112 244.284C279.231 242.412 282.13 240.877 282.555 240.875C282.981 240.873 283.329 242.384 283.329 244.233ZM191.574 256.673L203.43 263.438L204.71 268.836C205.416 271.806 205.825 274.402 205.622 274.606C205.418 274.809 198.81 271.311 190.938 266.83C176.092 258.381 174.837 257.152 173.467 249.721L172.722 245.678L176.22 247.793C178.144 248.956 185.053 252.953 191.574 256.673ZM267.864 252.342C267.864 255.089 267.637 255.374 266.318 254.279C263.842 252.223 264.347 250.234 267.607 249.204C267.748 249.159 267.864 250.571 267.864 252.342ZM188.481 252.245C188.481 252.761 187.788 252.917 186.941 252.592C186.093 252.266 185.661 251.577 185.981 251.06C186.649 249.978 188.481 250.847 188.481 252.245ZM263.534 254.486C264.215 255.166 264.764 256.906 264.756 258.353L264.742 260.983L263.407 258.405C262.39 256.442 261.347 255.876 259.039 256.034C256.17 256.231 256.116 256.162 258.01 254.744C260.445 252.924 261.904 252.855 263.534 254.486ZM261.679 259.504C261.679 262.796 259.756 265.625 257.519 265.625C254.966 265.625 254.781 261.933 257.199 259.26C259.472 256.746 261.679 256.867 261.679 259.504ZM207.554 259.436C207.904 260.003 207.44 260.468 206.523 260.468C205.605 260.468 205.141 260.003 205.492 259.436C205.842 258.869 206.306 258.405 206.523 258.405C206.739 258.405 207.203 258.869 207.554 259.436ZM203.945 260.468C203.945 261.035 203.454 261.499 202.854 261.499C202.254 261.499 202.048 261.035 202.399 260.468C202.749 259.9 203.24 259.436 203.491 259.436C203.741 259.436 203.945 259.9 203.945 260.468ZM191.547 268.848C204.773 276.426 208.291 279.154 206.783 280.664C206.501 280.945 204.008 279.801 201.242 278.122C198.476 276.443 191.806 272.557 186.419 269.488C181.032 266.42 176.476 263.134 176.292 262.188C176.109 261.242 176.176 260.468 176.441 260.468C176.706 260.468 183.504 264.238 191.547 268.848ZM247.761 261.499C248.111 262.066 247.906 262.53 247.306 262.53C246.706 262.53 246.214 262.066 246.214 261.499C246.214 260.932 246.419 260.468 246.669 260.468C246.92 260.468 247.41 260.932 247.761 261.499ZM255.903 267.274C256.723 267.588 258.473 267.271 259.794 266.566C261.959 265.412 262.059 265.451 260.813 266.963C257.391 271.113 252.344 269.758 252.465 264.725C252.53 262.058 252.545 262.052 253.471 264.358C253.989 265.647 255.084 266.959 255.903 267.274ZM246.008 264.799C247.506 266.298 247.651 269.75 246.214 269.75C245.647 269.75 245.183 269.039 245.183 268.171C245.183 265.688 242.342 265.226 239.247 267.207L236.42 269.016L238.919 266.289C241.617 263.345 244.044 262.835 246.008 264.799ZM191.215 274.035C199.35 278.661 206 282.954 205.992 283.576C205.941 287.168 204.208 287.107 197.722 283.289C194.057 281.131 187.231 277.137 182.553 274.411C176.73 271.019 174.048 268.852 174.048 267.54C174.048 266.487 174.582 265.625 175.235 265.625C175.889 265.625 183.08 269.41 191.215 274.035ZM234.874 268.719C234.874 269.286 234.382 269.75 233.782 269.75C233.182 269.75 232.977 269.286 233.327 268.719C233.678 268.151 234.169 267.687 234.419 267.687C234.67 267.687 234.874 268.151 234.874 268.719ZM244.152 269.52C244.152 271.979 241.292 275.938 239.515 275.938C237.14 275.938 236.765 274.105 238.467 270.811C240.265 267.332 244.152 266.45 244.152 269.52ZM179.171 276.524L184.144 281.236L182.447 285.281C181.513 287.505 180.436 289.33 180.053 289.336C178.687 289.357 173.017 277.581 173.017 274.723C173.017 273.123 173.282 271.813 173.607 271.813C173.931 271.813 176.434 273.933 179.171 276.524ZM238.745 278.001C239.645 278.001 241.298 277.188 242.417 276.196C244.019 274.776 244.35 274.721 243.969 275.938C243.346 277.929 238.286 280.407 236.357 279.667C235.457 279.321 234.906 277.767 234.955 275.712L235.037 272.329L236.072 275.165C236.642 276.724 237.844 278.001 238.745 278.001ZM228.652 275.87C229.959 278.315 230.024 280.064 228.809 280.064C228.308 280.064 227.64 279.076 227.324 277.869C226.877 276.159 226.168 275.786 224.111 276.179C221.419 276.693 220.424 275.501 222.76 274.558C225.463 273.467 227.623 273.949 228.652 275.87ZM186.95 278.099C193.187 281.621 195.396 283.843 191.445 282.622C187.407 281.374 183.953 279.372 181.876 277.075C179.206 274.124 180.301 274.345 186.95 278.099ZM226.626 280.01C226.626 282.921 223.11 286.706 221.117 285.941C218.664 284.999 219.012 282.431 221.995 279.446C224.75 276.69 226.626 276.919 226.626 280.01ZM194.667 285.221C199.377 286.923 203.393 288.315 203.589 288.315C203.785 288.315 203.945 289.939 203.945 291.925C203.945 293.91 203.533 295.535 203.028 295.535C201.76 295.535 181.985 291.442 181.654 291.111C181.295 290.753 185.175 282.127 185.694 282.127C185.918 282.127 189.956 283.519 194.667 285.221ZM209.642 285.169C208.777 286.843 208.069 289.628 208.069 291.358C208.069 293.088 207.605 294.503 207.038 294.503C205.409 294.503 205.838 286.951 207.612 284.419C209.963 281.061 211.476 281.621 209.642 285.169ZM219.784 287.166C220.68 287.91 221.941 287.776 223.978 286.717C226.607 285.354 226.76 285.363 225.555 286.816C221.561 291.631 217.238 290.57 217.488 284.837C217.588 282.538 217.754 282.257 218.065 283.856C218.306 285.092 219.079 286.581 219.784 287.166Z" fill="black"></path> <path d="M217.823 270.713C218.54 270.262 219.228 269.766 219.882 269.228C219.075 269.49 218.285 269.803 217.517 270.165C216.758 270.508 216.015 270.884 215.285 271.287C214.555 271.69 213.834 272.112 213.131 272.571C212.413 273.022 211.725 273.519 211.072 274.057C211.875 273.797 212.661 273.487 213.425 273.127C214.196 272.777 214.938 272.4 215.668 271.998C216.398 271.595 217.119 271.172 217.823 270.713Z" fill="black"></path> <path d="M216.836 268.647C217.344 268.288 217.823 267.89 218.267 267.456C217.667 267.623 217.081 267.839 216.515 268.1C215.958 268.356 215.413 268.638 214.882 268.944C214.352 269.249 213.835 269.578 213.335 269.934C212.825 270.291 212.346 270.689 211.904 271.125C212.504 270.961 213.089 270.746 213.653 270.482C214.212 270.228 214.758 269.946 215.288 269.637C215.819 269.332 216.336 269.004 216.836 268.647Z" fill="black"></path> <path d="M216.624 266.57C217.134 266.213 217.613 265.815 218.055 265.38C217.456 265.545 216.871 265.761 216.307 266.025C215.746 266.279 215.199 266.563 214.671 266.867C214.142 267.171 213.624 267.503 213.124 267.86C212.615 268.216 212.137 268.614 211.696 269.049C212.295 268.883 212.88 268.668 213.445 268.406C214.005 268.15 214.547 267.868 215.078 267.563C215.609 267.258 216.124 266.927 216.624 266.57Z" fill="black"></path> <path d="M216.302 264.344C216.812 263.987 217.291 263.589 217.733 263.153C217.133 263.319 216.548 263.535 215.984 263.798C215.423 264.053 214.881 264.334 214.35 264.639C213.82 264.945 213.303 265.273 212.803 265.629C212.293 265.987 211.815 266.386 211.373 266.823C211.972 266.656 212.557 266.441 213.122 266.18C213.682 265.923 214.226 265.644 214.755 265.336C215.285 265.029 215.801 264.7 216.302 264.344Z" fill="black"></path> <path d="M176.16 312L199.01 298.569L217.324 287.729M367.367 200.526L336.762 218.349" stroke="black"></path> <path d="M175.083 310.923L197.933 297.493L216.247 286.652M366.29 199.449L335.685 217.272" stroke="black"></path> <path fill-rule="evenodd" clip-rule="evenodd" d="M116.468 95.9268C109.074 100.278 99.687 105.682 95.6077 107.937C91.5283 110.193 79.6378 116.978 69.1845 123.015L50.1783 133.991L49.9113 142.446C49.7648 147.096 49.431 150.9 49.1705 150.9C48.9091 150.9 47.548 150.308 46.1443 149.583C43.7829 148.363 43.2879 148.458 39.469 150.856C34.4866 153.985 31.9945 156.641 29.4375 161.547C28.0264 164.253 25.8161 166.256 21.2268 168.988L14.9474 172.725L13.8061 179.171C13.1784 182.717 12.2096 193.109 11.6523 202.266C10.6612 218.576 10.6789 218.944 12.5507 220.458C15.9589 223.214 41.1295 237 42.7529 237C44.597 237 49.7147 234.147 49.7147 233.118C49.7147 232.731 50.7401 231.743 51.9927 230.923C54.075 229.561 54.4514 229.559 56.3706 230.902C58.9962 232.739 61.111 232.758 64.559 230.977C67.3052 229.559 71.9658 222.732 71.9658 220.128C71.9658 219.34 73.4196 218.006 75.1951 217.165C76.9714 216.323 81.5774 213.773 85.4296 211.499C92.1977 207.504 92.5259 207.41 95.1339 208.757C99.3051 210.912 101.554 210.45 105.352 206.657C109.896 202.119 111.836 196.163 109.901 192.688C109.154 191.346 107.613 189.836 106.478 189.333C105.343 188.83 104.416 188.205 104.417 187.944C104.419 187.545 113.25 182.582 115.695 181.606C116.12 181.436 116.468 181.941 116.468 182.726C116.468 184.773 120.585 188.299 125.857 190.765C130.228 192.809 130.528 192.832 133.64 191.349C137.087 189.708 140.296 185.402 141.189 181.22C141.808 178.316 142.035 178.251 145.209 180.063C149.182 182.331 151.66 181.735 155.913 177.487C161.846 171.563 162.747 163.2 157.699 160.903C154.698 159.538 154.809 158.664 158.204 156.91L161 155.466L160.753 130.271L160.507 105.076L145.673 96.5295C137.514 91.8282 130.63 87.9898 130.375 88C130.12 88.0093 123.862 91.5764 116.468 95.9268ZM144.751 97.4349C152.13 101.635 158.172 105.319 158.178 105.619C158.184 105.92 151.618 109.921 143.587 114.51C135.555 119.101 118.015 129.144 104.609 136.829L80.234 150.802L66.3066 142.855C58.6467 138.483 52.7186 134.588 53.1331 134.199C53.8442 133.53 66.8833 125.944 96.5348 108.947C103.674 104.855 113.895 98.9004 119.249 95.7138C124.604 92.5272 129.514 89.8924 130.16 89.859C130.807 89.8248 137.373 93.2336 144.751 97.4349ZM160.043 123.509V139.631L155.176 142.655C152.499 144.318 147.596 147.206 144.282 149.073C136.949 153.202 97.1856 176.043 88.1906 181.292L81.7007 185.081L81.4467 168.753C81.3076 159.773 81.5162 152.106 81.9103 151.716C82.3052 151.325 86.3827 148.849 90.972 146.212C95.5613 143.576 110.581 134.938 124.349 127.017C155.432 109.134 158.483 107.425 159.348 107.404C159.731 107.395 160.043 114.642 160.043 123.509ZM65.4759 143.922L78.9193 151.706L79.1669 175.374C79.3032 188.392 79.0825 199.042 78.6774 199.042C78.2722 199.042 77.0308 198.405 75.9173 197.626C73.9703 196.265 73.8961 195.63 73.9675 180.918C74.0083 172.507 73.8868 165.498 73.6986 165.344C73.5104 165.188 68.7672 162.456 63.1581 159.27C57.549 156.086 52.6111 153.155 52.1855 152.759C51.366 151.997 50.7763 136.069 51.569 136.112C51.824 136.126 58.0821 139.64 65.4759 143.922ZM159.863 143.57C159.68 144.12 151.197 149.361 141.012 155.216C93.1267 182.744 82.3701 188.858 81.825 188.858C81.5014 188.858 81.2399 188.338 81.2436 187.701C81.2464 187.065 84.063 184.983 87.5018 183.075C97.1133 177.742 102.793 174.492 131.302 158.006C145.835 149.602 158.282 142.69 158.961 142.647C159.642 142.603 160.047 143.019 159.863 143.57ZM160.043 150.732C160.043 154.496 160.09 154.452 149.845 160.168C137.745 166.919 86.2845 196.536 84.5072 197.771C81.6896 199.73 81.2372 199.355 81.2372 195.058V191.074L107.78 175.848C122.379 167.473 139.797 157.465 146.488 153.607C153.178 149.749 158.965 146.753 159.348 146.95C159.731 147.146 160.043 148.848 160.043 150.732ZM58.0645 157.968C70.1181 164.775 71.9584 166.102 70.4694 166.907C66.2186 169.207 61.5532 173.613 59.8594 176.928C58.8479 178.907 57.6565 180.526 57.2106 180.526C56.5449 180.526 39.4366 170.906 31.3983 166.01L29.3058 164.736L31.0813 161.29C33.235 157.11 40.7002 150.246 43.3361 150.022C43.6532 149.997 50.2803 153.571 58.0645 157.968ZM150.5 163.019C146.296 166.48 144.097 170.471 144.097 174.641C144.097 178.404 142.931 178.68 141.73 175.203C140.115 170.524 142.248 166.001 147.527 162.907C153.56 159.371 154.872 159.42 150.5 163.019ZM159.167 164.458C160.905 169.025 157.426 176.371 152.192 179.186C149.097 180.851 148.959 180.851 147.11 179.179C143.669 176.07 145.416 168.966 150.717 164.512C154.618 161.235 157.931 161.214 159.167 164.458ZM151.486 165.682C148.139 168.311 146.536 172.617 147.841 175.476C149.202 178.459 151.698 178.354 154.739 175.184C157.498 172.309 158.296 167.61 156.412 165.343C154.83 163.44 154.292 163.477 151.486 165.682ZM156.147 168.549C156.485 171.433 153.178 175.897 150.704 175.897C148.219 175.897 148.32 171.351 150.877 168.104C153.24 165.105 155.769 165.319 156.147 168.549ZM42.8753 174.237C50.2061 178.415 56.2046 182.077 56.2046 182.373C56.2046 182.669 53.8062 184.343 50.8736 186.092C47.9411 187.842 45.2274 189.771 44.8427 190.38C44.3476 191.163 41.7683 190.066 36.0349 186.633C31.5754 183.962 25.3247 180.35 22.1437 178.606C18.9628 176.861 16.3547 174.938 16.3492 174.33C16.339 173.29 26.9973 166.684 28.7366 166.653C29.1816 166.645 35.5435 170.058 42.8753 174.237ZM72.893 178.586V189.609L66.8666 193.129C63.5521 195.065 60.8403 196.99 60.8403 197.406C60.8403 198.232 64.3365 196.515 68.7209 193.537C70.2507 192.498 71.8147 191.645 72.1976 191.642C72.5805 191.638 72.893 195.846 72.893 200.993C72.893 209.56 72.7558 210.29 71.2705 209.633C64.5303 206.659 55.7754 214.015 53.2999 224.733C52.6825 227.406 51.6626 229.594 51.0331 229.594C50.3823 229.594 50.0791 228.866 50.3294 227.909C50.92 225.656 48.197 223.332 46.709 224.818C43.909 227.614 43.2248 226.005 43.2248 216.632C43.2248 210.94 43.5901 207.374 44.1733 207.374C44.6943 207.374 48.2276 205.604 52.0242 203.44L58.9267 199.505L58.9768 190.71C59.0444 178.739 61.0591 174.49 69.1845 169.177C70.4593 168.344 71.8147 167.64 72.1976 167.613C72.5805 167.587 72.893 172.524 72.893 178.586ZM140.314 169.185C140.034 171.022 139.189 171.581 137.537 171.025C136.669 170.734 136.702 170.28 137.673 169.104C139.332 167.098 140.627 167.138 140.314 169.185ZM131.538 173.817C127.646 177.246 124.812 182.401 124.812 186.051C124.812 188.508 123.256 188.474 122.468 186C121.589 183.23 122.723 178.235 124.599 176.625C126.335 175.133 134.253 170.363 135.011 170.353C135.266 170.349 133.703 171.909 131.538 173.817ZM139.107 173.681C141.051 174.426 141.029 179.751 139.065 183.883C135.973 190.389 128.274 193.276 127.046 188.389C125.045 180.428 132.616 171.195 139.107 173.681ZM131.4 177.657C129.1 179.803 128.521 181.093 128.521 184.075C128.521 186.966 128.93 187.937 130.332 188.382C135.324 189.964 141.334 179.804 137.607 176.082C135.904 174.381 134.541 174.728 131.4 177.657ZM137.576 179.146C137.944 181.882 134.448 187.007 132.214 187.007C129.689 187.007 128.977 184.823 130.391 181.413C132.297 176.817 137.061 175.315 137.576 179.146ZM30.2209 184.783C39.4032 190.102 42.2569 192.19 41.9231 193.346C41.6793 194.188 41.1972 197.289 40.8504 200.239C40.5037 203.189 39.9437 205.48 39.6062 205.331C39.2687 205.182 33.6504 201.987 27.1206 198.232C15.4017 191.492 15.2542 191.366 15.7317 188.511C15.9978 186.92 16.4883 183.848 16.822 181.683C17.1558 179.519 17.5739 177.748 17.7529 177.748C17.9318 177.748 23.5419 180.914 30.2209 184.783ZM121.262 182.378C120.865 186.55 119.579 187.248 118.703 183.768C117.998 180.961 118.761 178.674 120.404 178.674C121.259 178.674 121.513 179.765 121.262 182.378ZM57.8698 192.288L57.5953 198.496L52.2328 201.669C49.2827 203.415 46.6163 204.589 46.3057 204.278C45.9951 203.969 46.1138 201.105 46.569 197.914C47.3728 192.281 47.5304 192.026 52.0224 189.097C54.5655 187.438 56.9834 186.081 57.3951 186.081C57.8067 186.081 58.02 188.874 57.8698 192.288ZM100.228 191.773C96.0518 195.435 94.217 198.934 94.217 203.24C94.217 207.808 91.9965 207.009 91.6025 202.299C91.1148 196.461 92.016 194.768 97.2283 191.734C103.47 188.1 104.403 188.113 100.228 191.773ZM107.938 191.821C111.157 195.035 107.462 205.017 101.957 207.978C97.8142 210.205 95.705 208.95 95.3388 204.039C94.7797 196.529 103.847 187.735 107.938 191.821ZM27.5202 199.968C34.6016 204.041 40.7197 207.373 41.1147 207.372C41.5106 207.371 41.7025 211.538 41.5411 216.63C41.3798 221.723 41.0006 225.89 40.6984 225.89C40.3961 225.89 34.1677 222.453 26.8573 218.252L13.565 210.615L13.5604 201.588C13.5585 196.623 13.8014 192.561 14.1009 192.561C14.3994 192.561 20.4388 195.894 27.5202 199.968ZM99.4404 196.286C95.1515 201.376 97.0076 208.007 102.076 205.701C105.3 204.234 107.373 200.603 107.029 197.025C106.785 194.49 106.307 193.901 104.308 193.669C102.527 193.463 101.233 194.158 99.4404 196.286ZM106.1 197.439C106.501 200.915 101.369 206.298 99.293 204.577C97.2691 202.901 97.6233 200.469 100.364 197.216C103.258 193.781 105.688 193.875 106.1 197.439ZM90.3212 202.417L90.5984 207.165L84.2948 210.741C80.8283 212.709 77.6798 214.457 77.2969 214.626C76.914 214.796 76.5885 213.13 76.5718 210.923C76.5561 208.717 75.9303 206.102 75.1811 205.114C74.4329 204.126 73.8201 202.306 73.8201 201.071C73.8201 199.169 74.1381 198.924 75.9062 199.472C80.5984 200.924 81.824 200.875 84.4821 199.129C88.8109 196.286 90.0032 196.957 90.3212 202.417ZM18.1923 207.936C18.1923 211.424 18.4566 212.1 19.6414 211.646C20.9848 211.131 26.5365 213.321 26.5365 214.365C26.5365 214.62 25.3053 214.193 23.8015 213.416C22.2967 212.639 20.7317 212.013 20.3247 212.024C19.4477 212.049 23.9201 215.656 24.8639 215.686C25.219 215.697 28.0013 217.165 31.047 218.947C34.0917 220.729 36.7915 222.187 37.0455 222.187C37.2995 222.187 37.5072 220.336 37.5072 218.075V213.963L28.4065 208.817C23.4 205.986 19.0546 203.671 18.7486 203.671C18.4427 203.671 18.1923 205.59 18.1923 207.936ZM24.2808 208.401C24.6275 208.96 23.8163 208.702 22.4784 207.827C21.1406 206.951 20.0466 206.061 20.0466 205.847C20.0466 205.176 23.6197 207.333 24.2808 208.401ZM75.6605 211.772C75.6521 214.398 75.3415 215.691 74.89 214.98C74.4747 214.326 74.2373 212.868 74.3634 211.739C74.4895 210.612 74.6276 209.168 74.6703 208.531C74.712 207.895 74.9559 207.374 75.2108 207.374C75.4658 207.374 75.6679 209.353 75.6605 211.772ZM28.909 210.665C30.6057 212.024 30.576 212.042 28.3907 211.003C25.5528 209.654 25.0271 209.226 26.2046 209.226C26.7024 209.226 27.9188 209.874 28.909 210.665ZM71.5079 212.009C74.05 214.815 72.537 215.221 69.6156 212.517C67.9171 210.945 67.523 210.152 68.4418 210.152C69.2021 210.152 70.5817 210.988 71.5079 212.009ZM28.0857 220.369C41.9101 228.381 42.6129 228.675 44.6943 227.312C47.9903 225.156 48.7876 225.562 48.7876 229.394C48.7876 232.308 48.3176 233.175 45.9951 234.545C42.1874 236.791 39.4329 235.869 40.0383 232.551C40.589 229.536 40.0299 228.7 35.7179 226.085C32.077 223.878 31.1721 224.145 31.1721 227.434C31.1721 228.621 30.97 229.594 30.7225 229.594C30.373 229.594 21.6561 224.538 20.2033 223.493C20.0345 223.371 20.3312 222.46 20.8625 221.469C21.5578 220.173 21.5133 219.286 20.7058 218.315C19.1018 216.387 14.7981 213.855 13.1256 213.855C12.3431 213.855 11.7024 213.438 11.7024 212.929C11.7024 211.135 13.7875 212.082 28.0857 220.369ZM70.1635 214.878C72.4544 219.151 68.5661 227.668 63.1461 230.249C60.1125 231.693 59.7667 231.696 58.3519 230.283C56.4846 228.419 56.544 223.231 58.4752 219.5C61.5366 213.589 68.0849 211 70.1635 214.878ZM15.9199 218.41C14.9872 219.917 13.5567 218.688 13.5567 216.38C13.5567 214.541 13.6744 214.502 15.0568 215.882C15.8819 216.706 16.2704 217.844 15.9199 218.41ZM62.3784 216.682C59.2549 219.135 57.2838 225.231 58.9619 227.249C61.1527 229.886 64.4162 228.683 67.6046 224.064C69.5785 221.205 69.6267 218.131 67.7279 216.235C65.8412 214.352 65.2859 214.398 62.3784 216.682ZM67.256 218.345C68.6458 220.939 65.5019 226.27 62.3599 226.646C60.1774 226.908 59.9132 226.628 59.9132 224.058C59.9132 222.233 60.7476 220.344 62.1893 218.905C64.9122 216.185 66.0322 216.062 67.256 218.345ZM19.9038 219.824C20.1078 220.88 19.774 221.325 18.9767 221.059C18.2897 220.832 17.5851 219.902 17.408 218.995C17.204 217.94 17.5378 217.494 18.3351 217.76C19.0221 217.988 19.7267 218.917 19.9038 219.824ZM34.8807 228.259C34.8807 229.787 33.4158 230.045 32.5628 228.668C31.8063 227.446 32.9151 225.713 34.0175 226.393C34.4922 226.686 34.8807 227.525 34.8807 228.259ZM38.5892 230.574C38.5892 231.622 38.172 232.223 37.662 231.908C37.1521 231.593 36.7349 230.736 36.7349 230.002C36.7349 229.268 37.1521 228.668 37.662 228.668C38.172 228.668 38.5892 229.526 38.5892 230.574Z" fill="black"></path> <path d="M137.13 117.533C138.665 117.537 140.192 117.606 141.717 117.698C143.242 117.79 144.763 117.907 146.282 118.045C147.8 118.183 149.317 118.346 150.828 118.54C152.34 118.733 153.851 118.94 155.353 119.218C153.817 119.215 152.29 119.147 150.766 119.054C149.242 118.961 147.72 118.845 146.201 118.704C144.682 118.563 143.166 118.403 141.654 118.209C140.143 118.016 138.631 117.809 137.13 117.533ZM135.369 119.62C137.077 119.667 138.775 119.78 140.47 119.916C141.319 119.977 142.163 120.062 143.011 120.137L145.545 120.395L148.075 120.688C148.917 120.799 149.761 120.896 150.6 121.018C152.282 121.25 153.96 121.507 155.63 121.827C153.922 121.78 152.223 121.668 150.528 121.532C149.68 121.471 148.835 121.386 147.988 121.312L145.45 121.047L142.922 120.759C142.08 120.65 141.237 120.55 140.397 120.429C138.716 120.196 137.039 119.94 135.369 119.62ZM131.514 122.045C133.705 122.146 135.884 122.312 138.062 122.501C139.152 122.591 140.237 122.702 141.325 122.803L144.582 123.143L147.835 123.516C148.918 123.654 150.002 123.778 151.083 123.928C153.246 124.213 155.407 124.522 157.558 124.897C155.368 124.796 153.187 124.631 151.01 124.442C149.92 124.353 148.834 124.24 147.747 124.139L144.49 123.799L141.236 123.425C140.154 123.288 139.07 123.164 137.988 123.014C135.831 122.724 133.667 122.42 131.514 122.045ZM128.488 123.949C131.008 124.137 133.512 124.396 136.016 124.674C137.268 124.807 138.517 124.962 139.766 125.107L143.512 125.578L147.253 126.086C148.498 126.267 149.745 126.437 150.988 126.631C153.475 127.005 155.959 127.405 158.433 127.868C155.912 127.679 153.407 127.422 150.903 127.143C149.651 127.01 148.403 126.855 147.153 126.71L143.407 126.236L139.665 125.728C138.422 125.549 137.179 125.375 135.935 125.181C133.446 124.81 130.966 124.409 128.488 123.949ZM123.731 126.274C126.519 126.451 129.298 126.691 132.075 126.955C133.463 127.08 134.847 127.227 136.235 127.368L140.392 127.818L144.544 128.308C145.925 128.483 147.316 128.642 148.69 128.832C151.451 129.192 154.21 129.576 156.964 130.022C154.175 129.847 151.396 129.606 148.62 129.343C147.231 129.217 145.848 129.07 144.459 128.929L140.303 128.478L136.151 127.987C134.769 127.814 133.386 127.652 132.006 127.465C129.239 127.106 126.48 126.722 123.731 126.274ZM118.762 129.4C121.726 129.584 124.682 129.833 127.634 130.104C129.11 130.233 130.584 130.387 132.063 130.526L136.483 130.987L140.899 131.484C142.369 131.662 143.838 131.83 145.31 132.019C148.248 132.387 151.184 132.779 154.11 133.235C151.146 133.052 148.189 132.804 145.238 132.533C143.76 132.403 142.286 132.249 140.809 132.11L136.388 131.648L131.972 131.15C130.502 130.972 129.032 130.804 127.562 130.616C124.623 130.248 121.688 129.857 118.762 129.4ZM113.957 132.224C116.754 132.519 119.539 132.876 122.319 133.257C123.715 133.44 125.097 133.649 126.486 133.846L130.647 134.471L134.801 135.133C136.184 135.365 137.568 135.585 138.948 135.831C141.71 136.308 144.469 136.808 147.214 137.374C144.417 137.08 141.632 136.723 138.853 136.342C137.457 136.16 136.073 135.948 134.685 135.752L130.524 135.126L126.371 134.464C124.988 134.231 123.603 134.011 122.224 133.766C119.461 133.289 116.702 132.79 113.957 132.224ZM108.963 135.366C111.3 135.675 113.622 136.051 115.939 136.447C117.103 136.645 118.252 136.853 119.409 137.055L122.873 137.704L126.328 138.389C127.477 138.629 128.629 138.857 129.776 139.109C132.072 139.601 134.362 140.116 136.637 140.696C134.3 140.388 131.978 140.013 129.662 139.617C128.498 139.419 127.349 139.211 126.191 139.009L122.729 138.359L119.275 137.678C118.125 137.438 116.974 137.209 115.828 136.957C113.529 136.46 111.238 135.945 108.963 135.366ZM104.637 138.087C106.6 138.286 108.55 138.548 110.494 138.834C111.469 138.97 112.441 139.128 113.408 139.279L116.314 139.762L119.214 140.28C120.177 140.465 121.144 140.638 122.104 140.835C124.03 141.217 125.95 141.621 127.858 142.091C125.895 141.892 123.946 141.63 122.001 141.344C121.027 141.208 120.054 141.049 119.088 140.898L116.181 140.414L113.282 139.897C112.318 139.713 111.353 139.54 110.391 139.343C108.465 138.96 106.543 138.553 104.637 138.087ZM99.1255 141.555C100.804 141.766 102.466 142.044 104.122 142.342C104.952 142.485 105.777 142.652 106.604 142.808L109.07 143.313L111.534 143.849C112.352 144.04 113.17 144.216 113.989 144.423C115.622 144.817 117.25 145.234 118.862 145.716C117.185 145.504 115.522 145.228 113.866 144.929C113.036 144.786 112.212 144.619 111.384 144.464L108.912 143.96L106.453 143.418C105.635 143.227 104.817 143.051 103.999 142.843C102.366 142.452 100.739 142.035 99.1255 141.555ZM95.3096 143.737C96.8176 143.914 98.3093 144.154 99.7962 144.418C101.283 144.682 102.761 144.965 104.239 145.276C105.716 145.588 107.184 145.918 108.647 146.278C110.11 146.639 111.566 147.026 113.011 147.465C111.502 147.289 110.011 147.049 108.524 146.785C107.037 146.522 105.556 146.236 104.081 145.924C102.606 145.613 101.136 145.283 99.673 144.922C98.2098 144.561 96.7522 144.182 95.3096 143.737ZM92.0959 145.977C93.4675 146.121 94.8124 146.334 96.1583 146.567C97.5042 146.8 98.8427 147.059 100.177 147.338C101.512 147.616 102.84 147.92 104.157 148.247C105.474 148.574 106.796 148.926 108.094 149.337C106.723 149.195 105.376 148.981 104.037 148.744C102.698 148.507 101.352 148.254 100.018 147.973C98.6839 147.693 97.355 147.39 96.0345 147.058C94.7139 146.725 93.3929 146.394 92.0959 145.977ZM87.0076 148.05C88.1994 148.163 89.3806 148.335 90.5537 148.533C91.7267 148.73 92.8974 148.949 94.0576 149.195C95.2179 149.44 96.3759 149.703 97.5248 149.999C98.6736 150.296 99.8189 150.607 100.948 150.986C99.7571 150.875 98.5741 150.702 97.4011 150.505C96.228 150.308 95.0573 150.089 93.8982 149.842C92.7391 149.596 91.5804 149.332 90.4315 149.036C89.2827 148.74 88.1349 148.427 87.0076 148.05ZM82.9114 150.219C84.1032 150.332 85.2844 150.504 86.4575 150.701C87.6305 150.899 88.8012 151.118 89.9603 151.364C91.1194 151.611 92.2786 151.873 93.4286 152.168C94.5786 152.464 95.7227 152.776 96.852 153.155C95.6609 153.044 94.4779 152.871 93.3049 152.674C92.1318 152.477 90.9612 152.258 89.8021 152.011C88.643 151.765 87.4796 151.504 86.3319 151.207C85.1842 150.91 84.0401 150.598 82.9114 150.219ZM79.0561 151.931C80.2479 152.044 81.4298 152.217 82.6022 152.413C83.7745 152.61 84.9466 152.831 86.105 153.076C87.2634 153.321 88.4233 153.584 89.5733 153.88C90.7232 154.176 91.8681 154.488 92.9967 154.867C91.8056 154.756 90.6226 154.583 89.4496 154.386C88.2765 154.189 87.1058 153.97 85.9467 153.723C84.7877 153.477 83.6277 153.214 82.4782 152.916C81.3287 152.619 80.1848 152.31 79.0561 151.931Z" fill="black"></path> <path d="M170.087 285.077L191.087 301.231" stroke="black" stroke-width="3"></path> </svg> 