<?xml version="1.0" encoding="UTF-8"?> <svg xmlns="http://www.w3.org/2000/svg" width="317" height="171" viewBox="0 0 317 171" fill="none"> <path fill-rule="evenodd" clip-rule="evenodd" d="M166.487 27.568C165.714 28.4244 162.295 34.9931 158.89 42.1651C155.485 49.3371 152.408 55.2051 152.053 55.2051C151.697 55.2051 148.899 53.5685 145.834 51.5683C140.024 47.7766 136.396 47.3873 135.23 50.4306C134.942 51.1817 135.819 55.4281 137.178 59.8665C139.198 66.4617 139.421 68.0098 138.401 68.3363C137.715 68.5557 131.703 71.514 125.041 74.9094L112.927 81.0835L108.262 78.1331C96.2323 70.5285 75.5395 56.4286 59.8821 45.1694C50.4109 38.3584 41.0306 31.6234 39.0365 30.2026L35.4114 27.6202L30.8678 29.9275C28.3687 31.1952 26.3243 32.4806 26.3243 32.7832C26.3243 33.5661 34.3932 44.0344 49.9702 63.4609L63.4605 80.2846L59.4635 82.8891C56.3912 84.8911 55.4675 86.0323 55.4701 87.8211C55.4737 90.5716 58.4144 95.731 60.4164 96.5006C61.19 96.7979 64.7198 96.1309 68.2601 95.0188L74.697 92.9965L77.4196 95.9964C78.9165 97.6463 80.1537 99.2882 80.1678 99.6448C80.182 100.001 78.1614 101.325 75.6773 102.586C73.194 103.847 67.196 107.237 62.3486 110.12C57.5022 113.004 53.3869 115.363 53.2041 115.363C52.4906 115.363 23.9125 131.675 20.5841 133.982C15.4259 137.559 11.3045 142.242 5.63322 150.97C-1.59584 162.095 -1.83516 167.096 4.73069 169.845C8.71789 171.514 12.5956 171.383 17.9348 169.397C20.3633 168.495 25.5613 166.604 29.4867 165.195C36.0146 162.851 45.9256 157.165 64.7392 144.971C76.8112 137.146 107.678 117.919 108.959 117.427C110.192 116.953 122.582 121.415 122.582 122.333C122.582 122.607 120.355 125.086 117.633 127.842C113.143 132.387 112.739 133.109 113.29 135.623C114.03 138.996 119.068 144.557 121.383 144.557C123.412 144.557 135.824 137.593 140.523 133.817C142.4 132.309 144.551 131.295 145.38 131.526C146.198 131.755 161.896 137.975 180.265 145.349L213.662 158.756L219.342 153.76C222.466 151.012 225.012 148.514 225 148.209C224.988 147.904 206.113 136.307 183.055 122.44C159.998 108.573 141.131 97.0067 141.13 96.7369C141.128 96.467 143.817 94.1979 147.105 91.6942C150.392 89.1906 154.879 85.4175 157.076 83.3084L161.07 79.4752L172.514 80.558C189.778 82.1902 194.609 81.7523 179.542 79.9202C159.829 77.5218 154.416 77.106 156.847 78.1738L158.879 79.0673L155.964 81.5966C149.362 87.3266 145.327 89.7444 144.087 88.7138C142.651 87.5195 140.244 89.1358 140.244 91.2944C140.244 92.0481 139.669 93.3017 138.965 94.0811C138.26 94.8605 137.962 95.9194 138.302 96.4334C138.856 97.273 184.722 125.26 209.568 139.92C214.911 143.072 220.222 146.241 221.37 146.961L223.46 148.27L219.196 152.606C216.852 154.991 214.49 156.942 213.949 156.942C212.578 156.942 118.296 118.877 100.146 110.996C94.8759 108.707 92.4535 109.139 97.4139 111.483C99.3567 112.4 101.189 113.484 101.487 113.89C101.784 114.297 102.29 114.566 102.613 114.487C102.935 114.409 103.685 114.524 104.28 114.743C105.129 115.056 105.123 115.395 104.258 116.314C103.349 117.278 103.154 117.213 103.154 115.94C103.154 114.482 103.032 114.484 100.974 115.985C99.7753 116.859 98.7818 118.026 98.766 118.578C98.7509 119.13 97.738 120.239 96.5149 121.042C94.5377 122.34 94.2339 122.352 93.7711 121.144C93.1856 119.616 91.1757 119.331 90.3553 120.661C90.0436 121.165 90.4886 121.341 91.4071 121.076C92.3052 120.816 92.133 121.072 91.0114 121.663C89.919 122.239 89.0245 123.4 89.0245 124.243C89.0245 125.086 88.0239 126.432 86.8008 127.235C84.7882 128.556 84.5259 128.562 84.042 127.299C83.5598 126.038 83.3611 126.035 81.9994 127.269C81.1702 128.021 80.2261 128.37 79.9011 128.045C79.5762 127.72 79.3051 128.415 79.2998 129.591C79.2918 131.055 78.3169 132.36 76.2089 133.728C73.7097 135.349 73.1286 135.469 73.1286 134.364C73.1286 133.613 72.4752 132.749 71.6759 132.442C69.9521 131.78 67.83 134.303 67.83 137.016C67.83 138.12 66.7986 139.478 65.2735 140.38C63.0472 141.698 62.6515 141.722 62.21 140.571C61.9318 139.844 61.1176 139.249 60.4014 139.249C58.7579 139.249 56.3409 142.621 56.914 144.115C57.1507 144.735 56.0786 146.144 54.5305 147.248C51.9801 149.068 51.6401 149.118 50.8983 147.791C50.4488 146.985 49.5657 146.326 48.9361 146.326C47.1752 146.326 44.5921 149.635 45.1723 151.148C45.5141 152.041 44.6027 153.238 42.4797 154.683C39.5858 156.653 39.1672 156.728 38.2302 155.444C37.3118 154.186 36.8614 154.164 34.3534 155.26C32.2313 156.188 31.6017 156.96 31.856 158.322C32.1289 159.781 31.3906 160.473 28.1567 161.787C25.9348 162.69 21.9309 164.42 19.2595 165.633C6.17633 171.574 -2.57873 166.912 3.35394 157.163C5.38331 153.828 5.75068 153.723 7.67584 155.916C9.6425 158.158 13.2129 158.88 16.5545 157.714C19.2904 156.758 19.3142 156.705 17.5418 155.461C16.5439 154.761 15.7271 153.502 15.7271 152.663C15.7271 151.78 14.6099 150.715 13.0778 150.136C9.22126 148.678 9.68136 146.127 14.7724 140.734C19.3495 135.886 24.8583 132.353 45.7525 120.86C60.4482 112.778 80.3127 101.35 81.3159 100.399C81.6912 100.045 78.0917 95.1542 73.3167 89.5303C58.5248 72.1076 28.1223 34.0562 28.1011 32.9406C28.0958 32.616 29.8373 31.6818 31.9717 30.8652L35.8538 29.3798L55.5947 43.4948C66.4524 51.2577 83.7568 63.2335 94.0484 70.1074L112.76 82.606L126.465 75.6269C134.003 71.7883 140.641 68.4902 141.217 68.2982C141.935 68.0576 141.244 65.2222 139.012 59.2525C137.223 54.4691 135.948 50.3678 136.177 50.1377C137.192 49.1213 138.465 51.2843 141.194 58.6606C143.616 65.209 144.481 66.6342 146.24 66.9712C148.108 67.3295 148.656 66.7315 150.831 61.9552C157.992 46.2337 167.001 28.3439 167.321 29.2073C167.522 29.7496 163.703 38.6786 158.834 49.0496C153.964 59.4215 150.079 68.0063 150.2 68.1275C150.321 68.2487 153.158 67.7728 156.504 67.0703C159.85 66.3679 162.721 65.9264 162.885 66.0901C163.049 66.2538 161.947 68.0709 160.438 70.1269C158.928 72.1828 157.841 73.9708 158.021 74.0999C158.2 74.2291 166.594 75.4632 176.672 76.8424C189.588 78.61 194.997 79.6813 194.997 80.474C194.997 81.0923 194.5 81.7983 193.893 82.0442C193.169 82.3362 193.269 82.514 194.181 82.56C196.062 82.6547 199.981 78.4021 198.915 77.4236C198.46 77.0069 190.835 73.9398 181.971 70.609C168.231 65.4452 165.862 64.2871 165.91 62.754C165.94 61.765 167.473 53.3916 169.315 44.1468C171.158 34.902 172.5 27.0399 172.298 26.6745C171.613 25.4342 167.9 26.0048 166.487 27.568ZM66.0744 88.3688C63.5558 91.0555 62.0263 91.1838 60.7608 88.8146C59.7823 86.9816 59.8477 86.9259 65.1807 85.0796C67.6976 84.2073 68.2098 86.0916 66.0744 88.3688ZM60.7652 91.9711C60.7652 92.7293 60.3678 93.1044 59.8821 92.8036C59.3964 92.5028 58.999 91.8827 58.999 91.4244C58.999 90.9662 59.3964 90.5919 59.8821 90.5919C60.3678 90.5919 60.7652 91.213 60.7652 91.9711ZM134.675 92.9266C133.97 93.6334 134.767 95.0153 135.881 95.0153C136.338 95.0153 136.712 94.4181 136.712 93.6883C136.712 92.3206 135.67 91.9304 134.675 92.9266ZM132.884 126.679L135.678 128.19L129.793 132.869L123.907 137.547L121.522 134.723L119.136 131.9L123.729 128.573C129.058 124.712 129.194 124.684 132.884 126.679ZM120.463 138.895C119.918 140.318 119.75 140.33 118.456 139.032C117.61 138.185 117.281 136.994 117.637 136.064C118.182 134.641 118.35 134.629 119.644 135.927C120.49 136.774 120.819 137.965 120.463 138.895Z" fill="black"></path> <path d="M217.177 134.45C222.032 132.521 226.867 130.595 231.557 128.659C240.927 124.793 249.835 120.871 258.196 116.928C262.384 114.953 266.433 112.972 270.48 110.983C258.084 118.666 237.745 127.561 217.176 134.45L217.177 134.45Z" fill="black"></path> <path d="M241.809 130.06C246.664 128.131 251.499 126.204 256.188 124.269C265.559 120.402 274.467 116.481 282.827 112.538C287.016 110.562 291.064 108.582 295.112 106.593C282.716 114.276 262.377 123.171 241.808 130.06L241.809 130.06Z" fill="black"></path> <path d="M260.769 128.467C265.624 126.538 270.459 124.611 275.148 122.676C284.519 118.809 293.427 114.888 301.787 110.945C305.976 108.969 310.024 106.989 314.072 105C301.676 112.683 281.337 121.578 260.768 128.467L260.769 128.467Z" fill="black"></path> <path d="M138.933 0.000163237C133.91 1.43478 128.906 2.86868 124.047 4.32633C114.337 7.2381 105.082 10.2509 96.37 13.339C92.005 14.8865 87.7792 16.4532 83.5537 18.0279C96.6547 11.621 117.78 4.80108 138.934 0.000104237L138.933 0.000163237Z" fill="black"></path> <path d="M113.985 1.90959C108.962 3.3442 103.959 4.77811 99.1 6.23575C89.3899 9.14752 80.1351 12.1603 71.4227 15.2484C67.0577 16.796 62.8319 18.3626 58.6064 19.9373C71.7074 13.5305 92.8324 6.71051 113.987 1.90953L113.985 1.90959Z" fill="black"></path> <path d="M94.9609 1.60173C89.938 3.03634 84.9346 4.47025 80.0756 5.92789C70.3655 8.83966 61.1107 11.8524 52.3983 14.9405C48.0333 16.4881 43.8075 18.0548 39.582 19.6295C52.683 13.2226 73.808 6.40265 94.9625 1.60167L94.9609 1.60173Z" fill="black"></path> </svg> 