<svg width="315" height="286" viewBox="0 0 315 286" fill="none" xmlns="http://www.w3.org/2000/svg">
<g clip-path="url(#clip0_1_12)">
<path d="M315 224.502H-23V224.671H315V224.502Z" fill="#EBEBEB"/>
<path d="M281.132 235.379H258.743V235.548H281.132V235.379Z" fill="#EBEBEB"/>
<path d="M200.905 237.218H195.03V237.387H200.905V237.218Z" fill="#EBEBEB"/>
<path d="M258.067 229.106H245.095V229.275H258.067V229.106Z" fill="#EBEBEB"/>
<path d="M41.6594 230.242H12.463V230.411H41.6594V230.242Z" fill="#EBEBEB"/>
<path d="M51.9616 230.242H47.6826V230.411H51.9616V230.242Z" fill="#EBEBEB"/>
<path d="M129.201 233.094H65.8737V233.263H129.201V233.094Z" fill="#EBEBEB"/>
<path d="M129.161 43.0708L136.144 42.05L129.161 41.0292L130.885 38.2982L128.154 40.022L127.133 33.0457L126.112 40.022L123.381 38.2982L125.112 41.0292L118.129 42.05L125.112 43.0708L123.381 45.8018L126.112 44.0712L127.133 51.0543L128.154 44.0712L130.885 45.8018L129.161 43.0708Z" fill="#F5F5F5"/>
<path d="M199.357 61.7081L206.333 60.6873L199.357 59.6666L201.08 56.9355L198.349 58.6593L197.329 51.6762L196.308 58.6593L193.577 56.9355L195.307 59.6666L188.324 60.6873L195.307 61.7081L193.577 64.4391L196.308 62.7086L197.329 69.6916L198.349 62.7086L201.08 64.4391L199.357 61.7081Z" fill="#F5F5F5"/>
<path d="M101.181 91.9929L108.164 90.9721L101.181 89.9446L102.912 87.2203L100.181 88.9441L99.16 81.961L98.1392 88.9441L95.4082 87.2203L97.1387 89.9446L90.1556 90.9721L97.1387 91.9929L95.4082 94.7239L98.1392 92.9934L99.16 99.9764L100.181 92.9934L102.912 94.7239L101.181 91.9929Z" fill="#F5F5F5"/>
<path d="M42.1596 91.9929L49.136 90.9721L42.1596 89.9446L43.8834 87.2203L41.1524 88.9441L40.1316 81.961L39.1109 88.9441L36.3798 87.2203L38.1104 89.9446L31.1273 90.9721L38.1104 91.9929L36.3798 94.7239L39.1109 92.9934L40.1316 99.9764L41.1524 92.9934L43.8834 94.7239L42.1596 91.9929Z" fill="#F5F5F5"/>
<path d="M75.5946 133.56L82.5777 132.539L75.5946 131.512L77.3252 128.788L74.5941 130.511L73.5734 123.528L72.5458 130.511L69.8216 128.788L71.5454 131.512L64.5623 132.539L71.5454 133.56L69.8216 136.291L72.5458 134.561L73.5734 141.544L74.5941 134.561L77.3252 136.291L75.5946 133.56Z" fill="#F5F5F5"/>
<path d="M212.762 111.178L219.745 110.157L212.762 109.136L214.492 106.405L211.761 108.136L210.741 101.153L209.72 108.136L206.989 106.405L208.713 109.136L201.736 110.157L208.713 111.178L206.989 113.909L209.72 112.185L210.741 119.168L211.761 112.185L214.492 113.909L212.762 111.178Z" fill="#F5F5F5"/>
<path d="M262.015 173.052L268.991 172.025L262.015 171.004L263.739 168.279L261.008 170.003L259.987 163.02L258.966 170.003L256.235 168.279L257.966 171.004L250.983 172.025L257.966 173.052L256.235 175.776L258.966 174.053L259.987 181.036L261.008 174.053L263.739 175.776L262.015 173.052Z" fill="#F5F5F5"/>
<path d="M203.757 170.902L210.741 169.882L203.757 168.854L205.488 166.13L202.757 167.854L201.736 160.871L200.709 167.854L197.984 166.13L199.708 168.854L192.725 169.882L199.708 170.902L197.984 173.633L200.709 171.903L201.736 178.886L202.757 171.903L205.488 173.633L203.757 170.902Z" fill="#F5F5F5"/>
<path d="M75.5946 185.45L82.5777 184.422L75.5946 183.402L77.3252 180.671L74.5941 182.401L73.5734 175.418L72.5458 182.401L69.8216 180.671L71.5454 183.402L64.5623 184.422L71.5454 185.45L69.8216 188.174L72.5458 186.45L73.5734 193.433L74.5941 186.45L77.3252 188.174L75.5946 185.45Z" fill="#F5F5F5"/>
<path d="M151.469 153.712L158.452 152.691L151.469 151.67L153.199 148.939L150.468 150.663L149.448 143.687L148.427 150.663L145.696 148.939L147.42 151.67L140.437 152.691L147.42 153.712L145.696 156.443L148.427 154.712L149.448 161.695L150.468 154.712L153.199 156.443L151.469 153.712Z" fill="#F5F5F5"/>
<path d="M111.855 228.903L118.838 227.882L111.855 226.862L113.579 224.131L110.848 225.854L109.827 218.878L108.806 225.854L106.075 224.131L107.806 226.862L100.823 227.882L107.806 228.903L106.075 231.634L108.806 229.904L109.827 236.887L110.848 229.904L113.579 231.634L111.855 228.903Z" fill="#F5F5F5"/>
<path d="M189.534 224.347L196.517 223.326L189.534 222.305L191.258 219.574L188.534 221.305L187.506 214.322L186.486 221.305L183.755 219.574L185.485 222.305L178.502 223.326L185.485 224.347L183.755 227.078L186.486 225.347L187.506 232.33L188.534 225.347L191.258 227.078L189.534 224.347Z" fill="#F5F5F5"/>
<path d="M190.413 98.3C186.263 92.1551 184.485 82.5154 180.679 78.696C183.625 76.4341 186.752 74.4174 190.028 72.666C192.36 79.3787 193.746 89.7959 199.762 92.27C196.816 94.5319 193.689 96.5486 190.413 98.3Z" fill="#EBEBEB"/>
<path d="M197.444 93.4192C196.862 93.0339 197.011 92.2768 197.721 91.8036C193.557 88.4574 192.063 80.6699 190.177 74.8428C190.023 74.9125 189.856 74.9483 189.687 74.9478C189.519 74.9474 189.352 74.9106 189.199 74.8401C189.046 74.7696 188.909 74.6669 188.799 74.539C188.689 74.4112 188.608 74.2612 188.561 74.0992C186.584 75.1944 184.666 76.3925 182.815 77.6887C182.959 78.0296 182.969 78.4122 182.844 78.7603C182.719 79.1085 182.467 79.3968 182.139 79.568C184.958 83.5496 186.675 90.8978 189.758 96.3869C190.104 96.2581 190.483 96.2459 190.836 96.3521C191.19 96.4582 191.5 96.6769 191.718 96.975C193.687 95.8907 195.599 94.7038 197.444 93.4192ZM187.304 86.5984C186.688 84.9557 187.256 83.1711 188.514 82.5897C189.771 82.0084 191.218 82.975 191.792 84.6583C192.367 86.3415 191.921 88.0856 190.67 88.6399C189.419 89.1942 187.912 88.2546 187.324 86.5984H187.304Z" fill="#E0E0E0"/>
<path d="M96.0098 78.1349C90.0678 81.3391 81.0567 81.738 77.2981 84.9287C75.4124 81.7318 73.7674 78.3989 72.3768 74.9577C78.7245 73.6057 88.4251 73.7003 91.0885 68.1639C92.9796 71.3579 94.6248 74.6912 96.0098 78.1349Z" fill="#EBEBEB"/>
<path d="M91.9944 70.584C91.6023 71.1045 90.906 70.8544 90.5207 70.0905C87.1407 73.6936 79.8737 74.0789 74.3643 75.1132C74.424 75.2612 74.4505 75.4205 74.4418 75.5798C74.4331 75.7392 74.3895 75.8947 74.314 76.0353C74.2386 76.1759 74.1331 76.2982 74.0051 76.3935C73.8771 76.4888 73.7297 76.5548 73.5734 76.5868C74.3778 78.5067 75.331 80.5279 76.4937 82.6708C77.0142 82.4072 77.7781 82.8196 78.1837 83.5902C82.0436 81.3932 88.9321 80.7307 94.2116 78.4796C94.1079 78.1424 94.1178 77.7804 94.2399 77.4494C94.3621 77.1184 94.5897 76.8367 94.8876 76.6477C94.09 74.7346 93.1503 72.7201 92.0011 70.5637L91.9944 70.584ZM85.018 79.568C84.3062 79.7602 83.5491 79.6897 82.885 79.3694C82.2209 79.0492 81.6943 78.5006 81.4014 77.8239C80.9485 76.4719 81.9422 75.2484 83.5308 74.9104C85.1194 74.5724 86.7013 75.2551 87.1272 76.553C87.5531 77.851 86.5796 79.1759 85.018 79.568Z" fill="#E0E0E0"/>
<path d="M154.984 69.1441C149.934 64.6487 146.473 56.3001 142.187 53.8868C144.544 51.0184 147.113 48.3316 149.873 45.8491C153.314 51.3518 156.552 60.498 162.663 61.0997C160.309 63.9698 157.742 66.6589 154.984 69.1441Z" fill="#EBEBEB"/>
<path d="M160.696 62.7762C160.081 62.5869 160.074 61.85 160.662 61.2281C156.14 59.288 153.267 52.5888 150.408 47.796C150.289 47.9039 150.148 47.9841 149.995 48.0309C149.842 48.0777 149.68 48.0899 149.522 48.0667C149.363 48.0434 149.212 47.9852 149.079 47.8963C148.946 47.8074 148.834 47.69 148.751 47.5526C147.224 48.9722 145.648 50.5541 144.019 52.3928C144.445 52.7916 144.317 53.6502 143.729 54.2924C147.109 57.1721 150.097 63.4184 154.024 67.6028C154.306 67.3906 154.648 67.2758 155.001 67.2758C155.353 67.2758 155.696 67.3906 155.978 67.6028C157.499 66.1967 159.067 64.6216 160.71 62.8032L160.696 62.7762ZM149.88 59.288C149.455 58.6849 149.262 57.9487 149.337 57.2147C149.411 56.4806 149.748 55.7982 150.286 55.2928C151.367 54.4208 152.882 54.921 153.754 56.3001C154.626 57.6791 154.511 59.3962 153.436 60.2412C152.361 61.0862 150.779 60.64 149.901 59.288H149.88Z" fill="#E0E0E0"/>
<path d="M170.829 139.644C168.524 133.296 169.444 124.326 166.841 120.142C170.278 118.749 173.815 117.614 177.42 116.748C177.833 123.224 176.319 132.81 181.409 136.257C177.972 137.65 174.436 138.782 170.829 139.644Z" fill="#EBEBEB"/>
<path d="M178.881 136.771C178.428 136.305 178.779 135.662 179.557 135.419C176.488 131.552 177.17 124.299 176.954 118.702C176.798 118.741 176.635 118.745 176.478 118.714C176.32 118.682 176.171 118.617 176.042 118.521C175.912 118.425 175.806 118.302 175.73 118.16C175.654 118.019 175.61 117.862 175.602 117.701C173.574 118.222 171.445 118.864 169.133 119.695C169.315 120.25 168.795 120.946 167.97 121.23C169.579 125.374 169.227 132.289 170.674 137.832C171.022 137.784 171.377 137.848 171.686 138.016C171.995 138.184 172.242 138.446 172.391 138.765C174.419 138.252 176.535 137.616 178.84 136.791L178.881 136.771ZM171.053 128.564C170.963 127.833 171.142 127.093 171.556 126.483C171.969 125.872 172.59 125.433 173.304 125.245C174.656 124.988 175.764 126.151 175.872 127.774C175.981 129.396 175.068 130.856 173.723 131.093C172.378 131.329 171.174 130.167 171.053 128.564Z" fill="#E0E0E0"/>
<path d="M260.623 113.78C255.573 109.285 252.112 100.936 247.826 98.523C250.184 95.6563 252.754 92.9696 255.512 90.4854C258.96 95.988 262.198 105.134 268.309 105.736C265.952 108.606 263.383 111.295 260.623 113.78Z" fill="#EBEBEB"/>
<path d="M266.328 107.419C265.706 107.223 265.706 106.486 266.294 105.864C261.758 103.904 258.892 97.2251 256.046 92.412C255.928 92.5199 255.787 92.6001 255.634 92.6469C255.48 92.6937 255.319 92.7059 255.16 92.6827C255.002 92.6594 254.85 92.6012 254.717 92.5123C254.584 92.4234 254.472 92.306 254.39 92.1686C252.862 93.5882 251.287 95.1701 249.658 97.0088C250.084 97.4076 249.955 98.2662 249.367 98.9084C252.747 101.788 255.735 108.034 259.663 112.219C259.945 112.008 260.287 111.893 260.639 111.893C260.992 111.893 261.334 112.008 261.616 112.219C263.137 110.813 264.706 109.238 266.348 107.419H266.328ZM255.512 103.904C255.086 103.302 254.892 102.567 254.967 101.834C255.042 101.101 255.379 100.419 255.918 99.9156C256.992 99.0368 258.513 99.537 259.379 100.916C260.244 102.295 260.143 104.012 259.068 104.857C257.993 105.702 256.418 105.256 255.512 103.904Z" fill="#E0E0E0"/>
<path d="M256.621 103.478L256.33 103.701L256.161 103.438L256.445 103.214C256.268 102.922 256.165 102.59 256.147 102.248L256.499 102.187C256.509 102.471 256.585 102.749 256.722 102.998L257.229 102.606C257.074 102.187 256.918 101.721 257.276 101.443C257.533 101.241 257.919 101.315 258.277 101.802L258.568 101.579L258.737 101.849L258.453 102.065C258.592 102.309 258.684 102.578 258.723 102.856L258.378 102.917C258.345 102.696 258.276 102.481 258.175 102.282L257.662 102.68C257.824 103.1 257.993 103.566 257.662 103.836C257.33 104.107 256.986 103.965 256.621 103.478ZM257.54 102.363L258 102.018C257.824 101.802 257.668 101.775 257.554 101.862C257.439 101.95 257.466 102.14 257.54 102.363ZM257.337 103.431C257.466 103.336 257.432 103.147 257.337 102.917L256.884 103.269C257.08 103.485 257.229 103.519 257.337 103.431Z" fill="#E0E0E0"/>
<path d="M140.876 100.45C136.34 106.297 132.196 112.557 130.364 119.242C127.309 117.978 124.172 116.707 121.11 115.227C123.509 108.271 127.653 102.167 131.621 96.4342C134.677 97.6983 137.814 98.9692 140.876 100.45Z" fill="#EBEBEB"/>
<path d="M133.041 97.5969C132.813 97.9029 132.493 98.1269 132.127 98.2354C131.762 98.3438 131.371 98.3309 131.013 98.1986C127.741 102.978 124.469 108.021 122.266 113.611C122.599 113.79 122.857 114.081 122.994 114.433C123.132 114.785 123.14 115.174 123.016 115.531C124.929 116.41 126.862 117.228 128.776 118.026C128.823 117.859 128.906 117.705 129.019 117.573C129.131 117.442 129.271 117.336 129.428 117.263C129.585 117.19 129.756 117.151 129.929 117.15C130.102 117.149 130.274 117.184 130.432 117.255C132.291 111.813 135.556 106.676 139.179 101.815C139.021 101.745 138.882 101.639 138.773 101.506C138.664 101.373 138.587 101.215 138.55 101.047C138.512 100.879 138.515 100.704 138.557 100.537C138.6 100.37 138.681 100.215 138.794 100.085C136.874 99.2058 134.947 98.3878 133.034 97.5902L133.041 97.5969ZM132.48 108.636C132.12 109.301 131.527 109.811 130.815 110.068C130.104 110.325 129.322 110.311 128.62 110.029C128.293 109.872 128.003 109.648 127.768 109.371C127.534 109.094 127.361 108.771 127.26 108.422C127.159 108.074 127.133 107.708 127.183 107.349C127.234 106.989 127.359 106.645 127.552 106.338C127.938 105.673 128.552 105.17 129.28 104.921C130.008 104.673 130.801 104.696 131.513 104.986C131.84 105.138 132.128 105.36 132.359 105.637C132.59 105.913 132.758 106.237 132.85 106.585C132.942 106.933 132.957 107.297 132.893 107.652C132.829 108.006 132.688 108.342 132.48 108.636Z" fill="#E0E0E0"/>
<path d="M131.446 107.852L131.811 108.021L131.655 108.291L131.29 108.122C131.114 108.41 130.861 108.644 130.56 108.798L130.31 108.494C130.563 108.368 130.78 108.18 130.939 107.946L130.263 107.642C129.965 107.967 129.621 108.318 129.168 108.102C128.836 107.946 128.681 107.561 128.931 107.02L128.566 106.851L128.721 106.581L129.086 106.75C129.237 106.514 129.441 106.318 129.681 106.175L129.931 106.459C129.74 106.578 129.572 106.731 129.438 106.912L130.114 107.216C130.418 106.892 130.79 106.54 131.229 106.757C131.561 106.926 131.703 107.284 131.446 107.852ZM129.891 107.473L129.31 107.203C129.208 107.453 129.269 107.608 129.411 107.676C129.553 107.744 129.722 107.642 129.891 107.473ZM131.006 107.21C130.844 107.135 130.682 107.243 130.513 107.419L131.094 107.683C131.196 107.426 131.128 107.284 131.006 107.21Z" fill="#E0E0E0"/>
<path d="M256.141 135.115C251.598 140.962 247.461 147.222 245.629 153.908C242.573 152.644 239.437 151.373 236.374 149.892C238.774 142.936 242.918 136.832 246.879 131.099C249.942 132.364 253.078 133.648 256.141 135.115Z" fill="#EBEBEB"/>
<path d="M248.306 132.255C248.08 132.563 247.76 132.789 247.394 132.899C247.028 133.009 246.636 132.997 246.278 132.864C243.006 137.636 239.734 142.686 237.53 148.277C237.865 148.452 238.126 148.741 238.264 149.092C238.403 149.444 238.412 149.833 238.288 150.19C240.201 151.075 242.134 151.886 244.047 152.691C244.094 152.524 244.176 152.369 244.289 152.237C244.401 152.104 244.541 151.998 244.698 151.925C244.855 151.852 245.027 151.813 245.2 151.813C245.374 151.812 245.545 151.849 245.703 151.92C247.562 146.512 250.827 141.341 254.451 136.48C254.293 136.411 254.154 136.305 254.045 136.171C253.935 136.038 253.859 135.881 253.821 135.712C253.784 135.544 253.786 135.369 253.829 135.202C253.871 135.035 253.952 134.88 254.065 134.75C252.152 133.878 250.226 133.06 248.313 132.262L248.306 132.255ZM247.711 143.315C247.351 143.98 246.758 144.49 246.046 144.747C245.335 145.003 244.553 144.989 243.851 144.707C243.523 144.551 243.232 144.328 242.997 144.051C242.762 143.774 242.588 143.451 242.487 143.102C242.386 142.753 242.361 142.387 242.412 142.027C242.463 141.668 242.589 141.323 242.783 141.016C243.178 140.367 243.793 139.881 244.516 139.645C245.239 139.409 246.022 139.44 246.724 139.732C247.042 139.884 247.323 140.103 247.549 140.373C247.776 140.643 247.941 140.959 248.035 141.298C248.128 141.638 248.148 141.994 248.092 142.342C248.036 142.69 247.906 143.021 247.711 143.315Z" fill="#E0E0E0"/>
<path d="M246.724 142.517L247.089 142.686C247.035 142.774 246.981 142.862 246.934 142.957L246.569 142.788C246.386 143.073 246.132 143.306 245.832 143.464L245.588 143.159C245.84 143.031 246.056 142.843 246.217 142.612L245.541 142.308C245.244 142.632 244.899 142.984 244.446 142.767C244.115 142.612 243.959 142.226 244.209 141.686L243.844 141.517C243.892 141.422 243.946 141.334 244 141.246L244.365 141.415C244.515 141.178 244.719 140.979 244.96 140.834L245.203 141.125C245.015 141.245 244.85 141.398 244.716 141.577L245.392 141.882C245.696 141.557 246.068 141.206 246.508 141.422C246.825 141.591 246.961 141.97 246.724 142.517ZM245.169 142.139L244.588 141.868C244.486 142.118 244.547 142.274 244.689 142.341C244.831 142.409 244.987 142.308 245.156 142.139H245.169ZM246.285 141.875C246.122 141.801 245.96 141.909 245.791 142.078L246.366 142.348C246.46 142.091 246.413 141.936 246.271 141.875H246.285Z" fill="#E0E0E0"/>
<path d="M226.998 56.3542C226.64 48.979 220.042 43.9022 219.684 36.5271L229.148 33.0457C229.513 40.4208 236.104 45.4976 236.469 52.866L226.998 56.3542Z" fill="#EBEBEB"/>
<path d="M234.617 52.9674C234.578 52.5821 234.662 52.1944 234.858 51.8602C235.053 51.526 235.35 51.2627 235.705 51.1084C234.563 45.3692 229.993 40.9008 228.864 35.1616C228.707 35.2307 228.536 35.2607 228.365 35.249C228.193 35.2374 228.028 35.1845 227.881 35.0947C227.735 35.005 227.613 34.8812 227.525 34.7339C227.437 34.5866 227.386 34.4202 227.377 34.249L221.496 36.4189C221.535 36.8034 221.452 37.1906 221.258 37.5247C221.063 37.8587 220.768 38.1225 220.414 38.2779C221.543 44.0172 226.113 48.4923 227.255 54.2315C227.411 54.1623 227.582 54.132 227.752 54.1433C227.922 54.1545 228.087 54.2069 228.233 54.296C228.379 54.3851 228.5 54.5082 228.588 54.6548C228.676 54.8013 228.726 54.9669 228.736 55.1374L234.61 52.9674H234.617ZM225.525 45.5314C225.341 45.2286 225.228 44.8884 225.195 44.5359C225.161 44.1835 225.207 43.828 225.33 43.496C225.453 43.1639 225.649 42.8639 225.904 42.6182C226.159 42.3725 226.466 42.1875 226.802 42.077C227.538 41.836 228.334 41.8549 229.058 42.1305C229.781 42.4061 230.388 42.9218 230.777 43.5913C230.962 43.8933 231.076 44.2333 231.111 44.5857C231.146 44.9381 231.1 45.2938 230.978 45.6262C230.856 45.9585 230.66 46.2589 230.405 46.5047C230.15 46.7506 229.843 46.9355 229.506 47.0456C228.767 47.2861 227.967 47.264 227.241 46.9833C226.516 46.7025 225.91 46.1802 225.525 45.5044V45.5314Z" fill="#E0E0E0"/>
<path d="M226.904 45.3151L226.512 45.457L226.363 45.1934L226.748 45.0447C226.595 44.7693 226.537 44.4504 226.586 44.1388H227.019C226.974 44.3956 227.01 44.6598 227.12 44.896L227.796 44.6391C227.688 44.2402 227.6 43.8008 228.08 43.6251C228.296 43.5635 228.527 43.5783 228.734 43.667C228.941 43.7556 229.111 43.9127 229.216 44.1118L229.608 43.9698L229.763 44.2402L229.371 44.3822C229.49 44.6114 229.546 44.868 229.533 45.1258H229.148C229.158 44.9196 229.121 44.7138 229.04 44.5242L228.364 44.7878C228.472 45.1866 228.573 45.626 228.087 45.8018C227.864 45.8772 227.621 45.8695 227.404 45.78C227.187 45.6906 227.009 45.5254 226.904 45.3151ZM228.256 44.4971L228.871 44.2673C228.702 44.051 228.526 43.9969 228.371 44.051C228.215 44.105 228.195 44.2876 228.242 44.4971H228.256ZM227.789 45.403C227.958 45.3421 227.958 45.1664 227.911 44.95L227.296 45.1731C227.451 45.403 227.627 45.457 227.796 45.403H227.789Z" fill="#E0E0E0"/>
<path d="M35.4267 143.707C35.0616 136.352 28.4706 131.255 28.1056 123.88L37.5696 120.398C37.9346 127.774 44.5256 132.844 44.8907 140.219L35.4267 143.707Z" fill="#EBEBEB"/>
<path d="M43.0452 140.32C43.0054 139.936 43.0887 139.548 43.2831 139.214C43.4775 138.88 43.7729 138.617 44.1268 138.461C42.9911 132.722 38.4214 128.254 37.2857 122.508C37.1293 122.578 36.9581 122.61 36.7869 122.599C36.6156 122.588 36.4496 122.536 36.303 122.447C36.1565 122.358 36.034 122.234 35.9461 122.087C35.8581 121.94 35.8075 121.773 35.7985 121.602L29.9173 123.772C29.9571 124.156 29.8738 124.543 29.6794 124.877C29.485 125.211 29.1896 125.475 28.8357 125.631C29.9714 131.37 34.5411 135.845 35.6768 141.584C35.8332 141.514 36.0044 141.482 36.1756 141.493C36.3469 141.503 36.513 141.555 36.6595 141.645C36.806 141.734 36.9285 141.858 37.0165 142.005C37.1044 142.152 37.155 142.319 37.164 142.49L43.0452 140.32ZM33.9463 132.884C33.7627 132.581 33.6499 132.241 33.6162 131.889C33.5825 131.536 33.6288 131.181 33.7516 130.849C33.8745 130.517 34.0706 130.217 34.3255 129.971C34.5805 129.725 34.8875 129.54 35.2239 129.43C35.9588 129.19 36.7534 129.21 37.4755 129.486C38.1976 129.761 38.8034 130.276 39.192 130.944C39.377 131.246 39.4911 131.586 39.5259 131.938C39.5607 132.291 39.5153 132.647 39.393 132.979C39.2707 133.311 39.0748 133.612 38.8199 133.857C38.565 134.103 38.2577 134.288 37.9211 134.398C37.1824 134.637 36.3839 134.614 35.66 134.333C34.9362 134.053 34.331 133.531 33.9463 132.857V132.884Z" fill="#E0E0E0"/>
<path d="M35.3253 132.668L34.9332 132.81L34.7845 132.539L35.1698 132.397C35.0214 132.12 34.9668 131.802 35.0143 131.492H35.447C35.3991 131.748 35.4346 132.014 35.5484 132.249L36.2244 131.992C36.1094 131.593 36.0216 131.154 36.5083 130.978C36.7247 130.915 36.9561 130.929 37.1632 131.018C37.3703 131.107 37.5402 131.264 37.644 131.465L38.036 131.323L38.1848 131.593L37.7994 131.735C37.9213 131.963 37.9752 132.221 37.9549 132.479H37.529C37.5394 132.272 37.5024 132.067 37.4209 131.877L36.7449 132.141C36.8598 132.533 36.9544 132.979 36.4745 133.155C36.2562 133.22 36.0221 133.207 35.8124 133.118C35.6027 133.029 35.4305 132.87 35.3253 132.668ZM36.6773 131.85L37.2992 131.62C37.2503 131.533 37.1741 131.465 37.0824 131.426C36.9907 131.387 36.8887 131.379 36.7922 131.404C36.6164 131.465 36.6164 131.62 36.6638 131.85H36.6773ZM36.2108 132.756C36.3866 132.695 36.3866 132.519 36.3325 132.296L35.7174 132.526C35.8796 132.756 36.0486 132.81 36.1973 132.756H36.2108Z" fill="#E0E0E0"/>
<path d="M59.5734 56.2054C56.9979 63.317 48.0814 63.175 45.1476 69.2049C42.403 66.7916 39.7396 64.4729 37.0829 62.4044C39.6517 55.2928 48.5749 55.4348 51.5087 49.4049C54.2465 51.852 56.9505 54.1166 59.5734 56.2054Z" fill="#EBEBEB"/>
<path d="M52.8201 51.2098C52.4754 51.8452 51.6236 51.8385 51.0017 51.2842C47.7975 55.4618 41.2943 56.1514 38.347 61.0321C38.6346 61.287 38.8326 61.6278 38.9118 62.0039C38.9909 62.3801 38.9469 62.7717 38.7864 63.1209C40.4403 64.4729 42.1213 65.9015 43.8293 67.4068C44.1741 66.7781 45.0259 66.7781 45.641 67.3324C48.8453 63.1547 55.3484 62.4652 58.3025 57.5845C58.0145 57.3312 57.8161 56.9917 57.7369 56.6164C57.6577 56.2412 57.702 55.8504 57.8631 55.5024C56.2001 54.1504 54.5169 52.7218 52.8134 51.2165L52.8201 51.2098ZM50.4203 61.3498C49.1224 62.0258 47.0403 61.6472 45.7897 60.4913C44.5391 59.3353 44.4377 57.7873 45.7897 57.1113C47.1417 56.4353 49.1697 56.8138 50.4271 57.9766C51.6845 59.1393 51.7115 60.6806 50.4203 61.3633V61.3498Z" fill="#E0E0E0"/>
<path d="M49.5754 60.2344C49.697 60.3426 49.812 60.444 49.9201 60.5521L49.67 60.6873L49.3252 60.3764C49.0088 60.5154 48.6621 60.5712 48.318 60.5386L48.1422 60.1803C48.4313 60.2137 48.7241 60.1742 48.994 60.0654L48.3788 59.5043C48.157 59.5956 47.9148 59.6261 47.6772 59.5929C47.4396 59.5596 47.2151 59.4637 47.0269 59.315C46.944 59.2615 46.8772 59.1866 46.8335 59.0982C46.7897 59.0098 46.7706 58.9113 46.7782 58.8129C46.7859 58.7146 46.8199 58.6202 46.8767 58.5396C46.9336 58.459 47.0111 58.3953 47.1012 58.3551L46.7497 58.0374L46.9998 57.9022L47.3446 58.2132C47.602 58.1002 47.8816 58.047 48.1625 58.0577L48.3451 58.4092C48.1151 58.4052 47.8863 58.4418 47.6691 58.5174L48.2977 59.092C48.518 58.9947 48.7609 58.9602 48.9995 58.9924C49.2381 59.0246 49.4632 59.1223 49.6497 59.2745C49.7306 59.3294 49.7956 59.4047 49.838 59.4927C49.8804 59.5808 49.8988 59.6786 49.8912 59.776C49.8837 59.8735 49.8505 59.9672 49.795 60.0477C49.7395 60.1282 49.6638 60.1926 49.5754 60.2344ZM47.98 59.1663L47.4257 58.6593C47.3893 58.6817 47.3593 58.713 47.3385 58.7503C47.3177 58.7876 47.3068 58.8296 47.3068 58.8723C47.3068 58.9149 47.3177 58.9569 47.3385 58.9942C47.3593 59.0315 47.3893 59.0628 47.4257 59.0852C47.5069 59.1376 47.5984 59.1719 47.6941 59.1859C47.7897 59.1999 47.8872 59.1932 47.98 59.1663ZM49.2644 59.5111C49.1782 59.4527 49.0797 59.4149 48.9765 59.4009C48.8733 59.3868 48.7682 59.3967 48.6695 59.43L49.2171 59.9302C49.4334 59.7815 49.4266 59.6328 49.2914 59.5111H49.2644Z" fill="#E0E0E0"/>
<path d="M66.5024 156.781C63.9336 163.892 55.0104 163.75 52.0766 169.78C49.3726 167.367 46.6686 165.048 44.0119 162.98C46.5874 155.868 55.5039 156.01 58.4377 149.98C61.1823 152.393 63.8795 154.692 66.5024 156.781Z" fill="#EBEBEB"/>
<path d="M59.7492 151.785C59.4044 152.414 58.5594 152.414 57.9375 151.859C54.7332 156.037 48.2301 156.727 45.276 161.607C45.5657 161.861 45.7657 162.201 45.8461 162.578C45.9265 162.954 45.883 163.346 45.7222 163.696C47.3784 165.048 49.0616 166.495 50.7651 167.982C51.1031 167.353 51.9549 167.353 52.5768 167.908C55.7743 163.73 62.2842 163.034 65.2315 158.16C64.9435 157.907 64.7451 157.567 64.6659 157.192C64.5867 156.816 64.631 156.426 64.7921 156.078C63.1382 154.726 61.4572 153.297 59.7492 151.792V151.785ZM57.3494 161.925C56.0582 162.601 53.9694 162.223 52.7255 161.067C51.4817 159.911 51.3735 158.363 52.7255 157.687C54.0775 157.011 56.1055 157.389 57.3561 158.552C58.6067 159.715 58.6405 161.256 57.3494 161.939V161.925Z" fill="#E0E0E0"/>
<path d="M56.5111 160.81L56.8559 161.127C56.768 161.168 56.6869 161.215 56.6058 161.263L56.261 160.945C55.9431 161.087 55.5939 161.146 55.247 161.114C55.1929 160.992 55.1321 160.877 55.078 160.756C55.3671 160.788 55.6597 160.749 55.9298 160.641L55.3078 160.08C55.0854 160.17 54.8429 160.199 54.6053 160.165C54.3677 160.13 54.1435 160.033 53.9559 159.884C53.8747 159.83 53.8095 159.755 53.7669 159.667C53.7243 159.58 53.7058 159.482 53.7134 159.385C53.7209 159.288 53.7543 159.195 53.81 159.115C53.8657 159.035 53.9417 158.971 54.0302 158.93L53.6855 158.613L53.9356 158.477L54.2803 158.788C54.5359 158.676 54.8126 158.621 55.0915 158.626C55.1524 158.748 55.22 158.863 55.2808 158.978C55.0504 158.975 54.8214 159.014 54.6048 159.093L55.2267 159.66C55.4486 159.569 55.6908 159.539 55.9284 159.572C56.166 159.605 56.3904 159.701 56.5787 159.85C56.6599 159.904 56.7253 159.979 56.7682 160.067C56.8112 160.154 56.8302 160.252 56.8233 160.349C56.8164 160.447 56.784 160.541 56.7291 160.621C56.6743 160.702 56.5991 160.767 56.5111 160.81ZM54.936 159.735L54.3885 159.235C54.1992 159.383 54.2195 159.532 54.3885 159.66C54.4694 159.711 54.56 159.743 54.6543 159.756C54.7487 159.769 54.8447 159.762 54.936 159.735ZM56.2204 160.086C56.1357 160.025 56.037 159.985 55.9332 159.971C55.8294 159.957 55.7237 159.969 55.6256 160.005L56.1731 160.505C56.3624 160.357 56.3556 160.208 56.2204 160.086Z" fill="#E0E0E0"/>
<path d="M188.493 86.4632L188.155 86.6052C188.122 86.497 188.081 86.3888 188.04 86.2739L188.372 86.132C188.253 85.7821 188.218 85.4093 188.27 85.0436L188.635 85.0909C188.59 85.3915 188.611 85.6983 188.696 85.99L189.284 85.7331C189.21 85.2531 189.149 84.7259 189.568 84.5501C189.872 84.4149 190.244 84.6042 190.501 85.2261L190.832 85.0774L190.954 85.4086L190.623 85.5506C190.716 85.8406 190.753 86.1458 190.731 86.4497L190.373 86.4091C190.387 86.1678 190.361 85.9258 190.298 85.6926L189.703 85.9494C189.778 86.4294 189.852 86.9634 189.44 87.1392C189.136 87.2609 188.764 87.0716 188.493 86.4632ZM189.649 85.5844L190.177 85.3546C190.041 85.0842 189.893 85.003 189.764 85.0639C189.636 85.1247 189.616 85.3275 189.649 85.5844ZM189.223 86.6254C189.372 86.5646 189.379 86.355 189.338 86.0914L188.818 86.3212C188.953 86.5984 189.102 86.6795 189.223 86.6254Z" fill="#E0E0E0"/>
<path d="M84.964 78.3715C85.0045 78.4796 85.0383 78.6013 85.0789 78.7162L84.7679 78.7838C84.7274 78.6689 84.6936 78.554 84.6598 78.4391C84.3226 78.5073 83.9737 78.4887 83.6458 78.385C83.6458 78.2701 83.6931 78.1552 83.7134 78.0335C83.9828 78.125 84.2703 78.1505 84.5516 78.1078C84.484 77.905 84.4164 77.6955 84.3556 77.4927C83.9026 77.4927 83.4159 77.4927 83.274 77.0533C83.1793 76.7356 83.3754 76.3773 83.95 76.2353C83.9162 76.1204 83.8756 76.0055 83.8418 75.8838L84.1528 75.8162C84.1528 75.9311 84.2271 76.046 84.2609 76.161C84.5354 76.1065 84.8179 76.1065 85.0924 76.161C85.0924 76.2759 85.0924 76.3908 85.0383 76.5057C84.8146 76.4679 84.5861 76.4679 84.3623 76.5057C84.4232 76.7153 84.4908 76.9181 84.5584 77.1276C85.0045 77.1276 85.5048 77.1276 85.6332 77.5468C85.7481 77.851 85.5453 78.216 84.964 78.3715ZM84.2339 77.1209C84.1798 76.9384 84.119 76.7491 84.0649 76.5733C83.8012 76.6612 83.7201 76.7964 83.7674 76.9316C83.8148 77.0668 83.9973 77.1141 84.2339 77.1209ZM85.1735 77.6752C85.1262 77.5197 84.9302 77.4927 84.6868 77.4859C84.7476 77.6684 84.8017 77.851 84.8626 78.0335C85.16 77.9388 85.2141 77.8036 85.16 77.6752H85.1735Z" fill="#E0E0E0"/>
<path d="M150.982 58.8418L150.691 59.0649L150.522 58.8013L150.806 58.5782C150.629 58.2854 150.527 57.9534 150.509 57.6115L150.86 57.5507C150.87 57.8348 150.947 58.1127 151.084 58.3619L151.597 57.9698C151.435 57.5507 151.28 57.0842 151.638 56.8071C151.996 56.5299 152.314 56.6786 152.638 57.1654L152.929 56.9423L153.098 57.2127L152.814 57.429C152.954 57.673 153.046 57.9414 153.084 58.2199L152.74 58.2808C152.706 58.0596 152.638 57.8451 152.537 57.6453L152.023 58.0442C152.185 58.4633 152.354 58.9297 152.023 59.2001C151.692 59.4705 151.347 59.3286 150.982 58.8418ZM151.901 57.7264L152.361 57.3817C152.185 57.1654 152.03 57.1383 151.915 57.2194C151.8 57.3006 151.827 57.5034 151.901 57.7264ZM151.705 58.7945C151.827 58.6999 151.793 58.5106 151.705 58.2808L151.253 58.6255C151.442 58.8486 151.591 58.8824 151.705 58.7945Z" fill="#E0E0E0"/>
<path d="M172.208 128.686L171.85 128.747C171.85 128.639 171.85 128.531 171.85 128.429L172.208 128.368C172.193 128.026 172.263 127.684 172.411 127.375L172.749 127.496C172.62 127.747 172.553 128.025 172.553 128.308L173.195 128.206C173.25 127.76 173.337 127.28 173.784 127.206C174.108 127.152 174.405 127.395 174.493 127.997L174.852 127.943V128.26L174.5 128.314C174.51 128.595 174.464 128.876 174.365 129.139L174.027 129.031C174.109 128.815 174.152 128.586 174.155 128.355L173.513 128.463C173.452 128.909 173.385 129.396 172.939 129.47C172.607 129.531 172.303 129.288 172.208 128.686ZM173.56 128.145L174.128 128.051C174.074 127.78 173.953 127.686 173.811 127.706C173.669 127.726 173.594 127.909 173.554 128.145H173.56ZM172.884 128.99C173.04 128.99 173.101 128.781 173.141 128.537L172.574 128.625C172.614 128.916 172.729 129.011 172.864 128.99H172.884Z" fill="#E0E0E0"/>
<path d="M93.2179 50.1012C86.7486 46.4778 80.8268 38.6632 75.7298 36.98C77.3411 33.6353 79.2292 30.4312 81.3744 27.4011C86.4714 32.3426 92.3932 41.0292 98.8625 40.5155C97.247 43.8601 95.3591 47.0661 93.2179 50.1012Z" fill="#FF6D20"/>
<path opacity="0.5" d="M93.2179 50.1012C86.7486 46.4778 80.8268 38.6632 75.7298 36.98C77.3411 33.6353 79.2292 30.4312 81.3744 27.4011C86.4714 32.3426 92.3932 41.0292 98.8625 40.5155C97.247 43.8601 95.3591 47.0661 93.2179 50.1012Z" fill="white"/>
<path opacity="0.2" d="M97.328 42.584C96.652 42.5029 96.4289 41.7593 96.848 41.0157C91.6293 39.8936 86.7891 33.5797 82.4898 29.2466C82.3845 29.3788 82.2517 29.4867 82.1006 29.5627C81.9496 29.6388 81.7839 29.6811 81.6149 29.6869C81.4459 29.6927 81.2776 29.6618 81.1217 29.5962C80.9659 29.5307 80.826 29.4322 80.7119 29.3074C79.4395 31.1769 78.264 33.1106 77.1899 35.1007C77.4715 35.3402 77.6528 35.6767 77.6979 36.0436C77.743 36.4105 77.6485 36.7809 77.4333 37.0814C81.7394 39.3798 86.5728 45.1934 91.7983 48.6883C92.0496 48.4135 92.3847 48.2294 92.7514 48.1646C93.1182 48.0998 93.496 48.158 93.8263 48.33C95.0952 46.4735 96.2684 44.5534 97.3415 42.5773L97.328 42.584ZM85.2005 41.036C83.9161 39.8395 83.6187 37.994 84.484 36.9124C85.3493 35.8308 87.0595 36.0471 88.3439 37.2842C89.6283 38.5213 89.9934 40.2856 89.1281 41.3402C88.2628 42.3948 86.512 42.246 85.2005 41.036Z" fill="black"/>
<g opacity="0.2">
<path opacity="0.2" d="M86.1808 40.36L85.9509 40.6372L85.694 40.4006C85.7751 40.3059 85.8495 40.2113 85.9306 40.1234C85.6661 39.8626 85.4669 39.5429 85.3493 39.1905L85.7008 39.0688C85.7907 39.361 85.9456 39.6291 86.1537 39.853L86.5661 39.3528C86.2822 38.9607 85.9915 38.5145 86.2822 38.1698C86.5728 37.825 86.9108 37.9196 87.4178 38.3455C87.499 38.2576 87.5733 38.163 87.6544 38.0684L87.9046 38.3117L87.6747 38.5889C87.8874 38.8025 88.0573 39.0549 88.175 39.3325L87.837 39.4677C87.7424 39.2432 87.6123 39.0355 87.4516 38.8525L87.0325 39.3528C87.3164 39.7448 87.6206 40.191 87.33 40.5358C87.0393 40.8805 86.7013 40.8062 86.1808 40.36ZM86.8567 39.0553L87.2218 38.6159C86.9852 38.4334 86.8162 38.4334 86.7283 38.5416C86.6404 38.6497 86.681 38.866 86.823 39.0824L86.8567 39.0553ZM86.9514 40.1775C87.0528 40.0558 86.9514 39.8733 86.8094 39.6502L86.4444 40.0896C86.6607 40.3059 86.823 40.3127 86.9176 40.2045L86.9514 40.1775Z" fill="black"/>
</g>
<path d="M148.704 78.7095C142.755 81.9137 133.751 82.3193 129.992 85.5033C128.106 82.3017 126.466 78.9617 125.085 75.512C131.432 74.16 141.133 74.2479 143.796 68.7114C145.681 71.916 147.322 75.2581 148.704 78.7095Z" fill="#FF6D20"/>
<path opacity="0.5" d="M148.704 78.7095C142.755 81.9137 133.751 82.3193 129.992 85.5033C128.106 82.3017 126.466 78.9617 125.085 75.512C131.432 74.16 141.133 74.2479 143.796 68.7114C145.681 71.916 147.322 75.2581 148.704 78.7095Z" fill="white"/>
<path opacity="0.2" d="M144.695 71.1653C144.303 71.6791 143.614 71.429 143.228 70.6718C139.848 74.2682 132.575 74.6602 127.072 75.6878C127.132 75.8367 127.158 75.9969 127.149 76.157C127.14 76.3172 127.096 76.4734 127.02 76.6146C126.943 76.7558 126.837 76.8786 126.708 76.9743C126.58 77.0699 126.431 77.1361 126.274 77.1682C127.085 79.088 128.032 81.1025 129.195 83.2522C129.722 82.9886 130.486 83.4009 130.885 84.1783C134.751 81.9813 141.64 81.3188 146.913 79.0678C146.813 78.7293 146.825 78.3678 146.946 78.0366C147.068 77.7054 147.293 77.4223 147.589 77.229C146.784 75.316 145.844 73.3082 144.695 71.145V71.1653ZM137.719 80.1088C137.008 80.305 136.25 80.2364 135.586 79.9155C134.922 79.5947 134.397 79.0436 134.109 78.3647C133.656 77.0533 134.643 75.7959 136.239 75.4512C137.834 75.1064 139.402 75.8027 139.828 77.1006C140.254 78.3985 139.287 79.7505 137.719 80.1088Z" fill="black"/>
<g opacity="0.2">
<path opacity="0.2" d="M137.672 78.9461C137.712 79.061 137.746 79.1759 137.78 79.2908L137.469 79.3652C137.469 79.2503 137.395 79.1354 137.361 79.0204C137.023 79.0844 136.675 79.0659 136.347 78.9664C136.347 78.8447 136.394 78.7298 136.421 78.6148C136.688 78.7071 136.974 78.7303 137.253 78.6824C137.192 78.4796 137.124 78.2768 137.057 78.0673C136.61 78.0673 136.117 78.0673 135.982 77.6279C135.88 77.3169 136.076 76.9857 136.658 76.8099C136.617 76.695 136.583 76.5801 136.543 76.4652L136.86 76.3976C136.86 76.5125 136.928 76.6274 136.969 76.7423C137.243 76.6849 137.526 76.6849 137.8 76.7423L137.739 77.0871C137.516 77.0493 137.287 77.0493 137.063 77.0871C137.131 77.2899 137.198 77.4994 137.259 77.709C137.712 77.709 138.206 77.709 138.341 78.1281C138.456 78.4256 138.253 78.7636 137.672 78.9461ZM136.942 77.6955C136.881 77.513 136.827 77.3304 136.766 77.1479C136.509 77.2426 136.428 77.3778 136.468 77.513C136.509 77.6482 136.705 77.6887 136.942 77.6955ZM137.874 78.2498C137.827 78.1011 137.638 78.0673 137.395 78.0673C137.449 78.2498 137.509 78.4323 137.564 78.6081C137.834 78.5134 137.888 78.385 137.888 78.2498H137.874Z" fill="black"/>
</g>
<path d="M197.329 36.1147C190.312 38.4807 183.41 41.4078 178.184 45.9708C176.332 43.2262 174.426 40.4344 172.688 37.5073C178.536 33.0389 185.357 30.22 191.833 27.6512C193.685 30.3958 195.591 33.1876 197.329 36.1147Z" fill="#FF6D20"/>
<path opacity="0.5" d="M197.329 36.1147C190.312 38.4807 183.41 41.4078 178.184 45.9708C176.332 43.2262 174.426 40.4344 172.688 37.5073C178.536 33.0389 185.357 30.22 191.833 27.6512C193.685 30.3958 195.591 33.1876 197.329 36.1147Z" fill="white"/>
<path opacity="0.2" d="M192.374 29.402C192.015 29.5341 191.622 29.5455 191.256 29.4345C190.89 29.3235 190.571 29.0961 190.346 28.7869C184.978 30.9568 179.462 33.3566 174.541 36.7975C174.724 37.1305 174.782 37.5184 174.704 37.8905C174.626 38.2626 174.417 38.5944 174.115 38.8255C175.224 40.6169 176.379 42.361 177.535 44.0848C177.667 43.9718 177.822 43.8887 177.988 43.841C178.155 43.7934 178.33 43.7823 178.502 43.8087C178.673 43.835 178.837 43.8981 178.981 43.9936C179.126 44.089 179.249 44.2147 179.34 44.3619C183.897 40.8467 189.48 38.3726 195.159 36.3243C195.066 36.1784 195.008 36.0128 194.991 35.8407C194.974 35.6686 194.998 35.4948 195.06 35.3336C195.123 35.1723 195.223 35.0281 195.351 34.9125C195.48 34.7968 195.634 34.7131 195.801 34.6681C194.692 32.8834 193.53 31.1394 192.38 29.4156L192.374 29.402ZM185.776 38.2914C185.108 38.6474 184.332 38.7448 183.596 38.5653C182.86 38.3858 182.217 37.9418 181.787 37.318C181.601 37.0069 181.482 36.6598 181.44 36.2996C181.397 35.9393 181.431 35.5741 181.539 35.228C181.648 34.8819 181.829 34.5627 182.069 34.2914C182.31 34.0201 182.606 33.8029 182.937 33.6541C183.63 33.3125 184.423 33.2345 185.17 33.4348C185.916 33.635 186.564 34.0998 186.993 34.7424C187.174 35.0495 187.287 35.3922 187.323 35.7469C187.359 36.1017 187.318 36.46 187.202 36.7973C187.086 37.1347 186.899 37.4429 186.653 37.7008C186.407 37.9588 186.107 38.1603 185.776 38.2914Z" fill="black"/>
<g opacity="0.2">
<path opacity="0.2" d="M185.384 37.0746L185.593 37.4194L185.309 37.5546L185.1 37.2166C184.79 37.3611 184.447 37.4194 184.106 37.3856C184.106 37.2572 184.106 37.122 184.072 36.9935C184.352 37.0294 184.636 36.9922 184.897 36.8854C184.775 36.6758 184.647 36.473 184.518 36.2702C184.086 36.3784 183.613 36.473 183.356 36.0471C183.16 35.7362 183.248 35.3306 183.755 35.0196L183.538 34.6681L183.822 34.5329L184.032 34.8709C184.288 34.761 184.565 34.7101 184.843 34.7222C184.843 34.8438 184.877 34.9723 184.897 35.1007C184.667 35.0921 184.438 35.1265 184.221 35.2021L184.6 35.824C185.032 35.7226 185.519 35.628 185.783 36.0539C185.985 36.3648 185.884 36.7569 185.384 37.0746ZM184.295 35.8984L183.957 35.3508C183.734 35.5063 183.701 35.6686 183.782 35.8038C183.863 35.939 184.059 35.9457 184.295 35.8984ZM185.37 36.2905C185.276 36.1418 185.08 36.1485 184.843 36.1958L185.174 36.7366C185.404 36.5812 185.451 36.4257 185.37 36.304V36.2905Z" fill="black"/>
</g>
<path d="M73.7897 108.183C68.6791 102.856 60.3711 103.356 55.2605 98.0431C56.8694 95.1047 58.4805 92.1641 60.0939 89.2213C65.2045 94.5482 73.5125 94.0547 78.6231 99.3613C77.0142 102.304 75.403 105.245 73.7897 108.183Z" fill="#FF6D20"/>
<path opacity="0.5" d="M73.7897 108.183C68.6791 102.856 60.3711 103.356 55.2605 98.0431C56.8694 95.1047 58.4805 92.1641 60.0939 89.2213C65.2045 94.5482 73.5125 94.0547 78.6231 99.3613C77.0142 102.304 75.403 105.245 73.7897 108.183Z" fill="white"/>
<path opacity="0.2" d="M77.3184 100.632C77.0341 100.369 76.8415 100.021 76.7685 99.6408C76.6956 99.2601 76.7461 98.8662 76.9128 98.5163C72.289 94.9335 65.9075 94.5617 61.2837 90.9721C61.2112 91.1275 61.102 91.2628 60.9654 91.3664C60.8289 91.47 60.6691 91.5388 60.5 91.5668C60.3309 91.5947 60.1575 91.581 59.9949 91.5269C59.8322 91.4728 59.6852 91.3798 59.5666 91.256L56.5584 96.7587C56.8401 97.0224 57.0306 97.369 57.1022 97.7481C57.1739 98.1273 57.1232 98.5194 56.9573 98.8678C61.5811 102.457 67.9626 102.829 72.5864 106.419C72.6582 106.263 72.7669 106.127 72.9032 106.023C73.0394 105.918 73.199 105.849 73.3682 105.82C73.5374 105.792 73.711 105.805 73.874 105.858C74.0369 105.912 74.1844 106.005 74.3034 106.128L77.3116 100.632H77.3184ZM65.556 100.97C65.2191 100.861 64.911 100.678 64.6545 100.434C64.3981 100.19 64.1999 99.8913 64.0745 99.5601C63.9492 99.229 63.9001 98.8739 63.9307 98.5212C63.9613 98.1685 64.0709 97.8272 64.2513 97.5226C64.6498 96.8555 65.266 96.3461 65.9962 96.0801C66.7263 95.8141 67.5258 95.8079 68.26 96.0624C68.5971 96.1688 68.9058 96.35 69.163 96.5924C69.4203 96.8349 69.6194 97.1323 69.7455 97.4625C69.8716 97.7928 69.9215 98.1472 69.8913 98.4994C69.8612 98.8517 69.7518 99.1925 69.5714 99.4965C69.1747 100.167 68.5582 100.681 67.8265 100.949C67.0947 101.218 66.2926 101.225 65.556 100.97Z" fill="black"/>
<g opacity="0.2">
<path opacity="0.2" d="M66.4686 99.9223C66.4077 100.044 66.3401 100.166 66.2725 100.287L65.9819 100.179L66.1779 99.821C65.8825 99.7097 65.6311 99.5057 65.4613 99.2396L65.7993 98.9692C65.9359 99.1902 66.1362 99.3646 66.3739 99.4694C66.4889 99.2531 66.6105 99.0368 66.7322 98.7934C66.3875 98.5636 66.0562 98.2932 66.2793 97.8403C66.4013 97.651 66.5857 97.5102 66.8004 97.4424C67.0152 97.3745 67.2469 97.3837 67.4555 97.4685L67.6583 97.0967L67.949 97.2048L67.7462 97.5631C67.988 97.6564 68.1988 97.8157 68.3546 98.0228L68.0301 98.2932C67.9016 98.1343 67.7402 98.0051 67.5569 97.9146L67.1987 98.5906C67.5434 98.8205 67.8747 99.0909 67.6583 99.5438C67.534 99.7344 67.3477 99.8761 67.1309 99.9451C66.9141 100.014 66.6801 100.006 66.4686 99.9223ZM66.9418 98.4284L67.2595 97.847C66.9891 97.7929 66.8201 97.847 66.7457 98.016C66.6714 98.185 66.7728 98.2932 66.9418 98.4284ZM67.1919 99.4153C67.2798 99.2531 67.1919 99.1247 66.9823 98.9895L66.6646 99.5641C66.9418 99.6249 67.1108 99.5505 67.1919 99.4153Z" fill="black"/>
</g>
<path d="M240.998 81.0822C236.172 86.9094 227.857 83.7862 223.03 88.4439C221.266 85.2464 219.501 82.1706 217.737 79.3179C222.564 73.4908 230.879 76.6139 235.705 71.9562C237.47 75.1537 239.234 78.216 240.998 81.0822Z" fill="#FF6D20"/>
<path opacity="0.5" d="M240.998 81.0822C236.172 86.9094 227.857 83.7862 223.03 88.4439C221.266 85.2464 219.501 82.1706 217.737 79.3179C222.564 73.4908 230.879 76.6139 235.705 71.9562C237.47 75.1537 239.234 78.216 240.998 81.0822Z" fill="white"/>
<path opacity="0.2" d="M236.327 74.0992C235.793 74.5791 234.975 74.2884 234.597 73.5516C230.169 76.4043 223.814 74.8563 219.393 78.4526C219.577 78.79 219.648 79.1776 219.596 79.5584C219.544 79.9392 219.371 80.2932 219.103 80.5685C220.198 82.414 221.3 84.3338 222.402 86.3077C222.936 85.8278 223.754 86.1184 224.132 86.8485C228.553 83.9958 234.908 85.5438 239.335 81.9543C239.15 81.6184 239.078 81.2315 239.13 80.8514C239.182 80.4713 239.356 80.1183 239.626 79.8452C238.524 78.0064 237.422 76.0798 236.327 74.1059V74.0992ZM230.642 82.8466C229.195 83.0426 227.39 81.9948 226.586 80.4738C225.782 78.9528 226.261 77.4724 227.701 77.2696C229.141 77.0668 230.96 78.1281 231.757 79.6491C232.555 81.1701 232.089 82.6438 230.642 82.8466Z" fill="black"/>
<g opacity="0.2">
<path opacity="0.2" d="M230.23 81.5014L230.446 81.9137L230.169 81.9543L229.946 81.5419C229.6 81.5707 229.252 81.5077 228.938 81.3594L228.898 80.9606C229.158 81.0902 229.446 81.153 229.736 81.1431L229.351 80.4062C229.114 80.4137 228.88 80.359 228.671 80.2475C228.462 80.136 228.286 79.9716 228.161 79.7708C228.103 79.6926 228.067 79.6003 228.056 79.5034C228.046 79.4065 228.061 79.3086 228.101 79.2197C228.141 79.1309 228.204 79.0542 228.284 78.9978C228.363 78.9414 228.456 78.9072 228.553 78.8988L228.33 78.4796L228.614 78.4391L228.83 78.8514C229.111 78.8315 229.392 78.8731 229.655 78.9731C229.655 79.1083 229.689 79.2368 229.709 79.3652C229.493 79.2842 229.264 79.2452 229.033 79.2503L229.432 79.9939C229.668 79.9857 229.902 80.0394 230.111 80.1497C230.319 80.26 230.496 80.423 230.622 80.6226C230.679 80.7014 230.715 80.7941 230.725 80.8912C230.736 80.9883 230.72 81.0865 230.68 81.1757C230.641 81.2649 230.578 81.342 230.499 81.3992C230.42 81.4564 230.327 81.4916 230.23 81.5014ZM229.148 79.9601L228.796 79.2841C228.573 79.3652 228.54 79.5139 228.627 79.6762C228.684 79.7627 228.761 79.8338 228.852 79.8833C228.943 79.9329 229.045 79.9592 229.148 79.9601ZM230.243 80.7172C230.182 80.6329 230.101 80.564 230.009 80.5159C229.916 80.4678 229.813 80.4419 229.709 80.44L230.054 81.116C230.25 81.0214 230.29 80.8794 230.209 80.7172H230.243Z" fill="black"/>
</g>
<path d="M211.572 126.564C192.274 163.78 166.677 197.374 135.914 225.854L88.6549 189.837C119.439 161.363 145.055 127.769 164.367 90.5462L211.572 126.564Z" fill="#FF6D20"/>
<path opacity="0.2" d="M211.572 126.564C209.986 129.633 208.35 132.675 206.664 135.69C188.007 169.303 164.126 199.738 135.914 225.854L88.6549 189.837C119.439 161.363 145.055 127.769 164.367 90.5462L211.572 126.564Z" fill="white"/>
<path opacity="0.2" d="M171.756 100.166C171.305 101.076 170.656 101.873 169.855 102.498C169.055 103.123 168.124 103.559 167.131 103.775C166.139 103.991 165.111 103.98 164.123 103.744C163.135 103.507 162.214 103.051 161.426 102.41C144.67 132.391 123.745 159.842 99.2749 183.942C100.107 184.527 100.796 185.292 101.289 186.182C101.782 187.071 102.067 188.06 102.123 189.076C102.178 190.091 102.002 191.106 101.608 192.043C101.215 192.981 100.613 193.817 99.8495 194.488L129.303 216.938C130.959 215.429 133.081 214.533 135.316 214.398C137.552 214.262 139.767 214.896 141.592 216.194C166.064 192.096 186.99 164.644 203.744 134.662C200.195 131.958 199.107 126.591 201.209 122.616L201.243 122.555L171.783 100.105L171.756 100.166ZM166.348 171.504C160.784 178.785 150.069 179.954 142.816 174.424C135.563 168.895 134.481 158.741 140.051 151.44C145.621 144.14 155.714 142.517 162.981 148.06C170.248 153.604 171.952 164.223 166.375 171.504H166.348Z" fill="black"/>
<g opacity="0.2">
<path opacity="0.2" d="M161.291 165.42L163.245 166.907L162.15 168.34L160.196 166.846C158.783 168.482 156.938 169.699 155.464 169.997L154.315 167.881C155.865 167.461 157.261 166.605 158.337 165.413L154.849 162.757C152.902 164.338 150.651 165.92 148.231 164.068C146.453 162.716 145.919 160.262 147.744 157.342L145.777 155.841C146.142 155.368 146.507 154.888 146.865 154.408L148.799 155.882C149.801 154.669 151.084 153.72 152.537 153.117L153.76 155.185C152.599 155.674 151.551 156.399 150.685 157.315L154.2 160.019C156.147 158.43 158.337 156.754 160.757 158.599C162.528 159.931 163.096 162.432 161.291 165.42ZM152.76 161.154L149.657 158.788C148.9 160.174 149.116 161.175 149.887 161.756C150.658 162.337 151.672 161.939 152.76 161.154ZM159.25 160.958C158.398 160.282 157.418 160.776 156.323 161.634L159.405 163.987C160.196 162.527 159.986 161.533 159.236 160.958H159.25Z" fill="black"/>
</g>
<path opacity="0.2" d="M206.684 135.676C188.023 169.296 164.134 199.736 135.914 225.854C135.914 225.854 115.891 195.306 107.583 189.628C107.583 189.628 172.087 165.69 206.684 135.676Z" fill="black"/>
<path d="M256.702 176.283C225.264 204.024 189.26 226.11 150.286 241.565L119.19 190.919C158.163 175.466 194.165 153.379 225.599 125.637C235.973 142.524 246.341 159.406 256.702 176.283Z" fill="#FF6D20"/>
<path opacity="0.3" d="M256.702 176.283C225.264 204.024 189.26 226.11 150.286 241.565L136.854 219.676C130.995 210.099 125.116 200.516 119.217 190.925C158.19 175.473 194.192 153.386 225.626 125.644C235.982 142.526 246.341 159.406 256.702 176.283Z" fill="white"/>
<path opacity="0.2" d="M229.074 137.285C228.33 137.979 227.439 138.495 226.468 138.795C225.496 139.094 224.469 139.169 223.464 139.014C222.459 138.859 221.503 138.479 220.666 137.9C219.83 137.322 219.136 136.561 218.636 135.676C192.187 157.588 162.762 175.636 131.243 189.283C131.809 190.128 132.175 191.09 132.314 192.098C132.454 193.105 132.362 194.131 132.047 195.097C131.732 196.064 131.201 196.947 130.495 197.679C129.789 198.41 128.926 198.972 127.971 199.321L147.352 230.864C149.441 230.055 151.743 229.985 153.877 230.667C156.011 231.348 157.847 232.739 159.081 234.609C190.603 220.967 220.028 202.918 246.474 181.002C244.135 177.203 245.061 171.801 248.455 168.834L248.509 168.786L229.148 137.238L229.074 137.285ZM198.316 201.87C190.494 206.656 180.064 203.898 175.332 196.104C170.6 188.309 173.223 178.467 181.044 173.687C188.865 168.908 198.87 170.983 203.649 178.805C208.429 186.626 206.164 197.097 198.316 201.87Z" fill="black"/>
<g opacity="0.2">
<path opacity="0.2" d="M195.774 194.346L197.058 196.442L195.517 197.381C195.098 196.705 194.672 196.029 194.246 195.313C192.34 196.32 190.19 196.793 188.683 196.536C188.581 195.739 188.48 194.941 188.372 194.143C189.967 194.31 191.577 194.015 193.009 193.291C192.247 192.048 191.486 190.804 190.724 189.56C188.331 190.331 185.668 190.986 184.072 188.39C182.903 186.484 183.288 184.003 186.046 181.941L184.755 179.832L186.29 178.886L187.56 180.961C188.932 180.193 190.471 179.771 192.042 179.731C192.178 180.522 192.306 181.313 192.441 182.097C191.18 182.14 189.94 182.439 188.798 182.976L191.109 186.748C193.503 185.97 196.146 185.2 197.734 187.789C198.904 189.695 198.525 192.23 195.774 194.346ZM189.338 187.302C188.658 186.193 187.982 185.085 187.31 183.976C186.1 184.997 185.958 186.004 186.452 186.829C186.945 187.654 188.054 187.647 189.338 187.302ZM195.456 189.465C194.895 188.546 193.813 188.634 192.495 189.006L194.523 192.311C195.767 191.263 195.95 190.263 195.456 189.465Z" fill="black"/>
</g>
<path opacity="0.2" d="M256.702 176.283C225.264 204.024 189.26 226.11 150.286 241.565L136.854 219.676L134.508 185.761C134.508 185.761 209.071 191.142 256.702 176.283Z" fill="black"/>
<path d="M265.72 241.923C224.911 251.538 182.746 254.015 141.092 249.244C139.939 229.473 138.78 209.7 137.618 189.925C179.28 194.706 221.456 192.229 262.272 182.604C263.412 202.379 264.561 222.152 265.72 241.923Z" fill="#FF6D20"/>
<path opacity="0.4" d="M265.72 241.923C224.911 251.538 182.746 254.015 141.092 249.244C139.939 229.473 138.78 209.7 137.618 189.925C179.28 194.706 221.456 192.229 262.272 182.604C263.412 202.379 264.561 222.152 265.72 241.923Z" fill="white"/>
<path opacity="0.2" d="M259.784 194.488C258.801 194.739 257.773 194.765 256.777 194.565C255.782 194.364 254.845 193.942 254.035 193.33C253.225 192.717 252.564 191.931 252.1 191.027C251.636 190.124 251.381 189.128 251.355 188.113C217.694 194.941 183.235 196.955 149.008 194.096C149.107 195.108 148.975 196.129 148.622 197.083C148.269 198.037 147.704 198.898 146.97 199.601C146.236 200.305 145.351 200.833 144.384 201.145C143.416 201.457 142.39 201.545 141.383 201.403C142.108 213.729 142.83 226.055 143.546 238.381C145.77 238.651 147.833 239.676 149.393 241.284C150.953 242.891 151.915 244.985 152.118 247.216C186.344 250.075 220.804 248.061 254.464 241.233C254.201 236.779 257.567 232.445 261.954 231.458H262.022L259.852 194.488H259.784ZM202.176 236.907C193.023 237.428 185.154 230.066 184.6 220.96C184.045 211.854 191.069 204.418 200.222 203.898C209.375 203.377 217.196 209.982 217.73 219.088C218.264 228.193 211.322 236.4 202.176 236.907Z" fill="black"/>
<g opacity="0.2">
<path opacity="0.2" d="M203.46 229.072L203.602 231.519L201.804 231.627L201.662 229.201C199.717 229.255 197.802 228.715 196.173 227.653C196.463 226.902 196.747 226.152 197.031 225.401C198.36 226.299 199.917 226.798 201.52 226.841C201.439 225.381 201.353 223.923 201.263 222.468C198.796 222.015 196.132 221.339 195.956 218.297C195.828 216.066 197.342 214.065 200.742 213.565L200.601 211.097L202.399 210.989L202.541 213.416C204.113 213.379 205.669 213.735 207.07 214.45L206.299 216.722C205.169 216.162 203.936 215.84 202.676 215.775L202.939 220.196C205.407 220.636 208.104 221.204 208.287 224.252C208.442 226.449 206.914 228.511 203.46 229.072ZM201.114 219.818C201.033 218.524 200.957 217.229 200.884 215.931C199.336 216.255 198.728 217.073 198.782 218.04C198.836 219.007 199.843 219.5 201.141 219.818H201.114ZM205.488 224.617C205.427 223.549 204.433 223.11 203.095 222.819L203.318 226.693C204.934 226.348 205.569 225.584 205.488 224.617Z" fill="black"/>
</g>
<path d="M168.605 241.984C168.781 244.007 168.991 246.065 169.234 248.156H27.0713C31.5194 210.577 27.0713 194.285 27.0713 194.285C74.5806 190.709 169.234 194.285 169.234 194.285C169.234 194.285 166.375 212.388 168.301 238.313C168.391 239.516 168.493 240.74 168.605 241.984Z" fill="#FF6D20"/>
<path opacity="0.2" d="M169.234 194.285C163.008 197.192 132.554 197.604 115.032 196.516C97.5105 195.428 74.5806 198.747 74.5806 198.747C61.304 194.164 27.0713 194.285 27.0713 194.285C74.5806 190.709 169.234 194.285 169.234 194.285Z" fill="white"/>
<path opacity="0.2" d="M27.0713 248.156C31.5194 210.577 27.0713 194.285 27.0713 194.285C27.0713 194.285 55.2538 193.67 74.5806 198.747C74.5806 198.747 75.2566 204.479 74.5806 207.427C74.5806 207.427 97.8282 203.655 118.521 204.155C118.521 204.155 86.4917 207.839 74.5806 210.577C74.5806 210.577 55.4228 207.589 43.3021 207.427C43.3021 207.427 68.5034 210.705 74.5806 212.666C74.5806 212.666 81.7868 211.354 85.5588 211.354C85.5588 211.354 76.5342 212.997 74.5806 214.464V224.847C74.5806 224.847 54.4628 225.246 44.3702 223.806C49.163 224.556 68.7062 227.565 74.5806 227.565C74.5806 227.565 96.7804 226.747 109.672 227.565C109.672 227.565 80.2996 229.255 74.5806 230.62H49.3658L74.5806 232.736V234.838H85.3966L74.5806 236.704C74.5806 236.704 43.3021 234.717 34.3045 236.704C34.3045 236.704 71.2209 238.381 74.54 239.685L74.5806 242.795C74.5806 242.795 115.979 237.326 152.591 242.031C152.591 242.031 99.1262 239.908 74.5806 245.857C74.5806 245.857 151.381 244.188 169.221 248.156H27.0713Z" fill="black"/>
<path d="M27.9028 198.747L24.151 200.058C24.151 200.058 46.7497 200.836 61.331 203.066C61.3175 203.066 38.854 199.071 27.9028 198.747Z" fill="#FF6D20"/>
<path opacity="0.2" d="M77.8727 203.066L83.5917 204.155C83.5917 204.155 110.219 201.262 141.694 200.91C141.694 200.91 96.2329 198.706 77.8727 203.066Z" fill="white"/>
<path opacity="0.2" d="M95.9152 209.184C95.9152 209.184 111.882 204.831 125.882 205.047C139.882 205.263 166.53 203.066 166.53 203.066L167.578 205.047C167.578 205.047 146.683 206.271 129.438 206.129C118.195 206.15 106.977 207.173 95.9152 209.184Z" fill="white"/>
<path opacity="0.2" d="M80.0697 215.694C80.0697 215.694 99.1059 211.638 117.77 212.01C136.435 212.382 159.939 213.842 159.939 213.842C159.939 213.842 108.928 213.842 95.9152 216.546L80.0697 215.694Z" fill="white"/>
<path d="M112.998 209.799C112.998 209.799 129.391 208.447 143.539 209.184C157.688 209.921 172.547 210.584 172.547 210.584L167.578 211.99C167.578 211.99 133.514 208.576 112.998 209.799Z" fill="#FF6D20"/>
<path opacity="0.2" d="M112.998 209.799C112.998 209.799 129.391 208.447 143.539 209.184C157.688 209.921 172.547 210.584 172.547 210.584L167.578 211.99C167.578 211.99 133.514 208.576 112.998 209.799Z" fill="black"/>
<path opacity="0.2" d="M80.6849 219.135C80.6849 219.135 109.077 218.783 122.752 218.101C136.428 217.418 154.768 221.21 154.768 221.21C154.768 221.21 132.142 220.73 125.139 221.839L80.6849 219.135Z" fill="black"/>
<path opacity="0.2" d="M77.8727 223.434L95.9152 221.839L134.353 223.434L95.4217 225.03L77.8727 223.434Z" fill="white"/>
<path opacity="0.2" d="M91.3657 231.905C91.3657 231.905 117.601 229.457 127.822 229.329C138.044 229.201 165.55 227.362 165.55 227.362L162.494 231.418C162.494 231.418 110.774 230.316 91.3657 231.905Z" fill="white"/>
<path d="M157.891 218.101L167.578 219.013L170.214 218.101C166.115 217.717 161.99 217.717 157.891 218.101Z" fill="#FF6D20"/>
<path d="M168.802 197.652L172.547 198.253L168.524 200.356L144.864 199.855C144.864 199.855 162.603 199.619 168.802 197.652Z" fill="#FF6D20"/>
<path opacity="0.2" d="M157.891 218.101L167.578 219.013L170.214 218.101C166.115 217.717 161.99 217.717 157.891 218.101Z" fill="white"/>
<path opacity="0.2" d="M168.802 197.652L172.547 198.253L168.524 200.356L144.864 199.855C144.864 199.855 162.603 199.619 168.802 197.652Z" fill="black"/>
<path opacity="0.2" d="M168.605 241.984C162.251 241.571 117.723 235.974 117.723 235.974C120.691 235.629 159.561 237.928 168.301 238.313C168.391 239.516 168.493 240.74 168.605 241.984Z" fill="black"/>
<path d="M101.56 235.21C101.56 235.21 143.195 235.102 155.106 235.961C167.017 236.819 168.085 235.21 168.085 235.21L174.02 238.07C174.02 238.07 174.324 240.909 158.702 238.928C143.08 236.948 101.56 235.21 101.56 235.21Z" fill="#FF6D20"/>
<path d="M67.5434 214.275C67.5434 214.275 43.1601 210.408 28.9438 211.395C31.0805 211.88 33.0709 212.868 34.7507 214.275H67.5434Z" fill="#FF6D20"/>
<path d="M28.9168 224.847C29.4711 224.786 47.1688 227.119 53.9288 227.362L26.4156 228.47L28.9168 224.847Z" fill="#FF6D20"/>
<path d="M27.9163 240.138L54.6454 241.085L24.151 243.342L27.9163 240.138Z" fill="#FF6D20"/>
<path d="M76.6154 192.46C76.6154 192.46 114.58 198.95 136.597 172.971L178.076 183.618C178.076 183.618 170.444 199.45 113.119 197.347C55.7946 195.245 76.6154 192.46 76.6154 192.46Z" fill="#FF6D20"/>
<path opacity="0.5" d="M76.6154 192.46C76.6154 192.46 114.58 198.95 136.597 172.971L178.076 183.618C178.076 183.618 170.444 199.45 113.119 197.347C55.7946 195.245 76.6154 192.46 76.6154 192.46Z" fill="white"/>
<path opacity="0.2" d="M98.2947 193.859C98.2947 193.859 121.502 192.636 134.623 177.791C135.827 178.164 137.116 178.166 138.321 177.797C139.527 177.428 140.593 176.705 141.383 175.722L171.661 183.746C171.661 183.746 168.403 184.889 169.545 188.661C169.518 188.661 129.776 204.763 98.2947 193.859Z" fill="black"/>
<path d="M145.919 76.7758L146.956 71.2781C146.956 71.2781 144.814 69.2448 145.061 67.3299C145.307 65.4151 154.842 62.3948 156.53 62.227C158.218 62.0592 157.576 68.9684 157.063 70.2219C156.55 71.4755 150.825 72.9856 150.825 72.9856L150.104 78.7795L145.919 76.7758Z" fill="#EBB376"/>
<path d="M35.9932 103.801L32.2129 99.6749C32.2129 99.6749 32.9532 96.8224 31.749 95.3616C30.5448 93.9007 20.8225 96.2992 19.3222 97.079C17.822 97.8587 21.9872 103.357 23.0927 104.146C24.1982 104.936 29.844 103.159 29.844 103.159L33.5158 107.709L35.9932 103.801Z" fill="#EBB376"/>
<path d="M111.176 94.9372C121.806 94.345 131.439 96.5658 136.384 94.9372C141.329 93.3086 146.126 72.7388 146.126 72.7388L151.328 74.4957C151.328 74.4957 149.354 95.9045 140.806 101.639C132.259 107.374 112.449 107.324 112.449 107.324L111.176 94.9372Z" fill="#FF6D20"/>
<path opacity="0.7" d="M151.328 74.4957C151.328 74.4957 149.354 95.9045 140.806 101.639C135.871 104.896 127.412 106.288 120.987 106.89C116.121 107.334 112.449 107.324 112.449 107.324L111.857 101.54L111.176 94.9372C121.806 94.3449 131.439 96.5658 136.384 94.9372C141.329 93.3086 146.126 72.7388 146.126 72.7388L151.328 74.4957Z" fill="white"/>
<path opacity="0.2" d="M120.987 106.89C116.121 107.334 112.449 107.324 112.449 107.324L111.857 101.54C115.165 102.826 118.248 104.632 120.987 106.89Z" fill="black"/>
<path d="M179.133 261.213L186.012 259.327L184.779 242.528L177.909 244.423L179.133 261.213Z" fill="#B97964"/>
<path d="M186.437 258.409L178.442 258.962C178.308 258.967 178.181 259.025 178.088 259.123C177.996 259.221 177.946 259.351 177.948 259.485L177.998 265.832C178.021 266.164 178.173 266.473 178.423 266.693C178.672 266.913 178.998 267.025 179.33 267.006C182.114 266.77 183.436 266.513 186.95 266.246C190.085 266.14 193.209 265.81 196.297 265.259C199.259 264.578 198.469 261.716 197.166 261.746C193.8 261.564 190.539 260.513 187.7 258.696C187.322 258.465 186.878 258.365 186.437 258.409Z" fill="#263238"/>
<path d="M189.043 259.446C188.402 259.476 187.76 259.436 187.128 259.327C187.096 259.323 187.066 259.31 187.041 259.289C187.017 259.268 186.999 259.24 186.99 259.209C186.985 259.178 186.987 259.146 186.995 259.115C187.004 259.084 187.019 259.056 187.039 259.031C187.256 258.854 189.181 257.344 190.079 257.62C190.18 257.652 190.272 257.71 190.344 257.788C190.417 257.866 190.468 257.961 190.493 258.064C190.563 258.217 190.586 258.387 190.562 258.553C190.537 258.719 190.466 258.875 190.355 259.002C189.986 259.304 189.519 259.461 189.043 259.446ZM189.98 257.965C189.506 257.817 188.362 258.498 187.572 259.081C188.865 259.239 189.793 259.14 190.109 258.785C190.172 258.699 190.213 258.599 190.227 258.494C190.24 258.388 190.227 258.281 190.188 258.183C190.172 258.133 190.145 258.088 190.109 258.05C190.073 258.013 190.029 257.984 189.98 257.965Z" fill="#263238"/>
<path d="M187.157 259.328C187.147 259.333 187.135 259.336 187.123 259.336C187.111 259.336 187.099 259.333 187.088 259.328C187.065 259.316 187.044 259.299 187.027 259.278C187.01 259.258 186.997 259.235 186.99 259.209C186.99 259.14 186.684 257.087 187.345 256.337C187.433 256.243 187.54 256.17 187.66 256.122C187.779 256.074 187.908 256.053 188.036 256.061C188.178 256.056 188.317 256.098 188.433 256.18C188.549 256.262 188.635 256.379 188.678 256.515C188.885 257.284 187.927 258.844 187.256 259.308C187.242 259.318 187.226 259.325 187.209 259.329C187.192 259.332 187.174 259.332 187.157 259.328ZM187.947 256.426C187.88 256.429 187.815 256.446 187.755 256.477C187.695 256.507 187.643 256.551 187.602 256.603C187.255 257.31 187.147 258.11 187.296 258.883C187.912 258.292 188.288 257.494 188.352 256.643C188.352 256.544 188.263 256.436 188.026 256.426H187.947Z" fill="#263238"/>
<path opacity="0.2" d="M177.909 244.423L184.788 242.538L185.489 252.142L178.57 253.682L177.909 244.423Z" fill="black"/>
<path d="M170.131 260.966L163.626 263.937L161.978 256.949L159.757 247.552L166.232 244.581L168.463 253.968L170.131 260.966Z" fill="#B97964"/>
<path opacity="0.2" d="M168.463 253.968L161.978 256.949L159.757 247.552L166.232 244.581L168.463 253.968Z" fill="black"/>
<path d="M170.398 259.999L162.6 261.825C162.469 261.849 162.353 261.924 162.278 262.033C162.202 262.142 162.172 262.276 162.195 262.407L163.261 268.675C163.293 268.838 163.357 268.993 163.449 269.132C163.542 269.27 163.661 269.389 163.8 269.481C163.938 269.572 164.094 269.636 164.257 269.667C164.421 269.698 164.589 269.696 164.752 269.662C167.466 268.981 168.7 268.517 172.154 267.688C175.235 267.103 178.27 266.299 181.235 265.279C184.009 264.144 182.814 261.44 181.541 261.677C178.521 262.22 174 261.233 171.671 260.157C171.276 259.964 170.828 259.908 170.398 259.999Z" fill="#263238"/>
<path d="M173.142 260.611C172.512 260.739 171.87 260.799 171.227 260.789C171.194 260.793 171.161 260.787 171.133 260.771C171.104 260.755 171.082 260.73 171.069 260.7C171.054 260.672 171.046 260.642 171.046 260.611C171.046 260.58 171.054 260.549 171.069 260.522C171.256 260.315 172.905 258.548 173.842 258.637C173.946 258.655 174.044 258.698 174.127 258.764C174.21 258.829 174.275 258.915 174.316 259.012C174.414 259.158 174.466 259.33 174.466 259.505C174.466 259.681 174.414 259.853 174.316 259.999C174.007 260.332 173.592 260.548 173.142 260.611ZM173.832 259.002C173.329 258.923 172.312 259.782 171.621 260.483C172.924 260.433 173.832 260.186 174.079 259.792C174.135 259.699 174.164 259.593 174.164 259.486C174.164 259.378 174.135 259.272 174.079 259.18C174.061 259.132 174.031 259.09 173.991 259.059C173.951 259.028 173.903 259.008 173.852 259.002H173.832Z" fill="#263238"/>
<path d="M171.256 260.788C171.247 260.793 171.237 260.795 171.227 260.795C171.216 260.795 171.206 260.793 171.197 260.788C171.171 260.78 171.146 260.766 171.126 260.747C171.105 260.729 171.089 260.706 171.079 260.68C171.079 260.621 170.427 258.627 170.97 257.788C171.041 257.681 171.134 257.591 171.243 257.525C171.352 257.458 171.475 257.416 171.602 257.403C171.743 257.374 171.89 257.393 172.019 257.457C172.148 257.522 172.251 257.628 172.312 257.758C172.638 258.479 171.947 260.176 171.325 260.719C171.322 260.736 171.314 260.752 171.301 260.764C171.289 260.776 171.273 260.785 171.256 260.788ZM171.572 257.827C171.442 257.86 171.329 257.941 171.256 258.054C171.031 258.811 171.051 259.62 171.316 260.364C171.83 259.682 172.08 258.837 172.016 257.985C172.016 257.886 171.888 257.788 171.651 257.817L171.572 257.827Z" fill="#263238"/>
<path d="M121.934 165.569L119.832 142.354L81.0711 143.262C81.0711 143.262 76.4814 175.607 79.8176 181.549C85.7398 192.16 124.846 186.139 133.986 187.037C137.717 189.011 157.675 255.212 157.675 255.212L168.858 250.701C168.858 250.701 156.836 194.845 154.052 184.323C150.292 169.695 134.776 169.952 121.934 165.569Z" fill="#263238"/>
<path d="M186.17 249.556L176.3 250.464C176.3 250.464 164.209 188.883 163.271 188.616C161.593 188.133 156.688 187.58 154.052 186.889C135.753 182.132 90.6848 173.377 90.6848 173.377L107.306 157.367C107.306 157.367 182.657 166.408 184.295 184.096C185.134 192.565 186.17 249.556 186.17 249.556Z" fill="#263238"/>
<path opacity="0.2" d="M160.616 188.666C158.928 188.182 156.668 187.59 154.052 186.899C154.783 187.284 152.67 177.7 150.558 175.222C146.363 170.287 129.525 167.603 123.494 166.635C118.44 165.826 101.503 164.336 101.503 164.336C101.503 164.336 131.41 161.749 153.944 167.938C165.087 170.998 163.103 181.875 160.616 188.666Z" fill="black"/>
<path d="M75.899 100.573C75.899 100.573 90.2012 92.9828 111.176 94.9371C111.176 94.9371 118.45 113.434 119.832 142.315L80.8342 145.019C80.8342 145.019 81.535 120.264 75.899 100.573Z" fill="#FF6D20"/>
<path opacity="0.7" d="M80.8342 145.059C80.9341 138.319 80.6837 131.578 80.0841 124.864C79.7386 120.916 79.2451 116.76 78.5344 112.526C77.8814 108.495 77.0016 104.505 75.899 100.573C75.899 100.573 90.2012 92.9828 111.176 94.9371C111.176 94.9371 118.45 113.434 119.832 142.315L80.8342 145.059Z" fill="white"/>
<path opacity="0.2" d="M80.1137 124.864C79.7682 120.916 79.2747 116.76 78.564 112.526C79.2566 111.822 80.091 111.274 81.0119 110.917L81.0612 110.483C81.0316 110.957 83.0748 118.251 80.1137 124.864Z" fill="black"/>
<path d="M86.7069 97.8884C90.28 101.136 99.0251 99.9316 99.0251 99.9316C99.0251 99.9316 104.483 98.4412 103.338 96.7336C100.121 96.2006 98.5711 94.7003 97.9196 92.7855C97.574 91.5909 97.4634 90.3406 97.5939 89.1038C97.5939 88.4326 97.7519 87.7417 97.8703 87.0607L87.0228 79.0558C88.4737 84.3365 90.2109 94.0587 86.7069 97.8884Z" fill="#EBB376"/>
<path opacity="0.2" d="M89.5498 84.1391C89.9841 90.6239 95.3141 92.4204 97.9199 92.7856C97.5742 91.591 97.4636 90.3406 97.5941 89.1039L89.5498 84.1391Z" fill="black"/>
<path d="M96.4095 56.808C100.427 57.8937 103.773 67.1619 100.762 73.2914C97.7519 79.4209 88.6811 62.2761 88.6811 62.2761C88.6811 62.2761 93.8136 56.117 96.4095 56.808Z" fill="#263238"/>
<path d="M104.79 78.0688C104.809 78.4436 104.809 78.8192 104.79 79.194C104.72 81.8689 103.641 84.4185 101.769 86.3303C100.096 88.073 97.833 89.1289 95.4226 89.2914C93.7078 89.3763 92.0021 88.9943 90.4874 88.1859C85.6904 85.7479 84.3974 81.5234 81.6041 74.555C80.9084 72.9335 80.6433 71.1598 80.8345 69.4057C81.0256 67.6517 81.6665 65.9767 82.695 64.5431C83.7236 63.1094 85.105 61.9657 86.7053 61.2228C88.3057 60.4798 90.0708 60.1627 91.8298 60.3022C99.726 60.8846 104.178 71.1596 104.79 78.0688Z" fill="#EBB376"/>
<path d="M93.0637 72.9261C93.2117 73.5085 93.7053 73.9132 94.0507 73.7454C94.3962 73.5776 94.5837 73.0446 94.3962 72.4721C94.2087 71.8996 93.7349 71.485 93.4092 71.6528C93.0834 71.8206 92.8761 72.3339 93.0637 72.9261Z" fill="#263238"/>
<path d="M99.6075 70.7744C99.7556 71.3567 100.259 71.7121 100.595 71.5936C100.93 71.4752 101.128 70.8928 100.94 70.3105C100.753 69.7281 100.289 69.3728 99.953 69.4913C99.6174 69.6097 99.4299 70.2217 99.6075 70.7744Z" fill="#263238"/>
<path d="M97.6235 71.7418C98.8964 73.2846 100.374 74.6462 102.016 75.7886C101.711 76.2043 101.319 76.5481 100.867 76.7954C100.415 77.0427 99.9144 77.1876 99.4002 77.2198L97.6235 71.7418Z" fill="#D58745"/>
<path d="M101.118 67.2114C101.07 67.2574 101.012 67.2912 100.948 67.3101C100.885 67.329 100.818 67.3324 100.752 67.32C100.32 67.2019 99.8668 67.1869 99.4279 67.276C98.9891 67.3651 98.5773 67.556 98.2256 67.8333C98.1575 67.8987 98.0662 67.9344 97.9718 67.9326C97.8774 67.9307 97.7876 67.8914 97.7222 67.8234C97.6567 67.7553 97.621 67.664 97.6229 67.5696C97.6247 67.4752 97.664 67.3854 97.7321 67.32C98.1705 66.96 98.6883 66.7096 99.2427 66.5895C99.797 66.4693 100.372 66.4829 100.92 66.6291C100.966 66.6384 101.01 66.6569 101.049 66.6834C101.088 66.7099 101.122 66.7439 101.147 66.7834C101.173 66.8229 101.191 66.8671 101.199 66.9135C101.207 66.9599 101.207 67.0074 101.197 67.0535C101.176 67.1089 101.15 67.1619 101.118 67.2114Z" fill="#263238"/>
<path d="M90.9019 70.735C90.8351 70.76 90.7615 70.76 90.6947 70.735C90.6138 70.6876 90.555 70.6102 90.5309 70.5196C90.5069 70.429 90.5196 70.3326 90.5663 70.2514C90.8542 69.7599 91.2551 69.3442 91.7357 69.0387C92.2163 68.7331 92.7629 68.5466 93.33 68.4944C93.3767 68.4931 93.4232 68.501 93.4668 68.5177C93.5104 68.5343 93.5503 68.5594 93.5842 68.5915C93.6181 68.6236 93.6454 68.662 93.6644 68.7046C93.6835 68.7473 93.694 68.7932 93.6952 68.8399C93.6954 68.9334 93.6596 69.0234 93.5953 69.0914C93.5311 69.1593 93.4432 69.2 93.3498 69.2051C92.903 69.259 92.4749 69.4165 92.0996 69.6649C91.7244 69.9134 91.4123 70.246 91.1882 70.6363C91.1499 70.6717 91.1047 70.6988 91.0555 70.7158C91.0062 70.7328 90.9539 70.7393 90.9019 70.735Z" fill="#263238"/>
<path d="M83.9138 63.8947L85.4635 66.8558C85.0438 67.31 84.8107 67.9056 84.8107 68.5239C84.8107 69.1423 85.0438 69.7379 85.4635 70.192C87.4375 72.403 87.5165 76.9828 86.1346 79.3517C86.1346 79.3517 85.651 78.2561 84.8021 78.8779C83.9533 79.4997 86.4604 85.2541 89.3721 87.3368C89.3721 87.3368 85.6115 85.8858 81.6831 80.3486C78.0508 75.2358 76.057 70.5671 76.3827 67.9218L83.9138 63.8947Z" fill="#263238"/>
<path d="M80.4295 81.3358C81.7432 82.6868 83.5397 83.4608 85.4239 83.4875C87.931 83.4875 88.5232 81.1088 87.2795 79.0854C86.1642 77.2988 83.509 75.078 81.2685 76.0552C79.0279 77.0323 78.8305 79.6578 80.4295 81.3358Z" fill="#EBB376"/>
<path d="M100.17 79.6972C99.7154 80.6917 99.3328 81.7175 99.0252 82.7669L98.4527 82.6978C95.8667 82.3523 94.771 81.3357 94.3565 80.3092C94.1639 79.8065 94.0929 79.2653 94.1492 78.7299C94.1692 78.4223 94.2358 78.1194 94.3466 77.8317C95.8475 78.7592 97.5309 79.3517 99.2818 79.5689C99.8543 79.6676 100.17 79.6972 100.17 79.6972Z" fill="#263238"/>
<path d="M99.2918 79.5689L98.9266 80.4671C96.4886 80.1315 94.8107 79.5689 94.1494 78.7299C94.1694 78.4223 94.2359 78.1194 94.3468 77.8317C95.8506 78.7605 97.5375 79.3531 99.2918 79.5689Z" fill="white"/>
<path d="M98.4527 82.6978C95.8666 82.3524 94.771 81.3357 94.3564 80.3092C95.3411 80.473 96.2896 80.807 97.1596 81.2962C97.7252 81.6186 98.1769 82.1082 98.4527 82.6978Z" fill="#DE5753"/>
<path d="M90.517 64.4082C90.517 64.4082 89.8261 59.6902 92.8069 60.6081C95.7878 61.526 95.995 59.7296 95.1067 56.0875C94.2184 52.4453 85.6707 51.1523 80.8342 57.1239C75.9977 63.0954 74.3099 68.0997 76.6492 70.7449C78.9885 73.3902 87.9014 65.5828 87.9014 65.5828C88.1444 64.2491 88.7103 62.9952 89.5497 61.9307C89.6045 62.8375 89.9428 63.7042 90.517 64.4082Z" fill="#263238"/>
<path d="M95.1264 99.5564L99.8543 103.732C99.8543 103.732 102.45 121.301 108.826 128.98H112.775L113.554 126.256C107.623 119.634 103.365 111.687 101.137 103.08V97.4837L95.1264 99.5564Z" fill="#263238"/>
<path d="M87.9111 94.0882L97.6236 97.7304L98.4527 92.7854L103.496 94.6114L104.789 100.859L97.9197 99.1616L94.5144 103.722L84.6144 97.3158L87.9111 94.0882Z" fill="#FF6D20"/>
<path opacity="0.5" d="M87.9111 94.0882L97.6236 97.7304L98.4527 92.7854L103.496 94.6114L104.789 100.859L97.9197 99.1616L94.5144 103.722L84.6144 97.3158L87.9111 94.0882Z" fill="white"/>
<path d="M80.2815 144.407L120.286 140.607L120.375 145.463L80.3013 148.74L80.2815 144.407Z" fill="black"/>
<path d="M111.817 141.604C111.637 141.441 111.424 141.318 111.192 141.244C110.961 141.169 110.716 141.144 110.475 141.17L106.931 141.535C106.493 141.579 106.088 141.787 105.796 142.116C105.503 142.445 105.345 142.871 105.352 143.312V145.582C105.362 146.049 105.557 146.492 105.894 146.816C106.23 147.14 106.682 147.317 107.148 147.309H107.297L110.84 146.934C111.277 146.889 111.681 146.682 111.972 146.352C112.263 146.023 112.419 145.596 112.409 145.157V142.897C112.408 142.652 112.355 142.41 112.252 142.187C112.15 141.964 112.002 141.765 111.817 141.604ZM110.781 146.026L107.247 146.401C107.126 146.418 107.003 146.409 106.885 146.374C106.768 146.34 106.659 146.282 106.566 146.202C106.473 146.123 106.397 146.025 106.345 145.915C106.292 145.804 106.263 145.684 106.26 145.562V143.302C106.257 143.087 106.334 142.878 106.476 142.718C106.619 142.557 106.816 142.455 107.03 142.433L110.564 142.068H110.643C110.867 142.068 111.082 142.156 111.243 142.312C111.403 142.469 111.496 142.683 111.501 142.907V143.213H111.363L110.376 143.302C110.297 143.309 110.22 143.331 110.15 143.368C110.079 143.405 110.017 143.455 109.966 143.516C109.915 143.577 109.877 143.648 109.853 143.723C109.83 143.799 109.821 143.879 109.828 143.958C109.835 144.037 109.858 144.114 109.895 144.184C109.932 144.255 109.982 144.317 110.043 144.368C110.104 144.419 110.174 144.457 110.25 144.481C110.326 144.504 110.406 144.513 110.485 144.506L111.472 144.407H111.521V145.187C111.52 145.393 111.445 145.591 111.309 145.746C111.172 145.9 110.985 146 110.781 146.026Z" fill="white"/>
<path d="M75.8991 100.573C69.2267 104.521 59.5933 117.521 56.2078 117.254C52.8223 116.988 34.5621 100.771 34.5621 100.771L30.3969 105.281C30.3969 105.281 47.2652 125.427 55.122 126.947C62.9788 128.467 80.2815 113.898 80.2815 113.898C81.2601 111.388 81.2601 108.601 80.2815 106.091C79.3942 103.861 77.87 101.942 75.8991 100.573Z" fill="#FF6D20"/>
<path opacity="0.7" d="M75.8991 100.573C69.2267 104.521 59.5933 117.521 56.2078 117.254C52.8223 116.988 34.5621 100.771 34.5621 100.771L30.3969 105.281C30.3969 105.281 47.2652 125.427 55.122 126.947C62.9788 128.467 80.2815 113.898 80.2815 113.898C81.2601 111.388 81.2601 108.601 80.2815 106.091C79.3942 103.861 77.87 101.942 75.8991 100.573Z" fill="white"/>
<path d="M126.808 197.706C126.808 197.706 36.0824 198.334 30.4513 185.592L70.8558 182.658C78.8744 186.022 87.0813 188.918 95.4352 191.331C104.764 194.055 115.823 196.638 126.808 197.706Z" fill="#FF6D20"/>
<path opacity="0.2" d="M126.808 197.706C126.808 197.706 123.962 197.706 119.23 197.706C99.8224 196.354 77.1629 186.714 77.1629 186.714C68.9833 188.512 63.359 185.288 63.359 185.288L41.3079 186.552C41.4266 187.095 41.4214 187.658 41.2927 188.198C41.164 188.739 40.915 189.244 40.5643 189.675C51.9954 192.886 64.3189 194.84 74.3643 196.023C53.1446 194.434 33.0066 191.405 30.4243 185.612L70.8288 182.678C70.8288 182.678 99.0518 195.002 126.808 197.706Z" fill="white"/>
<path opacity="0.2" d="M126.808 197.706C126.808 197.706 36.0824 198.334 30.4513 185.592C30.4513 185.592 61.1079 198.835 95.4352 191.331C104.764 194.055 115.823 196.638 126.808 197.706Z" fill="black"/>
</g>
<defs>
<clipPath id="clip0_1_12">
<rect width="315" height="286" fill="white"/>
</clipPath>
</defs>
</svg>
